<mxfile host="app.diagrams.net" agent="Mozilla/5.0 (Windows NT 10.0; Win64; x64) AppleWebKit/537.36 (KHTML, like Gecko) Chrome/132.0.0.0 Safari/537.36 OPR/117.0.0.0" version="26.1.1">
  <diagram name="Page-1" id="LSUX8TN2Mebf_5WfbN1z">
    <mxGraphModel dx="1005" dy="566" grid="1" gridSize="10" guides="1" tooltips="1" connect="1" arrows="1" fold="1" page="1" pageScale="1" pageWidth="850" pageHeight="1100" math="0" shadow="0">
      <root>
        <mxCell id="0" />
        <mxCell id="1" parent="0" />
        <mxCell id="IteQJDFuHtqB8pgohdOz-10" value="" style="rounded=1;whiteSpace=wrap;html=1;dashed=1;" vertex="1" parent="1">
          <mxGeometry x="50" y="230" width="170" height="130" as="geometry" />
        </mxCell>
        <mxCell id="IteQJDFuHtqB8pgohdOz-25" style="edgeStyle=orthogonalEdgeStyle;rounded=0;orthogonalLoop=1;jettySize=auto;html=1;exitX=0.5;exitY=1;exitDx=0;exitDy=0;entryX=0.5;entryY=0;entryDx=0;entryDy=0;" edge="1" parent="1" source="IteQJDFuHtqB8pgohdOz-6" target="IteQJDFuHtqB8pgohdOz-7">
          <mxGeometry relative="1" as="geometry" />
        </mxCell>
        <mxCell id="IteQJDFuHtqB8pgohdOz-6" value="Input fft-spectogram" style="rounded=0;whiteSpace=wrap;html=1;" vertex="1" parent="1">
          <mxGeometry x="70" y="80" width="130" height="50" as="geometry" />
        </mxCell>
        <mxCell id="IteQJDFuHtqB8pgohdOz-7" value="Input Conv blocks" style="rounded=0;whiteSpace=wrap;html=1;" vertex="1" parent="1">
          <mxGeometry x="70" y="150" width="130" height="50" as="geometry" />
        </mxCell>
        <mxCell id="IteQJDFuHtqB8pgohdOz-24" style="edgeStyle=orthogonalEdgeStyle;rounded=0;orthogonalLoop=1;jettySize=auto;html=1;exitX=0.5;exitY=1;exitDx=0;exitDy=0;entryX=0.5;entryY=0;entryDx=0;entryDy=0;" edge="1" parent="1" source="IteQJDFuHtqB8pgohdOz-8" target="IteQJDFuHtqB8pgohdOz-9">
          <mxGeometry relative="1" as="geometry" />
        </mxCell>
        <mxCell id="IteQJDFuHtqB8pgohdOz-8" value="Bi-Dense block" style="rounded=0;whiteSpace=wrap;html=1;" vertex="1" parent="1">
          <mxGeometry x="76.25" y="250" width="113.75" height="40" as="geometry" />
        </mxCell>
        <mxCell id="IteQJDFuHtqB8pgohdOz-9" value="Transition layer" style="rounded=0;whiteSpace=wrap;html=1;" vertex="1" parent="1">
          <mxGeometry x="76.25" y="300" width="113.75" height="40" as="geometry" />
        </mxCell>
        <mxCell id="IteQJDFuHtqB8pgohdOz-12" value="" style="rounded=1;whiteSpace=wrap;html=1;dashed=1;" vertex="1" parent="1">
          <mxGeometry x="48.13" y="380" width="170" height="130" as="geometry" />
        </mxCell>
        <mxCell id="IteQJDFuHtqB8pgohdOz-23" style="edgeStyle=orthogonalEdgeStyle;rounded=0;orthogonalLoop=1;jettySize=auto;html=1;exitX=0.5;exitY=1;exitDx=0;exitDy=0;entryX=0.5;entryY=0;entryDx=0;entryDy=0;" edge="1" parent="1" source="IteQJDFuHtqB8pgohdOz-13" target="IteQJDFuHtqB8pgohdOz-14">
          <mxGeometry relative="1" as="geometry" />
        </mxCell>
        <mxCell id="IteQJDFuHtqB8pgohdOz-13" value="Bi-Dense block" style="rounded=0;whiteSpace=wrap;html=1;" vertex="1" parent="1">
          <mxGeometry x="76.25" y="400" width="113.75" height="40" as="geometry" />
        </mxCell>
        <mxCell id="IteQJDFuHtqB8pgohdOz-32" style="edgeStyle=orthogonalEdgeStyle;rounded=0;orthogonalLoop=1;jettySize=auto;html=1;exitX=0.5;exitY=1;exitDx=0;exitDy=0;" edge="1" parent="1" source="IteQJDFuHtqB8pgohdOz-14">
          <mxGeometry relative="1" as="geometry">
            <mxPoint x="133" y="520" as="targetPoint" />
          </mxGeometry>
        </mxCell>
        <mxCell id="IteQJDFuHtqB8pgohdOz-14" value="Transition layer" style="rounded=0;whiteSpace=wrap;html=1;" vertex="1" parent="1">
          <mxGeometry x="76.25" y="450" width="113.75" height="40" as="geometry" />
        </mxCell>
        <mxCell id="IteQJDFuHtqB8pgohdOz-19" value="" style="shape=image;verticalLabelPosition=bottom;verticalAlign=top;imageAspect=0;aspect=fixed;image=data:image/png,iVBORw0KGgoAAAANSUhEUgAAAmgAAAFUCAIAAAAf3VdVAAAAAXNSR0IArs4c6QAAIABJREFUeJzsnXVAFFsXwO9sB7t0Lg3SJaCAoqIiJoootljP7vbpe3YX5sMCu8VuxQDFoES6u3PZZXN25vtj/HgIK/Ho9/b31zLcuXNndueee849AaEoCmTIkCFDhgwZzQPX2QOQIUOGDBkyuhMywSlDhgwZMmS0AJnglCFDhgwZMlqATHDKkCFDhgwZLUAmOGXIkCFDhowWIBOcMmTIkCFDRguQCU4ZMmTIkCGjBcgEpwwZMmTIkNECZIJThgwZMmTIaAEywSlDhgwZMmS0AEJnD0BGV4QvEL8MS0nMKMkprJo11rGXlU5pBfe3LXdgGAEArJrRb7Bzj8pq3twtQXyBGACwcJLLqAHmnBrhvK1B1VwBAGCml4PPUFu+UDx/693yqhoAwMThtr6jHcSwZMG2u0VlHADAmEGW83ycAADztwblFbMBAENdTZZNdQUArNj7MDW7DADQz8Fgw28DAQAbDj+NTS0CAPSy0t662AMAsO2vV19jcwEAVj009q0aAQDYH/jufXgGAMBYV/no72MAAMevfnz+IRkAoKXGPLttPADg7J0v94PjAQCqSvRz230IeNyVR1HXn34DACjKU89uG08lE4NexQbeDQcAMOjkM1vHMeUoT94n/nXjEwCARiWd3uKtJE8L/px6+GIoAIBIwJ/e6q2uzAiLztp15g0AAIeD/DeP1VZX+JZUsOnoc+yRHts4xkhHOSmzZPX+x9iRfatGWPXQyMqvWLzzPnZk25IhjpY6RWWcuVvuIAgKANjw28B+DgZlldy5W4JEYgkAYPl0V48+JmyOYO6WOzV8EQBgno/TmEGWXJ5w/ta7VRw+AMB3tP3E4XYCoXje1qDyKh4AwGeozUwvRxiWzP//wx81wGzhpD4AgIXb7+YUVgEA3F2MV/r2BwCs2v8oObMUANC3p/7GeYMAAJuOPv+WVAAAsLdg7Vg6FACw83Twp2/ZAABzQ7WDa0cBAA6ef//2azoAwEBb8cSmsQCAk9fDnoYkAQA0VOQCdkwAAATeDQ96FQsAUFWkn902nkjEX3sSffVxNABAgUE5u208jUq6Fxx37s5XAIAcnXxmi7c8g/osNOnEtTAAAIVMPLPVW1mB/j4iY3/AOwAAgYA7vcVbQ4X55XvOdv/X2GP03zxWV1Pxe0rh737PsCN+6z1N9FVTskpX7nuEHdmzYpiNqVZeMXv+1iDsyOaF7k42usXlnLlbgiQSBACwdtYAt95G5VU187beFQjFAIAlU/oM72fG5grmbQni8oQAgN/G9R7rbsXji+Ztu1vJ5gEApo7qOWVkT5EInr/9bkk5FwDg7W41Z1xvBEHmb7tbUFINABjRz3TxlL4AgCW77mfmVQAABvY2WjNrAABg7aEnCWnFAABnW90/F7gDADafeBkZnwcAsDXV3L1iOABg99k3H6OyAAAm+qp+6z0BAH6XQl9/SgUA6Goq+G/2BgCcuvX50dsEAIC6sty57T44HHTxfsStF98BAMoKtLPbxpNJhJvPYy49iAQAyDMoZ7aOk6ORH71NOHXrMwCATiWd2TZOgUF9FZZy5PIHAACZRDi91VtVUe5DVOaes28BAHgcdGrLOC01ZmR83uYTL7HHePIPL32WUkJ68dqDT7AjB9eOMjdUy8gtX7r7AXZk57KhPc1ZRWWcdYeeKDKpPfRUvAZbaavLd8jc1jZAsly1MjBQFE3KKCES8ca6KgKhOOBuuKWRup6WgoYKk0ohYr8TCII6e5gyZMj4NyCRIOVVvMpqXmpOuaMFS0OVmVtU9eZL+tC+JhoqjM4eXRPIBKcMgKJo8Je0q4+jyUT8XB8nBwvtzh6RDBky/nNUVfPvBce9DEvR01T8c6E7nUrq7BH9EpnglAFQFH3wJsHcUNVEX1WmU8qQIaMTEYklSRklVj3UcTicUASTSV1xP7FZgpMnEHFqhEAmYf8REA5i0skUMrFFZ204Hbd3vlW7DQoAAIrKqs/eCV8x3ZVBJ7frhWTIkCGjpSAI8vuR59oa8nO8e9EoXUv7bEKYIwgS9CouObNYSZ6Ck+ki/wgJgpZV8Zxs9If2NWm+PpdXym/XUb2PyDhx9eMML0capWUSXYYMGTI6ABwOt3nB4MB7EYt23N+zYpimKrOzR/Q3TQjOe8HxOEiybIqTzILXGhAEvfMq/l14+sDexp09FgAAEMOSj1GZfus9Wery9b5ZFEVv3LhRVFQEACCTyb169XJwcMDhcI8fP7a0tDQwMKht+enTp8+fPwMA8Hg8i8Vyd3eXl297v7ikpKTc3NwhQ4bUHklNTU1PTx82bFiT5379+hVBEGdn5zYflQwZMjoAOo28ZEqfmORCOVrXsoo1FscpFMHxaYXuTkYyqdlKcDjI290Ci5RoJv1tVdpjJBIJgqIokYDfOG+wtoZCw28WRVE/P7/ExEQej5efnz9p0qTLly9j4qqysrJuyxcvXty/f5/H41VWVl69etXFxSU/P7/NBxwZGXnr1q26R75//3716tXmnBscHPzy5cs2H5IMGTI6DAiC7My0GHQyDEtiUwo7ezg/aEzjFAjFDBoJh5NJzTaAgMdBLdklnudp0IxWLUMMS/YFvO3nYDjA0bDxltOnT+/Xrx8AwMzM7ObNmzNmzHBzc2OxWPWaubi4bNq0CTPpr1q1asuWLefOnUMQJDo6Oj4+3sbGxtbWFoKgz58/6+jovHv3TkVFZeDAgSQSqaam5uXLlwKBwNnZWV9fH4IgDocTHBwMw/DgwYMVFRXrXgVBkPfv35eUlAwaNEhZWfnv2xGLQ0JCCgoKnJ2djY2NIQiCYTgkJCQnJ8fZ2dnU1LS2ZU5OTnZ2tqurq2wJKENGN0Uggg9dDBk3xHrUAPNOf5EbzxwEdfr4ZLQh/jc+icRIHzu9JltmZmbGxcVFRkYGBQVhRtHdu3eHh4f/qj0Oh/P19X379q1IJDp8+PDvv/9eVVW1atWq8+fPAwCWL18+bdq0rKysHTt2bNmyBUXRyZMnf/nypaioaOjQoZmZmZWVlUOHDv3y5Ut8fPzQoUOLi4vrdv7o0aOgoKCYmJghQ4aUl5djByUSyZw5c86dO1daWurj4/PkyRMEQZYsWXL8+HE2m+3j4xMWFoa1TEtL8/LyEggEsh+zDBndFzka+fA6zxvPYkIjMzs9GKTFnr58Pr+6ulpdXf0fXxJBEAj6WySjKJqfn5+fn29ra5ufn19ZWWlnZ4fD4XC4dkkHiCBIO/Xctmw5n7htlnkbdpieW56WU75v1QgiAd9k48OHD8vLy/N4vKKiotmzZ9f+TIVCIYIg2PZnvVNUVVX5fD6Hw/Hz8wsJCVFTU/Pw8PD09Jw+fToMw2vWrBk5cuTQoUMXLVokkUiSk5OnT5/u4eExZMgQRUXF69evm5mZbdy4EQDA5XIvXbq0du3a2p579ux59OhRAEBJScmdO3dUVFQAAHFxcTExMVFRUXg8vnfv3mvWrLGysnr16tX379/pdLqTkxMMwwCAjIwMLy+vv/76C1OgZciQ0X1RkqftXTE8I7+iswfS8ly1oaGhs2bN+sfX43A4GzZsqLteyMnJ8fDwOHfu3Nu3bz09PS9fvpycnLx///5/fIlGSEpKwqbgrk96PrdtOzTSUT60bhS1eT60x48ff//+fXh4+M2bN2fPns3j8bDjc+bMsba2tra2jouLq3dKYWGhkpJSVVVVZWXl3Llzvby8Fi9ezGKxOBwOHo/X1dUFANBoNARBCATCmTNn/P39raysdu7cKRAIUlJSPnz44OXl5eXl9fnzZ5FIVLdnS0tLbKVlamqalZWFHczMzDQ1NcXj8QAAY2PjoqKi3NxcdXV1Go0GAHB2dnZ1dQUAPH36FEGQyspKmbopQ8a/AB1NhQGOhp3+Ov/z2FIYhlEUhWFYJBLJycnh8fi6RxgMBg6Hg2EYQRASiYQpKwQCoaSk5O3btwKBAJvgEASJi4uzsrI6evTo5cuXhw4dunfv3pcvX8bGxopEIuxEDBRFBQKBUCik0+lEIhFBEJFIhMfja2pqsCNYG6FQiLUhEH7cGp/PFwgEDAYDj8d/+/YtMTFRJBKhKIqdi41cKBTy+fy6/QgEAuy+xGIxhUIRCAR4PJ7H4zEYDBRFeTweDMMMBoNAIEgkEolEgiAIn89nMpkAgOrqahqN1lAn6yzEsKS8iqehwmiOrlkPbW1tsVgsFAqxP/39/TFNjsFg3L17t7aZRCIJCAgYPHiwurq6vLz87du3lZWVuVzuo0ePsGdS94fO4/EKCwtfv35dUVGxZs2as2fPslisESNG+Pn5YRui9R5dfn4+ttJKT0+3tbXFDmppaWVmZmL2g7y8PCaTqa2tXVZWJhKJyGRyaGhoWloaAGDBggWjR4+ePHmys7Nza8wkMmTI6DrkFbNDIjImj7DrLAn6zwXn1atXX7x4UV5eXlVVZWNjc+rUqXv37t28eROGYT6fb2JicujQoefPn4eEhBw8eBAAMH/+/Hnz5l27di0vL2/Tpk1+fn6YmnL48OGcnJy5c+empaXxeLwDBw6EhYWlpqaePn166dKltZd78uTJ4cOHFRQUKisrz5w5Q6fTp06dqqGhIRaLuVxuQEAAi8W6efOmv7+/vLw8gUA4efKkpqbmtWvXTpw4oaSkBEHQkSNHzpw5U1BQcPHixdjY2JKSksjIyLNnz/L5/D179jCZTIFA4OfnZ21t/fDhwz179qiqqiopKbHZ7Pv370+aNIlAIMTFxV29enXfvn1isbiyslJeXv7atWtfv349deoUm80uKytzdHTE4XAJCQl8Pv/hw4etmamdLZT+8bn1uP3ie2EpZ/XM/s0/xd/f/9GjRzAMBwcH+/r61nrrMBg/5ZB8+/btunXrxGJxVFSURCJ58OCBnJzclClT5syZM3369Fu3bikpKU2ePLle50Qi8cSJE4mJiba2tmlpaZ6ens7Ozh4eHocPH1ZRUdm9e/elS5fqtg8JCdm3bx+FQvn06dOOHTvevXsHALCzs1NVVV21apWzs7Ofn9+yZct0dXWdnJxWrFjh5uZ2+PDhXbt2FRUVEQgEBwcHHx+f1atXX758udMXqjJkyGg9SvLUJyFJ9hYsMwO1zhkB+muqqvl+F99V/8ydO3dcXV2rq6sPHjzYu3fv4uLigoICAwOD6Ohof39/S0vLoqKi8vLywYMHX79+PTAwcNq0adiJHh4ejx8/jo+PNzMzq6qqqu0wKCjIy8ururraz89vyZIl1dXVt2/fxo7UxcPD4/bt21VVVdevX3/y5ElCQgKTyfz48aNAINizZ8/8+fOTk5ONjIzS09PZbLafn9/MmTPT0tJ0dHSSkpLYbPbOnTsvXrx44cKFqVOnVldXT5gwYcaMGXl5eXl5eXp6el+/fmWz2Xfu3HF0dCwsLNTV1Q0PD8fOsre3r66utrW13blzZ35+/v3797du3cpms8vLyx0cHF6+fHnnzh0Wi5WTk5Ofn0+j0YKCgqqqqnx8fM6ePVvvFraeeN7I024nyiprxi67WMmuaWZ7BEEePnwYGBgYGBh46dKl8PBwsViMouibN29ycnLqtoyKisKaXbly5ePHj3w+HzsuFoufPn26d+/eoKAgoVCIoujDhw8rKipQFK2srHzw4AGKouXl5WfOnNm1a1dISIhEIkFRtLCw0N/f/+DBgwkJCQiC1F4lLS0tLCzs+vXrJ06cKCwsRFE0MzPz/fv3mN5/9erVPXv2hIWFYZ0IBIKbN2/u378/PDwcQZCYmJjo6GgURaurqy9fvszlctv00cqQIaPT+PQta9GOuzAs6ZSrtyoNoIODA5VKxRxDampqAACDBg3CbLD9+vWLiIiwtLRsTf9nzpyJjo4GACxdunTatGkrV640NjYeNmyYr69vVVWVnp6etbW1SCQaMGDAjRs3vn//zmazly9fju2klpaWpqam6urqampqQhC0bNkyAEBd66KrqyuTyYyLi1NWVjY1NYUgaMiQIYsXL46IiGAymVgwg4eHx4MHDzBLo6urK4PB6N+/f01NzYYNG3JycrKysjAbpq2trby8PARBqqqqVlZWOBxOXV0deyCdTvDn1DGDLBWYtGa2hyDI09Oz4fGBAwfWO9KzZ8+ePXs2bEkgEIYPHz58+PDaI7UdKigojB49GgCgpKQ0d+7cumdpaGgsWLCgYW9GRkZGRkYuLi61R/T19fX19QEAVCp1ypQpdRuTyeQJEybU/mljY4N9YDAY06ZNa+rWZciQ0W1wstEtKKkWwxI8vhOcPVslOLEdwbrUunVgW48QBGFOmJg20NL+ra2tMSOhkpLSwIEDQ0JCIiMjAwMDU1JS1qxZg2lCWPQelUolk8kmJiaYWVgsFsMwzOVyazfncnJyqqqq6naOiXwymSwQCLB+xGKxRCJRUFDAtjAJBAKXy8XGj8PhsI23gICAR48erVu3zsTEpNbdlEAgYDbAut7CrWT3leSN00yb0bAJvAZbyuyTMmTI+JcBQZD3EOvOunoby+qHDx8mJCQkJSU9evRo+PDhmpqa4eHhGRkZb968wXRHzCUnI6OxHDokEqm4uLiwsNDFxcXHx8fHx0dDQ2PKlCmvXr3q3bu3m5sbm83GZOHt27crKiqOHTs2duxYOzu74uLiuLg4Mpl8+vTpI0eOGBsb83i84ODg0tLSzZs3f/v2jUQiFRUV1Q0T1NfXJ5FIt2/fLisrO3jwoJOTk42Njb6+/l9//ZWQkHDw4MF6AUMpKSkODg729vbx8fHR0dH1/D/bkISs6jbph0Qk/AOfIBkyZMjo+hSVccqrOsG212LBqaqq6uTkBADQ09MzMzPDDrq4uGDOk9bW1n5+fps2bdq6dauFhUXv3r2nTJmyZMmSx48fr1q1SllZWVVV1cvLa/fu3RKJpLZDzOKnq6trbm6OWYC1tLTOnj1b97pHjhwJDg6eOXNmbGzszp07AQDKysoJCQnz5s3r2bPnkiVLlJWVr1y5cuPGjd9++w1F0R07dtDp9IsXL16/fn3+/Pk2NjaTJ092cXFhMBiXLl2ytbXV0NDAlOaLFy++f/9+zpw5FRUVJ0+eBACcPXu2srLyxIkT/fv3xxTTvn37Yn4xy5Yty87Onjt3blhY2ObNm2EYVlVVtbe3xwbp5uaGKaZmZmZYAEYngqLonrNvePz2Eu0yZMiQ0bmERGTcev6946/bWFkxNkdw/t6XOWPtm9nX1atXIyIiMHfZ9iYvL8/T0xPTYtsWFEV9fX3379+vrq5+4sSJzMzMtrqjw5fCtiwe2szGh26mrp7YozWXyyuq2nj0+aU9k1rTiQwZMmR0WUrKucv2PLi6b3IH73S2ZY1QOTk5JaU2C6JoHAKB0DB1apsAQdDgwYMnTpyIIAiLxeqYdUBDWik1AQCRCfm9rLTbaDgyZMiQ0eVQU5ajUYj5JWxdTcVmNG8z2lLjlNE4LdI4W8+T94n6LEVLY432uwSKojy+qJLD7+zMkS0GAoBOIyswKP8Oz6miMs6NZzEllTy07dzTOgYURSGAylGIo93MLY3Vu9fgmwn2mlRxBQjSzd4TCAKKDCqNSurK30tVNZ8pR+7gRKqNapwQkEiQjhuLjDocuJGydpJJa3oYOaAtU902hFMjDLwXXlUjYjJohM7wCG8NKAq4PIFYKPL1tDfQ7iAzSTuRnFly/mH0uOEOyor0rjzBNQKPL3oUHJNbVDW8n1lnj6WN4dQIzt+PrOAIFeTp+O5WaQqWINUcngKdNHtsLwa9q6RCq4cCk9rxF21McNIoRC5fLBJLSESZW2ZrqeGLsMSqzSQmjd2ay2GGhPabRtkcwe5z70Z72Gmq1S+F3Y3g8UXn7n+d5GFpbaLZ2WP5h4jEcMD9qNkT+5JJzcpC3N4gCBJ047KXzxQsVi0vN/v18ycARQcPHamjp/+rs2hU0oSRjlfufTEzVDNgde91TF2quYJdZ995DrHTalAxvruAomhhCXvnmTcbfxsoz6B09nCkIBTBn7/n9Hcw6Mgn3JiiQCTgPfqaXngQLRTDHTagfyU8vuhcUOR4D5sOu2JhKWfn6Tft13/AvfDRHnZa6lJKYXcKebnZlwNPY59hWBx088qm1UuOHdhdXlbayFk0Ksl3nPPVpzECobijRtrGhEZl9bI16CJSUywW/3Vk//ZNa2BYDADIzc6cOWE0gUAgEIkzJ47Ozkxv5FwIgjzdbR6+TejA8bY7gffCPYfYsaRVjO8U3rx69iUsFPtcVVnhf/TAxlWLr18KEIt/6XsPQZCWusJoj54B935ZVbBzEYjgM7e/wB1rHG3COcjZRpdOIfnfikQRBHSJr146YhgQ29LPqY0h4PGTRtob6Sg3o+0PLPQYzWj1S0oquDxBewWisLkCDh/WUldop/5bSnzstzWLfzMyMZs+ez4A4MwJv9hvUQuXr/366cO86T7X778g/TrhPolIsDbXiYzP72v/S32oKxObUugx0LbxNiiKJifERYZ/1tbV69tvIIFI5HI4oe9e82q4zq4DtFg6Aj4/7ns0XU7uW2S4pbWtTU/HpIQ4Go2uZ2AIAEhPTYYgiKWj++FdcGlJiaWNrZVNT6mSYMGMiUx5eQrlh+ns+7eocZOmT5s1DwCQkpQQ+i5Yz8CokXEyGdRKjrB1z6MLUc0VsHlilkaXeE0kEsnTh3f/WLPkjx37nfr0g2F42Vxfp779JvnODvA/lpOVuX7zzkZO11JX4PBhNlcgL9fllE4KiYAgKCxBOjJgvQlpA0GQjammjWlXN2R9Sahwarus6F2BjdNbtdlTwxcxaO21J1FQUq2pJt9kMy6HE3TjckF+bp9+bv0HeQAAIr6EvXv9QlFJ2XviVCVlle/fIoUCQWxMVEVZ2UivcSZmlrevXRzl5SPHYGAWv6EjxxTk5z25f4dEIg0eNsrCSorKnpwYt27pfFc398KCvB+OGLya9Zt36hsam1laXQ48VVVVqabemIdUD321+ISsbio4eQIxhdyEuvns0b2//PZPmTHnxuXALx9Dl63ZOHPiaDuH3hqaWrMmjjl65qKcHHPx7Cl9+g20sLZZOnf6vqOny8tKXzy+f/zcFQRBdmxaO3/Z6qsXzgoFApueDhuWL9i4fV/f/vVTMAIA1m/eqa2r7+7842saOWYc9gGGxTFR4UOGj2p8nBAASLdzM/s1RWUcDdWmpWZ2Vsb9W9dgCTxm3CRjEzNYLH7y8G5i3HdTc4tRY32IRNKzh3d19A1ePnlIo8tNmDoDAPDm5TPviVNxOFw1m/3iyQPviVPevX759dMHDU0tT+8JKqpS8p5fu3ju7atnTn1+VHoQCgW6BoZzF60gkcnzl6zasGIhlj2tkXFqqskXlFR3QcFJwOMQBEU6VuPsZj4dMpqJUASTSO21/oIlCLEpBV8sFi+aNam4uLDfwCFHD+x+8/LZ21fPt29cY9/LGQAwzXs4l8v5GvZh1cLZNJqciqrarEleQqEgKvzL88f3MSvfhbN/wTC8fJ6vrX0vIxOz5fN8a7hSapTq6BrcffHeue+PGQGCoDUbt+kbGgMAor5+plCoTPkmZDyRSBDBklY8j06m8fkOQZDAU8c27z44ZebcA8fO9jAzf/HkgYYWa9P2vb8tWv7bohVnTvwIuNp56Pi8Jau8J06L+BI20H1YfGxMRXlZUWF+SXGhvaNTVkaappb2gEEepy/dMjWzkHotEzOLhoMRCgR/rFlmbGLu4urWmhvpdsAShEBoYoItyM+dNXGMlo6umYX1fN8JJcVFe7ZufPvymeuAQZ8/hm5avRRF0RuXA3f9ud7C2jYnO2PDioVUKu308UOFBfkAgKcPg2Jjoj5/DD3nf3TQkGFcLmfL+hVSLzR63MSzV4I0tX6E8NHpcjsPHCORySiKPnt0z7qnfZMPn0gkdLA5tJngcND5nT40KqkZbduMLmzf/G9z/G76Uu/G7FqNg6IA6lTbenZmemFhQeCNBwQCQVtXD6Bg+6bVqzZuGeg+DEXRyPBP74NfAgBc3QZPmj4LRdGbV84X5uePmzj15JH94yZNe/IgaITnWDweX8PlFubnDRjsceXuMzJFymqXRqdLHUBMdMSmNUt3HTpRazn8bwKLxaUlxdhKQo7BGOsz5aTffuMepthEadTD9Pa1iwAApryCnBwDAECl0vh8Hl1Orv/AIcEvnlZWlg8b5UWmUP7Ysd9v73bv4QO0dfS27TuiotasknlcLmf14jkKCop7Dp+sLZH7X6KJd/DVs0d9+w8cP2k6BEFaLB1YLH726N6LD1EMJtO+l7O7i01lRTkAwPe3hcNGednYOUwfP5JEJg8d5fXkwZ15i1c+untrzaZt7KrKqsqKysqKSdNn/yq8UF5eiu6Louj1iwFvXz+/cPNhG91vJwBBUAdLTZnG2XX5klDRmtNZ6kxbs840sLOrKpWVVTBHYj19Qz0Dw7KSEg1N1g93Ay2dkqJCAABmVoIgiEgkoQji6Ny3vLQ0Jyvz+aP7o8ZOYMornAi4+i3q67RxI9YsnsOpbpanMYqiwS+erl40Z+8R/1pN9D8LgUhUVdPIy8kGAPBqarZsWKmqppaZnobNsJnpqeoamlK1vfGTpz++f/vZw3tjxk9GECQmKmKP31+vw2Lc3IeeOLy3OZeu4XLm+06wtLbbdehkI9vM/2Uqyss0tFjYw7ezd0QQhEQmyzEYAAAqjSbHkC8vLQEAKKuoYom+sZZjfSY/e3A3PTW5hsu16enYb+CQhcvW3LpyYbR7n9PHDzUSml8XGIaP7NvxIOhG4PV7Uq273YgPUZnijjUayQTnvxMzAzV359bmHmoNWto6RYX5WEmcJw/uBJ46rmdgmBgXg/kpJMTF6OobNjwLj8ePGON97OAuZRVVXX2Dwvy86IgvB0+cexUWTSSRPoa8bc6l371+cWDX5tOXbvVy7tsOd9bNwOFwsxcs3fnn2rs3r25ctZhKo43yGp+ZkXqYVFzJAAAgAElEQVR4z7arF86eOnZw5rzFUk80s7SuZrMZDIaegSEEQZ8/hmxev/L1iycRXz7Z2DkAAFYsmJmS2JgT7KWAU0nxsRXlZTv/XLf191Whb1+32112VwyMTFISEzBRt/PP9TnZmRIJXJCXCwAoLSlmV1VoaEnJj2ZobEJnME4c3jvK2wePx4eFvmXKKwTeuP/wddjje7crysuavC6CIIf3bEtOjA+4fk9Nvau7sDTJsSsfhaIODf34DxpPugfGLLnWnI5VW+3gbBp10dBkDff0XjRrkrWdQ/Dzx4f9z/fpP3DlgpmpKUm5WZl0Obl+A90z01MbnujpPWF4P8c9R/whCFJQVHp491ZGWoq8olJBfl5Ph95J8bF/rl9+7d6LhiXtMERC4e4tGyAI2rV5PXZkr5+/mka3nxpaw3DPsbp6BhFfP40eN3HAoCF4AuFK0LM3L5+yqyrPXgnSNzTi82p+37oHazzYYzgskWBZLXfsP0oikTB9dNs+v7evnudmZ82YuwjzDFJWURUI+PWuRSIRt+49TCKSAACOTn21tP8udaCuqdWx990N8BjuefvaxT/WLCUSiSnJias3bV28cv3iOVPc3IeGvg2eNX8Jgyllhx6CIC+fyVvWrdiwZRcAQElJZcWCGVHhn0tKiswtbRQVlS6e8y/Iy/196+5fXTcjLeXcX0fsezkvmzsde1t3HDjWokDz/ziNpdzrRvz7vGpbyZfvOcmZJb5jHNuj89jUoojkEjfnJhIboSiaEBdTXFho09MBswVVlJfFfouiy8nZ2vciEoklxUUSGNZkaQMAkhPj9fQNKVQqgiDJCXGGPUyxOjO8Gm5UxFehUNDTobeSskpNDXfT6iWHTgbUe8nZVVWVFWX6hsYSGI6PjUGQv+025pY2UjdHa6mq5n+NTJ7v49zqB9MJ7D77ZvLYPp1y6b/89s+ct4hGb9UKrx7nb33Yvsi9DTvsRBLSiz/FFw3q00RVXaFA8C0qHBaLHZxcKBQqiqLZmelpKcl6BobGJmYQBKWnJqtraMkxGGKRKC012czCCoIggYCflZ5mamGFGW+LCgviv3+j0en2vZzIZEp2Zvqlc6f+3HWg3rXycrKpNJqyimo1uyojLaX2OJlCMbOwbtw/6N3nFEdTNese7ZjC8x8zYdWVwJ0+cu0WR9CQbq9xwjAiQVBYgorECJHQzRJ1th9cnqi0kte5Y4AgyNLaztLarvaIkrLKgMEetX/WjRIxNbfEPuBwOPM6YSc0upzrgEG1f/J5vEFDhjdcGssrKMgrKAAA8ASCTU+H9rkhGT+xcMVa2evWesgUilOffrV/QhCkb2iMOXNhGPX4IXqJJJK55Y/SzRQK1czy7zLOGppaGnUU+rzcHJ+pMxpeS1tXD/vAlFewc+jdDnfTOZze6k2jdGgOkG4vOKNSqw7eSBNLEEt95tZZZgT8v+RNPv0wY/5oKbuAnQgsQTo9J62KqtrocRM7dwydDgwjAIAmQx3aG5nU7LJIjbL9F6PIpHXwFbu94LQzVpCXI2QV8T16qXb6tN6GhH4vb43g1FRliOFmBQw0n9vv8l9HlGooU/CoyJDVJXK8tRX5ZaLwpEpLfQaN0g3eCA4fXno0xpglZ6HPLKnqrskCpSIUg7hMtpYyRV6O1O1SomMk53B4Qokxiy7pbrVQui9fY3N7mmt1ocxBXR8SETd5sPaddwV9rFqQ0O5fj4WRuoVRGwtOYxY98GlOQblgiB0dRbpxxoCGsFRItkbMiOQqHTWqjlpHr15bCk8ASxD0Q2x5OVtIBFJm50vn/EeOGaf8/xiDlKSE+3eua2ho+f62ENt7fnDnhks/N/WffaYyM9JqHV9NTM1JZPLrF0+Me5h5T5z6q5FwONVnThxGEXTpmo1kMhlF0TvXL7sPG6moVP9lRBDk6vkzPlNmUKjU65cCcnOyRo4ZV9eMj0EiAH11Wl4ZPzm3hkLEWRowScRuthourxZtOZ9EwAN1efwAu1YlzuxqxGdxuCIimYgz0KQrMjo6dLIRDp5/H7jTpwsJThRFY5ILH72KggRs0FXdiBAUKCOEvYfiOnsgvwDC4eiKPiMdjXVVmm/dauX03bbVUVAUjc1gU4j4HizaSBcNXWUQkfJT8vTYmKivYR/mLFxWe2TP1t8L8/PmLl5pbWcPAMjOzHj6MGjh8rX1uj197FBpaTH256IV644d3F1eWrL2jx1YllSp3L52MeTt60FDho+dMAUAkJaS9O71i98WLf9V+5oa7tH9O9f/uVMikez4Y21lRfnv2/aw6nh7YpCIeBdLpZh0Ng4CLNUuKjthCRKRVKXIIDqZK1VxxWsn9zh6WUq8753rl/v0c6sVnBlpKd+jIjz+2A4AkMDw7euXtqxf+eD1h3qC89nDexFfPtra9wIA1PBq9AyMFBQUnz2624jgrOFy71y/fPDEOTweD8Pw5YBTe7ZudOrbr57gFIvF/kf2Hz+0Z8z4SRQq1cqm5+vnj3uYmDcUnBAE5GhEM10iiqJcPvw1sUJPg6atSu0WZmEURQvK+NU1MJEAKcgRvVyVytn1c129C35RVVHh5TMZ+1MoFGzfuIbLqV77xw5sAzImOiIx9vsk39l1zxIKBCf99tXUcLEMFbMXLN355zqRULj3iL8cg/mr8Zw6dig+9pvPZN/+g4YAAL5++pCfm4O9NfWG/e71C7FY5DFi9Jew0Kvnzxj1MF22dlPDZ26pz7AyVhKIJBkFNXEZbBtjeXl6FxKfHUkTgvNTTHb42/fLXeTIhK6ffqXrfoU1wppTN56O9RlmbthcLXDPPMvWXDEiPi81u2zKyJ6t6aSWhCwOk07U16BvnWWhqkCKSyuu16CkqCg68kvdIx9D3q79Yzvm1xAV/mX98vl1/R0wxCLR5cBTK9ZvxmJLqFTab4uWL/1tGruqsrHBxMaYWVhhTkZfwkLXL19gZ9/rV42zMzM2rV6cl5uz9o8dBCJx3pKVC2ZM5FRXS20MQZCtkfyn+AolJolK7nLGGIFI8jm+wsFUgUEjKjJISkxi43sTCIKEvHmlpa0DAFBV18Ce0q4tGwrz86SuSxJiv82av8R1wODaGdPS2i7888e6bfg83sunD0uKiyxt7LDkEmQyBdtR+33lwpqaGi1t7YY9L5/vy2Awa6WptZ29RlOhKRAEMWhEVxuVhKzq+MxqSwNmF5edKIpGp1bRyIQhvdSSczmTB2uXVbA/NRCc2RnphQV5APwQnBJY8v7Nq7NX7qiqa6AI8v7Nq99XLhw+2rveWcVFhU8f3l28aj0EIBKJRKfLLVqxbtbEMSJRY4UcIr9+GjbKy86hF4IgwS+e/L5yUT15jAVVP75/Z/O6ZUtXbwQAWFrbDh/tfTng1K/6hCCISiZYGshLEDQqpZJBI5rqyHXxr6Y9aOzFE8OS18ERc1zkyIT/3HNpW+hk3AJXetCTrx12xWqusLCU0yZd5ZXwAAD6GnQAgJoiufGXJC0lKeDUMZFQCAGIpa1Lo9NTkxO3bVw1ymt8w8aZGWnauvreE6d6ek8YM34SjU7X0dWvlyEPRdGQt682r1t+cNeW1ORE7KCyipqSskpcTPSerRul9owhEPAXz5niPuxHbnEcDqejZ0AmNxaaAkGQvYnCt9YVQ20PxDDyKb7C2VKRQSNiX0TjUhMF4MKZk5cC/DV/jqCfs2DZ8XNXGqopMAynJCVcCTwzrJ/DqoWzy0pLpPSJovt2/BEbE8XS0T24a/O718/r/nfxyg2HTgbQpUWn/L5lz/b9xxoPCvoVFvpMBp34PZ3dlQPnEAT5HF/BUqGa6THwOGjJWEM1xSZuNir88/VLASiKQhDQ0zckk8lhoe/8jx4Y8f/M+HVJS0m07ek42nuCp/eE4aO9yRSKrr4h4edQZgRBHt+/88faZccO7sZSKGCxs0x5heAXTy6cOSm15/u3rz8MuuExYgz2pxyDqaklZenTEDwOcjRVpJLxkcmVnf7VHNs4mkbpUMWpsXePLxAzAYcok5ptAZ2MQ7nlzW9/4Vl2ew6nuQhFkuxinoV+s7ZqkhPjl8/zdejlUje/mq6+QdCz9/a9pURJJsTGFBUWjBvuNqSP3YnDe6W+fumpyQd2bPaeONXM0nrDioV1l9jGJmZBz95hpmCpkEjk20/eeHpPaM7ga6GQ8Ew6sYzdhepboSgaFlfuZK5IITVLD0YBevGc/4snD04EXK0XQc/S0ZUa5y4WiXo6Os1bsvL+qw+q6uqb16+Q+nUUFxUSCEQzCyv/Czd6Ov70nWrr6v0q4YaOnn5rlBI9dZoclZCWJyXFfxchMoVtzKKrK/0QlvimvBS/hIVuXrfCqU//uo/Fvrfz9QcvjU3MG7aPj42Jj/02ZoirR9+et65ekPrVfPrw/vrFgInTZjLlFbZtXF33X64DBl8OeqonLVfX8NFjz129KzU/UZNAEKSnTtNWo0UmV3Wu7NRQYeI61pWs0UUrCvC4rrvK63ZAaAtqC7yOlLLkbz5qynQTfZXW9IDxPYNta9ys4vV52dlzpozdsHWPrf1PWRfIZMqvsntrsbSXrFp/89Gr6w9ePrp76+unDw3b4HC4yory79+ibOzsA67dJdbpikKlNp7rBIfDUan/ZLfSTJeR2mWmaRRFYzOqzfVa4PGLSJCs9NTiosJqdnNVZwqVuveIv30vZyqVNmv+0piocKFAUK8NBEGbdx7gcqpnThwza5JXVkZaC2/ln2OoRWfXiCs47VVitjWk5HJUFUiqTamYtXyLilgyZ+rRMxcNjX9Kikml0n618jAxs1i+7o97L0ICrt07un+X1JRbeByusCAvMS526Mgx+4+d/qln2i97ptHorTS0aihR1BTJSTmcTpSdMUkFHVy5pZt5rMloJtY9ND3dpNd+aj4cnhiPw8lRmxV5kpeb7eLq9uDOjeb337OX89gJU8hkirqGplPf/gmxMQ3bGBqbHD1zMf579PRxI1cvnsNvkOOtPcDjIBIBxxd2aPbLX8GuEUsQtEnTX13wePyWPYenzvxt6+8rJXCz7qKkuHDOFG+RUAgAyM/NVlVTJ5Lqf+8oir59/XztH9vfhcdP8Z1z6lj9xDTtBwRBDqaK39OqJF2sslV1jZhdI9ZTb8H6rLS4qKej06O7t5opaVAUdXMf6jFiNJFI0jc0MrOwSk9NbtjMqW//zbsOfgx5M274gB2b1nakGNNVpwlFSHl1py1rdp15IxB2aFxWGwvOXWdvJWfl/+PTOTX8nMKf3DVRFI1KTF+8+9SoJduX7j2d0orOa9l97nZu0U9X2X/hbmZ+fYeXhohhyabjlzk1HTF315p9OpHv6Wxbo1/67NXDuW//rXsOJ8V/r7f11QhH9u24EngG22BLTUowNpFSuzsmOiI5MX7f0dPPQyOLCgpqtznbG2NtempeTcdcq3HiMqqtDZv7LdQCATB9zoKSoqJH92433nLOFO/kxHhlFVUymbxhxcKL5/w3rV6yZNUGPP5vBffG5cATh/YCAFKTE9ctn3/zyvkXTx/2rpPvpiEwDM+Y4Jmdmd7Skf/yjiDIylA+Mbttdu7biu/pbDtjhRYpbUOGj9rj99e929fjvkc385QNKxa+fv4YACAUCnOyM6UWSHj/5iWfzzt6+uLTd18/vH9TVtr0hNaG2BrLx2dWS5CutaxpP9pYcD77EFlc3phLZOP8efLKh+if6i08/RA5fdNht17WB1bNsjM1HLlke2p2QWsH+TGysvonQ9zLsOjyKumelnVBEOTB2y+CRj3Z2oqDC61ac3pUQt6t51IUuOZTw4epZHyTuzV/AwG6nNz2/Ue3/b5aqmtJLY/v3Z7vOwEAMH6y77WL57ZsWDlv2ngNLVbfOqn1uFzOAEfzwoJ8lrbu1QtnN61esn3TGjkGw7iHFOFay62rF1YunNXcATcKk0bk8jtf4ywsFzTpB9SQP3cd0GTpUCjU4+cus3TqB94AADZu26Ot8yP7mqFxDwkMEwjEEwFXxoyfRCaRTwZeGzx0ZN32dva9KirKIAj6Y8d+3zkLAQAr1v05e/7Set3icLgtew6rqqpjn3X1DZH/z6QEAmHfkVNUmvTiqc1EmUni8GChuKvEEOeX8jWUKMSWp3BSVlFd+8f2TauXCBrYw+ty+vihbRtXQxA02XfOwV1bdv25fobPqCHDR5nUKSSel5Pl1suCz+Pp6Br47d2+bePqLetX2PR0UFFprFLYkf07Duzc3NJhNwIEQZYGzISsrrWsaT/axecelkiuPwsxYKk/fPdVT0t1ztghZCLxypN3Biz1p6ER+lrqs7wGEwmECw+Cxwx0UmTKFZZVvguP7W3VIzIhrbSy2sHC2FSfBQAQicWbjl8+vmH+oN42AABzQx2+UJSaU9BDTysjr+jq0/cwLBnn3sfGRL+koupDdIIYlkTEp7n2tBgz0OlpaISOhop1D30AwMtP0RrKCjYmBrUjTMzMu/Xyo66mqq/nIEodk9SX2JSH774w6bRpo9xYasoAgKjE9DuvPlIp5JmjB6kp/SgGKxbDFx4G93ewNGCpn78fnJZbaGGkM2lYfyq5zTy7WrnxUFktyC1qlWtoaj7XRLu5+budXftb2tgBAOx7OV+8/bjhzqJDb5dar4c+/Qd++vAem7LvPH2bnBhPo9NNza3qbsPQaLQBgzzIJLKSisrNh6+TE+MgCGduZUOl1g+L6jtgUG3WzUFDhsfF1F/FKygoXrr9qNEqymjDLAIQBOFxnZ9lMKOA62zZWPUCPA5qOMjaemosbV2Wtu7zx/cL8nI/hrzF4kYgCHJ0+jsvvJq6hqGxCQAAjye4uQ+tPZ6dmf71/7EoJSVFo70nYkbgvv0H1s3oJuDznj++7z5sJIFAhCCot4tr7b90dPVrxTYOh+vz/7M+fwzJyc5ydKpf9A1F0cZ/9tjsnJjNsTOWUpa548ksrOlr3Xjelfo/LC+fyTAMYyVrLK1tG7q0jBzjLRL98AMfMWYcFhnS28X1xsNXqcmJPlNn9DAxq/uU1DW17Hs5E4lEox4mNx+9Tk1OpFJpZhZWUINNzXGTpiGSH2uOEaPHPX0QVPuvWfMWt76Skoo8OTmH2ymvzIE1I6nkDs1l1i53CEske87dPnX72cBe1i/DovcGBKEouv/83SNXHo4Z6Bwen7rh6EUAwIkbj8vZHABAfnFZwL2XTDmasgJTT1NVgfFjWZpXXF5cVjnA8W/da/HEESP6OeYUlnqt2GXIUrc3N5q+6XB4fGphWeX87X+lZBf07Wm+4ejFkMg4Do9/8OJ9FEWFIvHGY5cZ9L+ncgRBzwa9GNTbJjY1e+mevyOWQqPiF+z8q6+dubICY/iirWWV1eHxqTP+OOJiY6ajrjJu1V6eQIgZbJftO5OUmWesq7X/wr3EzNxx7n1CIuJP326uibI5XHud04a9tRQURXkCWI4m/bdIJRPq7SjQ6XK1kXl6BoZ0OTkURW9euVDrP0Kj0WvjIooKC8ZPno59Zsor9HLua2ltRyAQYBi+ev5MYX4eFt9m09NBQUkJACDHYDj0drHv5VQrNUPevAwLfYd9lpNj1Aby5+XmTJxeP1INTyDo6htCECQWiy8HnCouLqzXgMcXSa2rYMySyyjoTGsthyemUwj4Rmc0fZZSbkETNc9NzCzc3IdhD7Yhvy1aQWmwHAEAVFezKRSq98RpAIB+bu52DlKCZRkMxuwFS7Mz05EG6eUgCJq7eAWJJOXBFhUW9Ok3EFtp1UUMS8hNaW9MOrGGL0G6gEmwpFKgqtBYdBaZRGhYJFJeQbG2KrWBUQ8SiYwgSODp47VGGqa8Qm1Z6dyszMm+c7DPyiqqzn37m5hZQDicQCAIPH28ml2F5UYYMHgoFpqiqKTc28XV2s6eSPqxgn9y/07tUlJBUUlJRRX7XFiQV/sOYtUXFBSVMMf4e7evSb0dgVDUZHCztSEzLrNp012bo6el2ALbWFvQXlHeYliyfdFUQ20NCIIC7r3EDm5fNMXCSNdET8th0sptC+unI1FVlNdWU7Yy1lNX/rGcFIlhEolYd+LAfqZ3g8NG9HOcMmIABEFF5ZUXHgTPGz9UQ0Vxw+xxRALhY3RifHrujNGDtp26UcHmpOYUqCvJ62mq1ekEbF0wxdXewtHC2G7Cci7vx57l2aCXv88eP6KfI4qiEQlpD959iU/PmTvOw9OtN4KiPfS08HgciqJrDgXicLjjG+bjcTgYluQUlnL5ggOrZxHatJrd08/FU9ylGNmaiYoizUBb8R+fzhdKGnlJWGry+YVNTNYbtuyqrq6S6tRqUaf4SV0gCNLS1lm/ZaeuviGRRBo/2Vdqs/FTZmRnpikqStHDpE7uP/evu2n7XiwnQC1xKQUuFlIKdiowiOkFnVlhJqOgxpjVhG1zsJPx0euf9bWVG5nBDY1NFi5f86v//upEa1t7a1v7xtvQ5RjzlqxqUbcAAK/xk6QeD4vM6NtT71dn1aKrTs0t4etptMrq23qyinh2xlKKZdbCUmPmFzWxb0Uik3fsPyoQCEgkKcaqPr/I1Y7H4fQNjHYcOConxyCRyWN+UfZg/tJVJcWFUlMLDRjkIe0MQKfLOfVxHe45tuG/8gsrWWq2jd8Otqxp0nLQ5iRllhjrKrftDNw47SU4SUQCU44GACAS8NhqlEYhqSgyAQAKDDqCILw6xn0Ele4CpqLAhGFJBZurJP/DZhiRkMbh8grLKnU0VLHvRltN+WVYNABAkUnHYhVIRAKCojQK2d3J9nlY9JfvydNGudU1iRDxeA0VRQAAg04lk4hs7o/JsbCsUltdGXvnWWrKhaUV5VUcFxszAAAOglxszMQwLIYldColLCaptJKtqar0+5zx/ree7g24k5lftHn+JF/PQV0kiYatqZat6T+vG5yYzbEy+KVDCpVCNNNT/paQa2uu/av7dXUb3NKL4vH4gUOGN9nM0trW0rqJF1gqBAJh8NAR9Q5Wsnn5+WWWo+trP9iX3rmaDU8g+ZXSX4uyAs3eRP1FSIJHP/NOrFveSlAUjU8tKC2pmDnSusnGmsqUyOSqzhWcKIrCEpREbGymppCJlgYq0fE5dhY6v3pNCATCII/6v8kmIZJIw0Z5NdmsrkG+mWjr6tWWHqsFRdGYxDwzPWVqM0p3aSiTiyuFGh3r27jlxMuAHT5ytO4vOAEE6v1SavjCjLxiNSWFpMw8BaacIlMOh8NVc3kAgLScQkxuQtBPhbWVFRiDetscvfpgy4LJOBxOKBJvOHJx/JA+JnqssG+J2LomMjHdSEeKugAAmDrSbU/A7ezC0m2LfkrPKIYlKTn5xrqa2YWlAIBaBddUnxWZmN7HzhxBkOikjAkefSEIikvL9vHoC0skvpv8ti+aQiISdi+bfiboxbojFy7tXHn+wesR/RxXTBsTEhW/6kDA9FED20pwqih0XFHWhohghExq7Fc4cZit35UP1VxBX0ejxm2JXZm0rJLXoQmrfPtKtfNAEATq/4o7DgRBoGY8VwiCxgyyeBmWeu5GaA8DDTVlRhdZujUTFKAcriAxrVBPnbl8mmtzBk/A41AUlUiQDrbO1aWKK1ZiNC1FfIbaHL3ykVMj7L6viQRBPkaklxRXrJjm2ozmQFuFGptZ3cGCs+MjSDs0IeeGIxf7O1q++Bi9ZcFkIoEwxs1p0S5/J2vTxIxcbD9ZX0vt6NVHOhoq/R2ssEnhwKpZE9ft/7Roq4ke62tsinUPvVlj3EUwfOvFh3nbT2DK3+2D66s4Uvai7M0Ni8oqXWxMFZk/ObngcNChi/c/RieGRMVv/M2nVsFf7evls2ZvdkFJcUWVUCga4+ZUXcP3XrWby+OXszlkElFL9Yd5cOXUMe7z/wx6HSZHpcz448jIfo5fYlO8Bjq14Zx1YEGrctV+SyrIzKsY6/5PXHNhCdJkRSciEb/at9/br+lX7oSJu2H5JAiCIBQ10VPePH8gXdoGJwwjJ+5lxGdWBz7Lnj1c19myo2vvFFU0d9mOw+GGuZq69TJMziotLuegSHcSnACgBmr0kS59GfQmsjnWRY5K4AklDFqniaLUPK59j6YdlIgE/Mrpru/CM67cCYNR0Omp6f4BRBzk2lNv2tB+zVymkEl4MYx0vLW2g4Ea+S7ZHMGlc9fm9WuBA1tyVr6WmhKdQknKyjPR1SIQ8JwafmklW19LrefEFZd3ryqpYBuy1A1Y6hAESRAkJjmTzeXZmxuWVlQb62qKxOKI+DRDbQ3MlIohFsPfU7OKK6r0NNUsDH8YPQQi0bekTJ5A2MuyB4NO5QmEecVlJnosAEBBSTmRSFBVlAcA5BSW0qlkZYWfrI4p2QXK8nKxqdna6ipGOhoQBKXmFGipKtGplCpOzbfkDDKR6GBhRCISsdDS6KR0MonoYGGMg3C191VUVskTCA1Y6qk5Bem5RSw1ZStj3cZtZQdeVv2xsb7rSjsR/DntW1LB6pn9/8G5pVVCDg821OrkPaRO5+nnQr/bGfJ0wtU/HBvXv9uD6NQqS31G48bA/yZcnji9gFfKFqgpUKwMOjrXGsbnhApni8a8nf+zlLGFn+MrWKpURQZJX6ODqgylZpcZsBQJXaesWEvBwkgAABaGP/wvGHQqg07F9ooUGXSbHvq1jfE4nL25EfZZXo4OACARiX3s6qdqJBIJDhb1C2tQSCRnG9PaP2kUMiY1AQBaan8rB7qaqg0HaaKnBQBw6/X3bkoP3R/bgQoMupvjT7ssDDoVU3/r3VetaDfRY9Veug258z5//IC277Y5VHJEnWso7iJ4OKo/+VzsYKLY8VIT0/s7RSR0fWLSq3deThbDyEgXjX+QGqJt6Ia6Y8cQ+DT7dUQJCsCeuZYdJjh76LVBetEW0UG2DgiCdiyepiT/ryrr2q7cD21VngcFJkVH8x/GunF4MIPa5YpqdTwEAm6xl+EIpzauB95MEATI5KZUnCwUe/aQx+OgYb3VO2zaokgAACAASURBVMse+O+2Q7YG36G6cjQCS4VqY9SYy3HbkpFb3sG5GBufH1EUbZvfBwRBo916t0lX3ZeOXKM6WGg7WDSrPFBDxDDyD5Kh/JtAECQtpzzsW3ZRWTUBjzPUUR7gaKgkT2vpdAnDkoT0ki+xOeWVNSQSwUhHub+jgSKzsWU4iqJZ+RWhX9Pik4o+KlF09dXdnIyVFVqbifvfBA6CfD202VyRnjqlNXtpEgkiFMESBCES8GQSoZn9IAgiEEn4QjFfIKaQm3vWfwd1RfJ0D12eQEIitmoOkUgQgVCMoCiJSCAR8Y0/5w1HngXu8JEajd1ONCY4KWRiNUJBUBQn+3G0GliCIuQWmJUUGR1aXg5F0eSs0jchCZys3GqO8LMRq5eTmZOtbkeGRnURuDzhqZufqETUxYbl7qhZxa4urhSdvBpqacIaO9iy+SEfpRXcv26EaatSnS21lOS1Qz+EERDK0UvvHKz0R/Y3k9qPSAyfvviWEvzCAymcDAklAEpHaeev6xtN8fYaYt19o03aClgieRWWFh6bRcABXQbx8PlgPIE4coCFdQ+NFgkwgVD86F1CYloRAQ9wOCCGURKJNHqgpZmhWiP9IAjyPiLz07MwakYKnseLYMjDpubDx/S1MdWUiU9M1EUn5n+Mzqqq5gthxK8w08lGr7e1dkvnEKEIfvg2ISGtgIgHOAgSS1AqleLtbm2o82sHvQ43nDfmHAQAuPvqOy4/ZqglTSY7W4MEQW9G1hg69h3Qy6iZpwhEEkortta+pxRm51d6DmxWgRRYIgm88ZH45IEnkq8IxBAAPIAPQZUjbd2WLxvDlOv8dPMdBixB9pwJ9nDS0dP8YWiaPWfOmtWrzc3NX33JYjCYXoMtmzNL1vBFO0+98h1hrsj8kZRnxMiRp/z9tbV1nn5M19JQGdG//l4+iqJ+Z166v7luDXHqXgFBwT1Ug7xg4aiBrUpf3N0RiSWHL7w31pZztmIRCFhEikQEow/fp2lrqYwbYt1M6VXNFRwIfOtqq2llrIrH4bJzcjIzMhx797n/LsXEkOXpZi61HwRBTl9+z3p6exhUQoJ+zJk8FHcNp680Y+pYD9v/uOzk8UWHL4awVCl9bbVRifD1q9dDh4/6Gl+QmstZPr2fAlNKaiqpVHMFB8+/62ujgX07XC6Xz+cTKYw7wcmujj0GOBpKfc4TVl0J3NllNE4AgNdgq3uvweH3ccpEYVf+YUAQDm1JtcuOBEGhMjHFycWpv6OUmga/ojVSEwBQWlGTkl3WzMY3H0eZPrg8AF9RG7UoByQjoBLb7w+OnsD9vsa7I93VOpfPMdnGLEat1AQA8Pl8BEEgCBripO9/J9qjTw+p4SsYwVEltobyKgrkx+8TPZx0MamZlJSEIAifz09LS+NyuYMc9AMfJw3sbUSlkLDCq7ZG8qoK5LScMuV3L2xw9dNk4yDgDYp23Xg62MW0ORHo/1auPo5yMFO2Nv6RAkwsFv82d+5fJ09O9DC7+TLxe0phIxk/YBjB4SDM2erUzU9eA4xYaj/8LVJTUp48eeLm5jZthNWVp/GJusoWRn/vaheU8TWVKRAEvQvP0H562xP3U8kRGoTMQTL+ungt00KnMX3o345EgvhdChnqrKOjzgQA5OWVngs4N26c96Be+paGNX6X3v+50KORBLYIgiIISiDgAABnbn/27GeA9QMAePv27adPn3bv3j1njM25ezFG2spSXTf+XOhO+X+uWqFYQiLg2nsd04TgxOFw4zxs+APMuTXCruxGFp3K7tmj4/aiWwQEAFOOQia1zN3m8afCUS7SEzvUBUFQWCLlm4ElCIKiInHTiwmeQJT36OUUnJQUeixIaP4tJCHd1ca06ZH8O4iIy/N0/ZHp0GfChNycnOKSEt8ZM0hE4t69e62MDGNTix2ttFEUrc2NgKKYqQgCEHjyqeh4UIZHL7X8nJIFY3/olPsPHODz+fn5+cdPnKBQKNu2btXXZKbnVZroqQIIPA4rOnE3fVhvDRxc4YaUSnXXgyBgWpWTU1hpatBYyYt/MTyBKLegbJjT3xmjUBTNy8uTSCQQBHm5mVx/ldiI4EzLr7nwPHuqu466Ih4gMCY1s7OzExISvn//npef/+zZMyVl5ZH9bF6GpdQVnGv942yM5Ke4a0eGxCyBShv2DEFgPJJ7/2Py/EktTtPzryE5q1RVgaStxqiorPzy+XN5eTm7qurZs2dEEmnQwIEmOsyIuFxn218mU+QJJdsuJA7rrW6hR4XFIkxqwjAMw7AYhiUSiUAgwOHxo/oZP/+YPHe8U8MerHto1H5+8qkoJZc7xV1bR63FTgnNp1mzOZVM7ODc8y1FgSFSU2puKY9uwY3gvOYIzhoBnCEtnypXRKDQmLXFC59+LhrmpC7V3p6VX25YXQD9QqV0QCs/pRX9dwSnWCKpVa8vX7qEoujMmTPXrVtnYWFBIpHCE4pS82uIFPb//SpREYy+jigZ6aIBUAAAyhdKagSShKxqIgzV7oEEBgRgptqjR47o6uqKYSQ0JSOrWCBGqwGK8kWSGgESl8nWZIiRXycqQiDovxydwqkRMukkbB7kcrm/zZ0rEomys7NnzJxJwONPnjzJqRF9T2ejKKhNM4AgqECEUEg4FEVzSviRKezIFLauKqG/6Q9ds6CgICQ0NC8vr7ioKCQ01NDQkGVom10i/pLw9yKSy4dfR5aGJ1WyqtgkIH0ZqgjEHG5j1cH+9cSlFtkYq0EQVM1mh4aGcrlcDpcbEhpKp9EGurnZmWi8jymgMxQQBEWxhSb64wO2/OQLJal5Nd/SUplUMKbXD8X95s2b/qdOYabaj2FhLs7Oe/ftKy3PBgAk53CquD8VmcgvqdZS/ZEzK72gJjiq7H1M+eg+GnM99dupVIss6qB7w6ARbaVlmq538PGnQnVFspaKlJ0GearkI/6XqyIewP+nzINm+mpJmWW2JuoAAAqFghVXIZPJVCoVRdGEjLL5k8yVFf5ODVHFEZWxhSwVipoiBQBgZ1w51V3HyULp0bv4xMxyW5O/FURNDQ2stBkeD/Fqqj16/4+98w6Povr6+J2yvW82vTfSCy0QCL1IR4ogVQVBQAVFRfwJglJUOiJYKIoooNIRUJrU0EtI770nu8n2MjP3/WPCGpLNZrMpgL6f5+FhMzttZ+7Muffcc77HncnA6U1mDvWKCZEUlSkuXHAOhjmNz4qCIN3B90V784v+BbAYuMFYpx7O4XDWrF5tMBjmzp27csUKPp8vFktYzIpADx7dn0Eed2tupyoi/UUIAFw2jiKgX7RscGfx1VuJ9D5jY2NjY2PPnz9/6tSpz9eupc2zpwzvUU/ZgM/Bh/dwGNfH7egpfekplgcwND63+1AUHODSePl/By6HqdWbAAA+Pj5r164tKirKzMqiLykAQGswCXgsfzcegtC3BdI3ib5NCAA6I8lkoD4u3L4RgorSuqpQU6ZMmTx58h+nTt28eXP1qlUIguj0BD27EeTVMK1x8u4zu1dNpOc488q0fA72Ypzr6F4u7Vfg7P8N5zOKkNdm5spoItlMtFpptGg4PVxEme4hxqIic8hDfS4wPSaEezZe/m9lcK/AVTvO+rmLBby6icz169Y5yGQAgJScKrFIKBU9kUxCkNDHmVtSpacN5xtj6qaxh8cFr/nuvLOU6yKrc4Ts3r2bVv48ciFjcK8g2moCAOaPrdvEx11qHDbqxqmfeiI19V0DJAT7Ea/e00exmP+hHkwDRAK2iUKVGqOIz8IwzN/f32AwMFksX19fkUj0ML08LMC1cT0fJgPFUARFERcp+5vF0b6uXARBzl1LqlRoHSV191Hq4BAUVCel8md8zoAeQfX38M3iaPpJHD+y6zfXO79fc4eHPFFGuwwyT/v2WtarUztfgGea7uEeu367HuJbV6KHxWJ17tzZ/O3lewUTh3Xlspu0NSwIl80IivATQgiXbU0xGAkWE0dRFEVRNovF5XJxHIcQXk/Ij4m0XDCqfohrjxDJsB7OorZ7f1oEW7lyZbseoGMortR5ONoauPVc0L+zjNmKZMqU7PK7yUW0oEZFjUGhMvE5uLulS4SiqNDD5fdrOd0oOVbvfQ0hOEk54VOm9uri+9+JGGTgWKCP487D93lsjH63CgQCigJ/xefklevemNST8WScVK3GhKKISkM0uLYMHAv2d/1i790qeY2Iz+Kyca2OSMgsP/p3Zmxn//4x/o0vKYIg0WGeF6DscqZcTOqFgNAD7AEU/sAPC547Y3CvTv+du9AYBEF8PaQ7D98J95cxcBRBEBRFg4KCvL2988tUl+6XzJ3Yo7GYaplc7yhmYRjCYWESQZ2nNyzA+btD95wlHLGAhSCIq6trt27dTAR17O90BwfJ4J6B9a+zWTSKx2F6RgXvSDeqFbUOiIkBYBlgnaKcLnYe/uaicYL/UuR5Y3gcZoVCl5hRGuAlQRCEx+MNGjSItmcX7+Rzefy+TUTD0mAY6ixlIwiCIIiTg+DAmUeRgY703fTy8urRoweDwXiUWZFbpn1paKTFCYvf/3o0dmAY3RkVC5itjKy0hWbSURoDIczIq8zIr1JpjL4ektgobwDAn9fSq2u0AABPFxEdO3r+ZmZ5lRoA4OooGNgjAABw6U52cbkSAOAo5Q2JDUQQ5Nr93PySGgCARMge3icYQZBbiQVZ+dUAAAGPOapfCIqi91KK0nIqAQBcNmPMgFAMQx9llCZmlNHdyXGDwnEcS8kuP3Yp09uZh6LISy9E4hiaWVB1+1EhfcIvDY1gMvG8Yvn1B/n0knGDwrgcZmFZzZW7ufSSUf2CRQJOeZXq/M26wsvD4jo5iHlVCvXZ+Ez6Cg3uGeAsE9QodaevptFL+nXz9XARq7WGE3+noCjiIOJ2DfNoMCJ5WtTXqk3Kra1QGHjsJ3xQDUhIKzm654+IvIRQRMUAMBdybksDIiaNGD3ApuyLfxlGE/HH5bTkzFKDkUBRhMthDuoZ2C3MQg21okodhLC4UtdABR5CuONYTkWN8ZXBTjcSCkqrlGwmI9TfqVe0N7u5cIFKufry3ZzbyeUejpxOPo59u/pyOR2a1PvMUlRes/vQbQchI8xPxuMyKxXaxKxKHo83e0J3LtvCJUorULlIWWL+E1+RJLV6XzqprcAonUTAxDBEqyc0empk/1CLt7jBtvdTi++nFCuUehcZv0eEp/XUz/8UZ+Mzrt7NCvaW+LqLEQQUlCpTcuVdw7xG9W9BwTuDkXx76wMeVRbqIwzydmAxsdIqdWJWlYerw4zRXZoK77+XXBQZ5Mp4NrVqzSIdf17LwHFUxGfXTzulG4+5DSGNRKnqHNz1CjX9s6TRVuaiZOZ16ue4IvW+fPwf/c98rqDB0SFouKTenuuO2ngdcwxIo4VPnjaCGE3ko4wyF0eBVMQlSQoC2ErpgLN3yod2bxuxN62e5LKaOZmoYLfQNbPT8yrT8itzSzXdw1zeCXHj/Vff10wGPn5w+LhBYfvPF/q68nqFN5lpQFKQgSH1nw6a7BLN6ZvlCIrMG+MzbVTnpja3iKOUP3FopJenvFuQ+P9FD+rj4SxeNm9wQWlNUlbZ+fiKgV1dZk8MdGw6KtBByKxWGhsYzttpNdcSq1/q7/XqME95rY4gKC6HIRFybLF/GIZ2D/fsHu55L13RNcj+QvH/Sob26tSnq29KdvnDtHKFmujb2XXUwGgruVsWOXWzLKdUP29sdLgXMz23Uq/Quzk5vN0zzHomaNcwO1XS7MamESeE8EZC/q9nEja8P4rBwJ6pkjF30xRbDmXrjWSAO2/V7NBnQSvuxsP83UfurHxziIez/Rky01ff+XlZd7s3v/WoIC234pWx3QAA5ijBmBCJLTcuo1DlKGZ1sHTRM0hljWH2uvuBHvwN88Obum45JWoeGy+q1EX4icwaYxDCH87kX7xfRVJwQj83+8T6b6fKuwaJn9Miju3NtUdV24/l/LC0C9tqlpfRRCbmKOtbOI2eWLApoaRaL+bjvyzrbrcs3K0UuRX/zX8ZiqI2/55NUfCDKS2e962qNcxZ/0CtI31duN+8F91scUMzlXK1g5jbkb1Mm450Nj5j+4Eb787sw2Bgz5rAcWSAiMPCatSmftGyZ8FqAgB6RHpOH9X53S9O5BZbSI7sqHPwoq2mGdtvmojPUKiM7XJazw8Qwr1/FugM1KPs2uwSC9VeaSgIUBRhMVCD6Z+YEQRBZo3wWTjB76f/dR0da2e8JYYi1HNY6LQD0OiInX/kVdYYb6fWWF+TycAaZDkTBJw2xKNvpMPIni6VNRZCZG3keays2TEk56nO36u8nlRtxzukRmUa3cslyJPn7siWK1twd95ee5wO6+0wmnfVmgjyZkLBlg9HW3GJPEWYODp1kMdPZwsGdbFQQeypgKJo/xh/AY9VUKLwdbezW8plt72/HjbyYFvEQcgsrNC1QOXo3wgF4Yiezm4OLGcp28o1oyiIoYDFQE1EwzcpBUFrenICLq7UEA6i/4pmk+3cTVcwcFTMZ1x7VN0n0qFF/XgRn9EvSkaQcETP/3QCSftx+WGVVMAwEdStFPmwHi27yAEefKmQ4SBkjo1rUsvCIh3fxWzecDJwbMWCIc2uZiLIw+cSU3IqWzC0aSMIEgpxbPXOvzv4uABCVxl/5uguFv34rXS7r58fYcNaTZKWW1FUVjM49h9vCYIgjxOOmwHHUFskh/7dYCga6iNUak09QqRWhb8hiiBcNq7RE1LhE87tVg5KPJ046QVqB9H/F0ZtSL9oR19XHgBAJrJnNqGy1uAu+08HwbYrb433jwmR2F1TLL9cF+jxLI7QGtCM4axSaPhcZrNxgBDCHQdveHk5v/JSENI4LujfCP1aLC6r+WLPleVvDDCn5TUgMbPMw1lovZKURVqZh1RcrkxIL3vCcLak+C6CAIqCzUrVmAgyM78qu7DaRJDW13zWQFHUVSaICHSxErBK6+pZb8wUBAiKcNlYheIJz5JWT3CaC8iyDoeFaw22XtWKavWvfyaUybXwKRSKaBUIAAgAfA5j7ICQEJsjVOVKY5AXv3Hipi0k5Sj7d26td4rPwVVak4Br00NqIsisguqsgqrn7jFh4Ji/p0Ogt6xFAasUBVkMO9Viiyt1/aJbXJV60Yy4lmqathJrB4MQfrnn0rSR0dHBzUQ3lFYqdQSIDv0PZcrTzcLDVRLo73Inqah3Zx+Lq12+k+3uJBo3uMV1LS49rOwf3ZbOZwRpgeH0deXllmr83a11/TLyK386+cDd1cHfy5HPeM48ihQFs0prT1xO79fFe0ivQIsPOYTQlugEBAA2E9UZn3gnFlfpWz+sQRDElkC89NyKH048GDesi5PD81ooXqM1HD//KL9UMTwu2Jb1dQY7awdBCLX2blufQA9+Uq7SlsDazPyqvSfuu7s5+HvJ+E10r59ZTCby8sOi/WcSXhndOdDbpteRwUjieDPdTSuo9aSN3ZH6NPX6bT+aiUkrKqsJ8Gre/pdWqtxd/qN6YL6esvz8sqbuXI9Ir+MXk+0wnLv+yGuN4eSwGWLBEy9uFgM1mGytUO0sYd0q1fo33V/KLZb/cPzBjPGxz4ggH4SQJAicwfjnT5LEMGv1b/28ZD07+57+O4m8lj68j4X3tYmEGNbM8093RViMJ5zbEMKqGoO/G8/KhrbgImWVVust6j2ZMZqI3UfvvTY5rlm3UMcAKerk0d9HjBlP34vystK/z50BEPQf/IKLW5PticdlTR7d7eejt4J9nZoNC9AZCKa9A5r0QrW71etpI0wGaiSan87IL1HsPnZv5oRYjqU0046HoigIIfY4U86WxyTQ10mnN/1w9Oac8V1tidhotsVaQa40iu3ytNWqdAIe61mJqjUYCQQg1gO+aSAA/9mCndZ/uJeruLSqYaGoDqBXtPfsCTH1l7CYmNFkq6eIHus0NeUOIfzpxP2pY3s8I1YTABB/9dLaFR/Rn+XVVR8umjd9wohXJo2+e+uGla1QFB05MOL6o6Jala7xt/llWh+X5nzsECIIQFG0/miepOiFrX0i3GXswkoLJ1afK/dyu3f2e0asJkEQu77Z+vH7b5sIEwCguLBgxoQRapVKrVFNnzCisCDPyrYIgoweHHn8YkqzR8ku1gRY9YU0BYTwdqo8wq8F9eSbAkEQFgPTWfWlQwj3Hr839cUez47V/HrTF3+dOk7/mZhwf/bU8TMmjHh3/msV5aVWNuSwGVPGxPx04r4t0/Yl1XoXiZ0T83fTFd2D7RmAvfHpkQ6OqrVmOOnL1FjI6v+xHUcJb9v/XrRjQ1YbqUaZ2zoDR4yNIj+t4Cpjl1ZbrvlQqdCw2Cw+r/nHA0LY4GGzZUmzO6kPSRD7f9z17rxXKyrK6JU3rl3p4en1w8Fj7yxZvmThXI1abWXnCIJ0j/S5+aig8VfVSqO0uWRWCC1EW6Xmq0K82+DtzGRgkIImqyObpMyysMBmatdACHOyMg4f/PlW/FWSJAEAOq3273N/njp2qKK8DEKo1+kSHtzNykg78uvPqcmJEMLM9NTiwrprkp+bk5+bbTIZr1++eOzQgYy0lKZux1uzpz24d5vFqmsY9+/cHPnixNcXLHp9/qLYuH5XLpyzfp5CAadG3UwSAoSwRm0S8e3pKOSXa4Vc3IpoaovwdeXmNJ2nBACortEy2SwBr3mPvcWHotl1Gq9g5Vtlbe3Kpe9+u3WDRq0CABgMhiUL35izYNGeg8dDw6NWL//Q+uZ8HovFZlXKrf3eOj8thtg38iMIqlxuaBBhZyMdH1Vr/RciFhSAbCM3O2vVxx+s+viD1cuW7NiyPj83BwCgkFd/+9WG+quRJPnlZx+v+viDVcs+WL/mk3NnThIEYcfhmmXn9s1VlRX1l+z5blt5aUmzGxqNxm0bPzfo7SwbhKIo165h2Yb5Lfbu1iczv/LynWx69INjCJ23YzC2IDbBw5FTUK61+DhVytUyG3KT0lKSFrw2Zdq4YRvWfGI0GEwm444t66ePH/7GzJdu37gGAPjr1PHd3341/7WXJ48Z/NsvPxIEsfyDhSXFhQAAk8n4v8VvyqurDh/c98qk0bOnjj/40x6LR0lNSbx/99a7H35iXtK774Dps97gcLhhEVEmk1GrbeZp93CVFJXVNl4OoQ2NH2kYjAMhrNXY+WZvTLCXwFwbziJavanZ4eb5M3+8OXtabY1i5/bNX61fY9DrX5vy4sWzp3NzsmZMGJGZnlpZUT53xkubv1hVVJA/Z/qEOzevpyY9Wrd6OQAAQurT/y0uKsjfsGbF8cMHlTU1C+fMuBV/1eKB3n7vow1f72Iy6wzn6PGTFn3wMT0STU586OHdZEVGGgQAqrkxTX651rtZN4AlKApevFfZO6LFgSdNIREw5SqjFXtTqVA7SJp5TCCEZ04enfnSqJkTRx0/dBAAUFFe9r/Fb04bN+zDRfNKi4sAAJs+/3T/3l3Txg9/7eWxD+/dKS8r/d/iN0mCAAAUFuSt+vh9nVb7+cqPZk4cNf+1KfduW3axHD980MXNfcyEyY+PS81Z8E732DgOh9Ojd5+CPAs1eRogk/IrFdb6oACAhOxau+Npk/KUfm7tWEGzbbFuOCHTXvW/0pKii+dOh0d1DgmPVNbWTBs3rLZGAQDAsCe6exBSB/f94OnjEx7Z2cnZdcfmdSs+fIfuFLctxw//Sp+AmT+OHpJXVzW7IWEyHTrwk8lkpyCAyURevtt8o2xMK4V7Ckpr7yYXAwBMBEVP1Nk4K2MGx1AGjlp0RlEQYM0JCmo1moVzZkya/uq3e38tLio8fujgvt3fJSXc37br57fe+2jJwrklRYWF+XkH9u5esmz1yrWb1q9ZoVTWCkXiE4d/AwCkJD7Kzc4kSXLHlvUbv961ZsO2UycOK2stJLyHhkWu3/a9k0vdqAtBkBFjJ0gdZBDCX3/50dvHTyJtUjCPBkVRgmp4ZZQak4BrwyRFI+NaUK5tw3oDYgFTrSOsDzqbifulqJ07Nn+yZsOseW9v2rHHzcPr3JmTEon0sy+3vLV46atz3vz+600AAIokv9iyY+EHH0+YPP12/LUBQ4cnPrxXo5CXl5WVFBV1jYnNSEsJDAodPX7St3t/9fELsHissMhoBGn4SjEajauXfeDu4dWrzwDrP7bZlyZJUkUVupZGXdG2LSGrRiZmOorbMr3Hz+qgE0LQ7Ngr+dHDTZ9/+tm6rV9u/Xbn9s05WZlLF80LDAr57qffOneLeWfeKxRFJdy/cyv+6rad+0aOnbB6+RKpg0NqcmJaahIA4Pihg2Kpw8VzZ8pKSnb8eGD6q3Oa6l9OfeX1+Ys+MDsD2GzO+MnTcBw3GY3ffbVx6IgxzV58DMOsj+vodwXLLjEmCOH1RLndKobzX45ldmx8orUfKeCxNy4ZZfeupQ6ycZOmTnh5+oefrBaKRBlpKTiD4ebRMPIWx/Fho14cN2nqK6/P/+HX45cu/JWSlECb3h+++3rPt9vobldZSfHN61fOnDy6bePndK8KUtT1K39v27D29/17aaMIIbz69/mvN33x5x/HCFNDl3deTva3X208ffwwQfzzFYQwJTHhm63r9/+4SyGvphempybv2LJu764d9S0rYTIdP/xrYX5uiy6Czmj65qC1abamuJFcbcdWjSEpwMBQAAADQ1vaIYn0FyZkWxiK2UJOdgabw+k3cKhQJF6z8evREyad+/OP2fMXSh1kkdFde/bue/3q3wCAfoOG+gUEhkZEOTu7yqsqx02aevrEYZIkjx06MG7SNL5AwGZzPv3fezevX9n8zQ9CkYX5D9RSaANFUft/3Pnbzz+u2/Y9XQWzpeSVaX1dbIruqX9wumayl1NbFuqJ8BM+svcu0O22vKzUPzAIACAUiSdPf7UgL7dTSBiCogCATiFhtDdIJJYIhCIAAJfHJ0hCIBD27jfo4tnTp44demHUWDaHrkaXwQAAIABJREFU879Pv7hz8/rI/j0++fAdtUpp49G1Gs17b86urVFs+HoXg9HaUXh6oTrAg98iTyCGApKEtWrTg6zavlFtNtykcXfkllTrCdL+pOerl84PGT7a1y/AzcNz/7G/BEJBRnrKjFlvCISiiVNmlpWWlpUWAwDGTZrqIHPs03+wQl6Noti4SVOPHzpIkuSfJ4+NHj/J29fv3p0bG9euJAjis/VbLR7IYgSQTqf9aPECJov1+oJ37P4JZh7l1Ib7Cu0bMibmKD0c2XZHOw+I8W8qIbCdsNYEURSpX7O3pShra6/+ff7yxbO7dmxlsTlhkZ3l1VXbNqy1solILInpGXf3ZnxJUeFrk8dyuFy+QDh72viy0uLszPQ3Z01NS06UOTq99fr0zPTUm/FXt21YGx7VOTszfcXSdwEAu7/56sfvtweFhF06/9eaFUvre1FIkty5fbOPn/+Zk0fXr15hXn73VvziBbPcPLwUiurpE0ZoNZrEh/cXvDbF1c1Dq9G8MXMSbWUJgli1fMmdG9dc3DpITXj7UXvGqWZYTIzHYQAACLJuxIlhCNHCmQAmA+MwsVqNPbPuJEGyWGz6KcIwHECg12lZ7LqxAovF1mk0AAAut66BoSgKIPAPDOLzBQ/v3b5++eKQ4aPYbM7PR073Hzzswl+nxr3QJzc706ZDk+SmLz774/jhPQePubnbkyIFIVTrCB6n+ccYPpk4mVem9XTitG10n4DLwDG0qtZOfTicwXCQOdEOcJ1Ou2b5h1KZrCAvh346CvJyHJ2cLY72Jr4844+jh06fOPLixJcpispMT93y7Y9/Xr3XrUevr9avseXQWq1mwawp3j5+67Z9b771dqPUmNQ6wkXasv3gGGokqPjk6mAvfnvUaAz1FqTkqewWuyAJgv34ymA4rtfpURTD6gqeYziO67Ra82OCPC5MMXLshMsXzt6+cU3m5OTt4xcWEb3v0Ck3D88dW9fPnDjKRo9dTY1i/qsvi8SSdVu/YzJbG75ULtfz2Zh988dGE3nqRtngbk42rGsZncHUwSKI1p5wo5G4kZBv967l1VWHDuw7fPDnC3+dYjKZKmWdn81kMlaUl1aUlZpHeGYQBBGIRHq97shvv3SNie0Z1y+mV1yX7j1PHvkdAODl7btoybIpM2f36NUnIy1FpazV63Q4gzn3rcVLlq0yGg17d+54Y+F7gcGhr8yZf/r4Yb1OV3/PS5avGjbqxU+/3Hry6G/mr378fvvCDz4eO2HygneW+AV0OnvmxG+//Dhz9rxxk6a+8fbi+Ys+oOfk13yyVFFdvfKLzXb0mp+KTndcF995k2NpWSV6jhPHEDu6xmG+wsTsWjsapbevX2VFWWlJEYTw2682fPvVhuiuMefOnKQoSllbc/P6lYjoro23QhBk3KSpa1d8FNWlm0TqkJeb/cmSRWMmTN626+fQ8KiUxASDXl+Qn2vlfCCEu3ZsfXj31te7fhYIhDqtlmrkhm2W0mq9s4RlY9/ZvBZBUkWVOh/bxqktItJfmJRTa3tQdH1QFH117oI1yz88feLIig/fgQCOGvdSRmrKjs3rDh/ct2PLupmvz7e4YVhktLy6is3h+PoHIghy8ezp1cuX3Iq/kpL0KDgsAgDw4aI3MtNTrRz65z3fJT68TxCmjWs//eLTj+OvXrLj/GkIkrqfUWOHKw9FkVupCkiBbkHWFKDsxkHEIkioUNsZ0hnZpfuN61cMBoPJZJozbUJRYT5fIKCnkB89uGsyGj29LOS5Ocgcg0Mj1q/+ZPzkaQiCHP1t/1+nTsxZ8M6e/UeLCvJqFHKFXF5ZUW7luITJ9O68V8MjO7/3v5UkSer1utYYHoORTC9Uh/rYGRB3+WFVdKCY14qgrVnLftfoOlRe29q56gzEtl+u0xU37cDHz3/r93vp6ZNlHyzctWPr9FlvAAAy01Lnv/oyBLBztx4bt++qvwmEsLgwv1tM7K34q8mJCZs//wwAQFGkKKoLAEDm5ET35ZlMFkWSA0eOqaqs2LZhbVFB/qRpr8yYPU+tVv3yw/e0qlzXHrEqlZLDrYsjYDJZzi5uAACJVIqiqFJZ5/sqKy3x8PSiX9meXj5lJcVVleV9Bw4BAKAoNmDIMJ1WazQa1SplbnamVqMRilo29c3nMLcvsyeqttkMQhshKUiHReMYQpItfjYYOOrjwksvVAV7teypEIklS5avnjNtokQqxRmMTTv2QAg/eHvOtHHDlMraMRMmR3ftnnD/jjnzksliISgCABj0wqiNa1e+//GnAABPL2+RWDJ51CAOj8fl8voNeiErI+2dea+evnSb8WQfGcVQJoMJANDrdPv37tKoVaMHxdJf/XbygodXC9owhDC7RBMX0czMqHl186ekHGW4bxsE0zYGQZCYEOnNFEXvCKkd/bDR4ya5e3jduRnff/CwIcNHMRjMfYdPnT19oqqy4uvdv3QKDtVq1Is/qnPD9Bs0hCBIeg5lxecbmSwWfQKr1m3969SJtJSkCZOnDRgyHADA4XC1moYzfAwG46NP1zIYTABARFSXDz9Zbf5KLLFTt5miqBvJdK2YFj8UcpVRpydCfYV2F0JplugA0ZWEql7hUjum2Xr16R9/5eLLowejGNY1pmdMbNyq9V99+tFikViiqK5avXEbk8ViMFkoigEAAIIwH09STnh5+oeL5g0cMhwAENd/0NuvT7926bxarZ44dabUQbZz+5a8nKy1m7Y3OBzOYNBRJslJCbfir6YmJx757Rd6TPLLkTOYXZMaFAVvpshtrLzUmMoaw910xaKJlmfNbYRshbfcPjrCL4ygKI7j5nDZ0Iioy/fqOqr1pxsBAAkP7iY9erh24/bSkmIGk7ny800QwnNnTsocnXVaTQOd1Ts34/0COv32x4WSosIXh8ZNfXWOSCxZ+MHH/oFBGo16365vJfUeVKPRUFxU4O7pVVSQz2AwpQ51sx1ePr7pqcmRnbtRFJWWkjR+8jSFXJ6dmT5k+GiCID5c9MaiJctYTNa6r77bsm71+jWffPbllha1DxRFrVeSa4oNrdOqzSmqLq1U9e7sQ5AQx1A639QOwwkA8HDi3M/Ql8v1zlK2Vk/Y6I1BEGTEmPFDR4xRq1QisZi+aHsOHFMqa5kMJpvDAQC8OvdN8/qHTtdJDUsdHG4m1U0k4zhj9YZtGrXaaDKKxRIEQQKDQ2J69Wn8hA8YPGzA4GEAAA6Xe/lu87mAViiq1LnJ2Dbf5TrvmUpL4AJG+9Vi47LxCD/hjSR5zzApjqEESWGorfosCIJ0jYntGhNrXiJ1kL08Y5b5Tx5fMHz0OPpzcOg/Da9ztx7mzxwu78WXptTfrVTm6N8pqMGxcBwfPW4S/Tm2T/9Y0FoIgrqZIg/3FdohKFNYoS2XG2QiprdzO5aXR1GkR6gkPkkeF+mAtzB5D8fxpSvW6nU6kiS5PB6CIF279zx29lpNjUIoFNHT87t+OUyv7OzievrSbfpz34FDbiRm05+dnF0OnjhXo5AzWSwejw8AGD3upQM/7W58uOWr19Mfojp3Sylog9pNJEXdSJZHBYjtkz8kSOrIlZIRPV3aKkeow7B+us2rlVohNzvrrdenAwDkVZVlpSV7fz9p0WlmNBqWvb+QzWarlLU52ZmffrHZycV1wsvTX508Zs3yD/kCwYkjv+3ef7S4UVIBi8VasvCNl6a+UlZSFBgU4iCTvbV46TtvvDpmwqTbN647yGR4PbcqiqCbPv+036AXLvx1at7C980BI3PfWrxwzozSkuKSogK1Sjn4hZHRXbrPnjbeoNeXlZbo9Xqp1IHOyVn0wccThve/dvlin/6DbL8IRhNxP6W4Z8tH7a0M/8stUjxMK+nd2Yd87KpFGiVO2E50gPhWqtxgIrcdyX1jTAvUrXAcF0uecK8JhS2OVufx+Wbvp06rmzpzdvtJhJgIMrdUGxdh69gIQggApChYKtcP6NLGsScNkAiYEf6iq4+quwdLzt0t57Lwod3tnxZqPW8tXtreWi0qreluek23ILEdVrNcri+t1lMQRvmL2jvJgcPCu4dIriRU9Qp3YDHQ3FINLUNvI3Q/0gyKotLmQsEbgCBI/ejxmhrFa2+81aI92IGJoOKTqiP8RWJ7k6/O3akQ8fAIP/vrFtO8Nq4bq2ODg6wdjM9lbV4y2r79hkVEbdv1M52bxRMIQkIjmCyWXqf7fMs39VfDMOy7n34nSRIBQCAU+QcGcXk8AIDM0em3kxduXr+i1+sOnb4kkUrFEonZmzT3rXdFYomjk/MPB489uHcnMCj4wxVrMQyf8PL0Lt17JD96OPetd7t271n/aVm7abuTi+uDu7dWb/gqKCQcALDyi01ePn48Pv/A8b/u3IyP6tytZ1w/Fovl4eV98PjZ2zeudYmJjY3rhyDIph172BwujuO79x+h5+ptR28ktuy7drDlhvN+hqJLpzYoMU9BSGsbtebdgaJIbJjDqRulDzJrlu9OnTmoZU91GyISi0Xi6HbaOUlRN5Lk3YIlLbIHEIIHWTWOImYHTGaLeIw+kQ73M2rO3qnMLtHIlcaWT+C2Ge1qNTV6IjVPCQDSL8rBjgNVKPQ5pRoUQTp58JFWSzjZAo+Nx0XIbqXKnSWsz/amDe3u1Nn3qVW2CQlrlb+qWSCERZW6nFJtj1Cp3aGwyXnK/HLthH7urdfYsiiZ2a5YM5wYhtpYgxNDkQbC/yKxpHffhmlbbA6nc9cndOAQBO3Zu6/FfXJ5vIFDh5v/FEuk5jmSgE51l8nT29fT27fe3hC/gE5+ARYqj0d27goAMPujAACRj4NTZI7O9ZcDACRShxdGjjX/afZxeflYKFJJEJQdUy/Nsum3rJ+Xdbd7cxxD6EkdkoJtpf2UUaTBUISkqOPxFT1C2z4E5umiM5C3UuRRAaIWeo2Qokodl4WJ+AxbBNlbD46hEX7C4kodAsCF+5UGZTPyDs8XehO4lSKnKMhhYaE+Qvs8eOUKfV6pVsJnsJgYRTWpHNnmMBloXIRDfLK8TG7Yd7bwnicz0v/fVb8MQhNBZhVrqmqNbg7sPhFSuztPZXL9zWR592BJm2TWUhRlDjnuGKyLvBOJmWVdQ5tPwPDzkB6+mNo3xnKViX8xEMKEtKJBXb2srPNUVHz7dffv190fAEBRoK3M+qwR3m+P98MxNDGz7G56RYNvIUWZCKJ+XLvJZKIoEsdwW4IOjAYDg8lEEMRkNFKQwnGGFY0FkiQIgkBRlA5CgRAajQYm00IcLP0Vi8WmP9BhYo1XK64ypOQpe0c4tLT0tMFE1mqMfaMc88o0xZU6D6d2nEszQ5Dws1kh/u48AZexdqcFUYiD+/YMHTHGPJGflZF2+sQRJ2eXl2fMenjvTkZaMr28e8/evv6BDbZ9eO82gqJRnbslPLh7+cJZX//A0eNeaupM1GrV3p07IEXNfXsxk8mCEJ488lvfgUMaxwFRFHXowE9jJrzMZrMPH9xXXFQ4dMSY4NCG8lhsBugRamcMEU1+ubZSYXCRslU6U7ArL7u4GbGbtgVBELXWFO4rCPISsDECgoahniRJQAjMU0UQQpPRCAFkMJjNGiFzO6dnuJpqzGZMJiNFUTiO0wFBFEURTz6h9c6KpCiSwWCSJEkQJhRBcQaj8Z5T8tUGiu3nzmuloqRKazoZX+rrwrNb8aAB05ce/H7lBL6lusjthLVbpdMTG3+8YsteRAJO9xDX307dU6pbFdb8HAEh1OlNF+LTMEiG+DU51cRjMzcvtdPd3SbUL6vZyhsj4jGsxD4UFea/Pm18/SWf/e+9iSMG/HHskEGvn/nSqJH9Y0b2j3lxaFwDCScAQG2NYuq4YbSo7GfLPhg1oOe5MyetnMmx3w+MHhi7ce1K+s/kRw8XzplpseHdjr/60TsL6ENMGzd8cM8oUyNlDACAu4zVNUhih9VMzlV2C5LQdafzyiwrFLY5Ai4jOtDatN/+H3fJqyrNf2ZlpN24eskvoBOE8NttG27fuJaXk5WXk9VYx+De7ZsLXpuakphABxChCHri8EErZ6JWqfbt+S40IgpFMYqiDvy0e8nCueaQdTMURe3cvnnZ+28bDXoAgI9fwP3bN1OTHtl7ASwDIUzNV6p1hIcTp0ppCPMRPs7C6tA30qAuTpvfipw/1q9HiAhSDTOIjvz6y3fbNpr/1Ot1L40aOH388PzcnIy0FPoZGdk/5oO35jTe86OH995541UAgEatfnXy2CGx0Y0fpfp8/N5bL40cePZ03aP08w/f7/7GgjwChPDbrRt++2UvAODq3+cnjRr07vzXLO4w1EfQLVjSrICzdXQG8uDFIk9HTs/W9ZDqQ7REE61NaLMJ1bEDwzrllJ+/nqLW2pmpbTfmVMUOhsXEe0Z59Yq2FiyDYaizXVUS17dOqzavRFFepeoR6UXBeoazPX1WBEE0UAOuUcgXLVk2+IWRpcVFleVlu/cfRTEUQRCB8Inu6oO7t1Z8+G5qciKEFABg1bqt/1u8oPFcMm2T6F6wRqPpP/iFpSvWkiR57PcDm7741NHRueH5mEwHftr99aYvg0LDaFf/vsOnBsSEt6AqqVVIkopPkof5CunLi6GohxMnu1gd4PGsFMWkKOpW/BVHJxcAgIube0xsHEEQ+Tk5e38/6ejk3Hg8cez3A3u+3WYOlPX08uncLSbhwZ366+j1+svn/6qoKAsNj+rSvQct3jZw6AgAwMfvv1VVWUEnfTVg0dyZKIaJxHXDi64xse6ebVy7l070dJKweGw8q1jdM7Qua5PPweWqDq2bgVvtfmk1GlW9jgWkoLy66q+r97k83qEDP0V3jXn7/Y/ooWT9rUiSOPrb/k2ff0aXZuMLBHt/O/lCXJfG4ZYURZlHrgq5fMny1XH9BqpVyq82rD2474eZr89rsH6NQr5hzYpjhw68s2Q5AKD/4BfEEum6VctafRksYzCSBy4UBrrzAz34fBskLZ9Z2vLUQ/ycQ/wavr86gPsZNdEBwo4sxmY7JoJMyizrHNJMJfDGuDq0SrYtu6D6YVpJj0gvioLY41ckh4WpdSY+p31LUN29Ff/znu9X1ZP+Sk9NDgoJk8urMBQLCg1vcKd+3793ySerl77T8JE2AyHcv3fXsd/3Yxg+6IURc9581/yVvLrqxtVLazZ+veWLVQ22KizMT01+tOLzjQf3WVbvbA0kRV1Pqu4WJM4q/meK0duZeydNUVVrkImeWlRIffbv3fXXqePbdu7Lykijl6jVqoryMlpJf9DQEW+991F9PcLuPXu/MHLs+jWfNLVDCCGt1x/dLebT/y1evHRFcL0glNfnL3L39B43NK7xhu98uNzDy3twbFRb/8Q6tHriVqo8OkBsNFHZJRqz1QQAiPiMbKs1TJ4WP36/vbZGUV/rLiXpUVhkdFFBvqubh9T1iQjtqsqKm9evrNm4bdvGL5raoUGvX718SVpKIofDnfvW4rh6wf+3blzjcHlz33pXr29Ype7KxXMeXt7TXp3bpj/OMnojse9sYYi3QMJnuLednjMAYNqozh2sVWs9qpa54X37tWo7jNZoRbY3OoPpy92XDm6Y1tINk3OVYW2RTU/XhqTp5MlPylV2D7YzVdkW7t+5uXLpu1u+28sX/HPyyYkPb8VfQ1C0MC/X2dVt6/c/1X9fr9m43bqGfk2NYuf2LScuxAMIlyx8Y9K0f9xTMken9V/vNBuG+vj4+q/ZuL2pYhGtgSSpG8nyKP+GzlIEQboHS24kywEAT9d2QgAP/LT70cP7Pxw8zhf8MwKuVch79xuw8P3/CUXixfNn/bTrm1nz3jZ/6+5pbaqepjA/Lyg0vEdsn569+7FYrPp+b1//wKbE3vwDg4zGdhF2ocWBCyu0fSJl1bXGvDJtjycz8XEMhRAYTVT7CSC0FAjh7m+/unH18tbv9tY/1ZTEhFvXr4RGRN+/c2Pm7PmvzFlg/srJ2XX9tp3pqclWdnvh7Gllbe2B4+dSkhIO7N1d33AOHDJ84JDhe77d1thwjh4/CQCw6YvP2vQnWkCjJ/afK4wKEEEI7dYYaoqxA8PadofNYq0xYRjq5tQuSihtzr8vKOnzX9JbszmGIgwG+rh8R91CLhtnMdBqZXtpU5UWF82ZMXHm6wsCOgXXvyMjxk74+cjpzd/88Muxvwryc29eu1x/q2bvHY/LkzrI3po97ejv+z9Zs8Hs8auv3tmYdoqyI0gqPlke5iu0WDgMQZAeIZKcEk1+2dMc5VAklfToQVVlRYOSat6+/l99/1NAp2AnZ5dpr82Jv/p3i3aLIMiyVetKigomjxn85qyptP7tU4TWRjCaqN7hDkUVuqIqnUX9mjAfwaMc+1Xy25y/Th3fsGbFis838vhP5CwsWb5q35Ez67d9v/Pnwzu2rKuvymRLY+4UHHrv9o0lC+fm5+Z8/NmX9b/q+MekAXKlYd9fBT1CpUYT1a4d9w7DmuGk3YwdeDL/TlqfpWQHfbv5LXg5ljac9bNlIv1FybnKFhXmtB0cxz/7cut32zY2qNeGYZijswutWeHn36myomWNisFk7v395PTX5qYlJ00Y0T89JamtT9xWTAR17VF1lL/IikIQhqHdgyU6A3kvXUF2eH1d8zmsWr9t4pQZq5d9UH8UeOPa5bWPix+UlRRbnI+0AoTwVvzVT9ZuvHgracz4Sds3fWnDRu0ChLCkSnc9qTrSTxjgzkvNV+mMZJdAscU3Mp/L4DDR4qqGg62nhae377yF76/7bFn9W0OSJF8gEInE9AoYhtVaKqJnBf/ATodO/x0TG3f80IGXRg1sp8LGdlBUqfv1YvHALo4KlbFnmP0ZLFaY+dHBDo6tsTqPrTOt3XmxA0/GTp7lOF4em/nluyM6/rgoiuAYRtfOrP82QRCke4jkZoq8Pfzbjs4uI8dOGPTCyPWrP6l/U77/etP32zZBCMvLShMT7nXu1kOr1WSkpdDRQFbIykhTq1QF+bkLX5/Rd+CQtZu2R3fpnpFmTVFPrVZlZaS1R5NQaU3XE6tjQiTC5opsIAgS7C30ceVee1RVWWNnCfTWgaAIMmve2/l5OWdOHDEvDQ6NuHLx3NZ1q3d/+9W+Pd/RftoFs6ZY12oHABw68NO3X22kRTGXvffWqWOHrl2+UF+QrzEkQcyd8VJBXsvK8NmCwUjeSJartETfKBmXjd9Lr+GysBBvawWtQrwFeaUa++r8tDlhEVHzF71fVJB/5uSR+svfnDWNdsZcv3xR5ujs5OxSUV5WXFRgfW9GgyE1OZGiqKO/Hfhl787J01/b8t3eGnm19YDbstKS0pLiNvpBTQIhTMqpPX2zbHgP55Jqfa/wFksS2oje0NG9hGfF7/9vBcNQT1cLVSSbZc3roa05bmFpzf2UYrrtNujhcVl4107i64nV1ssjtxQMw2lx4Lff+yg9Jan+5OI7S5YnJz6cMnborCkvLnjnQ29f/9zszIVzZtTrFCNSB1njGsgfLpqXcP+Oh6d3SHjE5NGDp4wdimHYoGEjG6yG47josbBfWnLie2/Oph6nAeAMhshSFc+WUlqte5StjItwsJSSb9lIOwhZfSJl5XLDrRS5Vt+OD3bjXsKST1a7uLlzONyvvv/JQeZoXi6RSg+eOOfp7ctisX8+fJou0uni6m40/NNbn/jyjN79BjbYYUhYZHlZCYIgn6xeP3bilJoa+ax5C+e8uajBaiiKLl35uUzmRCtUyxydzGLUtDfCXHTBxh/SAJKkknJq72fUdO0kDvISGEzUlYQqH1euT3P6diiK9gyTJmTWKJ+27WRzODwen8lkffrl5u+3bTbXZscw7PPNO9av/mTqi8O2bVj7+ZZvMAw7ceTXHZvXmbfFsIYClgCAyoqyOdMnGPT6QS+MSH70cMrYodPHj5gxe545i9cMh8ullWzpiLw9335l/orH41m/NXZAkNTlh5UPs2rHxrnmlml6hUlbmu71LPMcBwTTwY0aHakzUiotwWaiHRxYZQsESWXkVYb6tzjY2Lt11aky8qseppV0CXWnIGz8SuJzGd2CJNcTq7uHSFpTzac+Xj6+vxz9EwAgEAqP/HUFALB35w76K5mj054Dx9QqJZPFpmvQ+wcEdY2JxbG6QzOZzBPn4xvv84WRYxwcnTAMW7J8tV6nM5lMfIGg8cDC1z9w7291yWrBYRFRnbvVVZMAILpLd1r60SrQSoorhDC9UG0wkr3CLdSlQgBAQJMDHRRFwv1EOgOZmFOLoUiEn6jNQ1RYDMxoIlnMJ25i3GPL5+3r7+3r/+cfx8pLS+7ciu/eo5dYIp3w8vT6Kzs6udQX2wqNqIt9LSrIf3i/Lheluqpy5NiJtNt80AtPeFAMet3f5//s038wjuMIgtRXcvb09jEHHKEoOmDIMPrz/Tu3iosKLY5Xm1ILgRBmF2vKFPoQb2G4kAkAqKo1pOQpbZd8w1C0d6TsZnJ1gDvfuYVFPVtBw4Y1eXpdimRk524nLsTXn8js1qPX4T8vq1VKvkBIq38MGjripOZ38wqBQcF7DhxrsENnF7e4fgNZbDaHy929/6harWLgjAbitzRTX3nd/HnQ0BHx1/6p8jZv4fut/qVPIFcaridWYxg6LMY5OU/ZO9yhXV/OE4dGdLBVtnYwHpexdtGwDjyZFkNR4MPvkr78JWP66rt5ZS1Tke0YtHrjZ9+ct2PDzCJVm5wAhABFEAo2tJ08Dh4X6fAgs6aossVp+xwWrjc0H2HEYDK/+2rj2VMn6iqtCkWsx0WRjEbjrHkLEUuzHRvWrLh5/Sr94ojp1ScopC5ejs3hCIR17jgcx/8+/9f2zRbm2IwGw+z5ixpbOGVtzcK5M/U6bWMzp9UZ+VzLc5YmgrqVImcz0MhWCIVzWFhMiDTIS3AvQ3EvXaFrU7dSsJ9zZq61yosAgIDA4JjYuMwmXNzzFr5ncbRRVVlhMhpHjZsEAOgzYHC3HhYqnfD5gimvvP7R6xx0AAAgAElEQVTowT2qUTwtgiDzFr7PYlkwUdmZadFdugeHNcxU1uqMjXOlIIRlcv2VhCo2C+0d7uAgZEII0/KVBeW6uAhZi4RSMRSJDZOWyvWp+coOmN9hMXGDsbl7jQAcZ7wz75XC/Dx63CkSS8yaWQRBzLKk1a7RqN+d9yrtjDURxKtz3qQnDhEEEQiEZqvJYDK3bVj797k/G+8Bx/GpM2c3Xn7j2uV1q5czLKkL6Q1GW0qgUBRMzlVeelglE7F6hkpT8lXtbTUBAJOGRbGY7Ztl1wDkWZ4gtIWzd8rXH8zqGSr5bFbIMxispdTo5644bEc6yvTVd1qjVXvpTnZCeumi6XG3UuQxIZKMQrVUyGwsCwkhTC9QK7WmLp3Etk8/6A2m1TsvzX65j/XVFPJqvU4nEIrqZ0Q0C/2+FkkkdNV7i2jUamVtDYvNbuyPagqSJCvKSmkpgAbt5OyVlNhw18hOrg02KZPrMwpVXQLF/KY1ehKyagI9+LZLqmr1RGqBymii/N34jmJm61usRmf87LuLs1/uw8CfOXdLi4AQHjpzf3TvgJDH7hkIYWGFtqBC5yRmBXrw6WtlMJJ30hQ+rjyPViQCFlfqckrU3YIl9hXDshG9wbRq56XXrT4mFEVVVpRTJClzcqL1I22BoqjyshIAgZOLqxVlSnl1lUGvF4rEDcJ3raDVamoVCiaLJXWQNWicuw9eXTanP5tlzT6ptcT9zBq1jvB344l4eG6pNiZU0gHFDzoea+2GIKmcoupO3o5W1nnq9I+W/X6peNpgz2fQatI8lRPr3dnHXIEcQRBfV+6dNIVM1PBNjSBIsLeADnvxc+N5OHJsOVs2ixHs7ZCQUhgZ4mFlfUkLSyPRyBybL5XF4/NtfxfQYBjm6m5BdblGqS0prQ4b+0TFFZKiErOVGIbERTRTmoPDwnQG0nbDyWXjXTtJCJLKKdFkFKkkfEaAO59lb30JAACXzXhpcNjPR25OGt2Nx3kmhBfswESQ566meMp4wX5OdPJxXqmmpErv6czpFeZgjksvqdJlFatjQuyvyEHj7siRiZn3M2rEfEaQp6Cd4t7ZLEaoj+xhSmFU048JiqLOLg17bM2CoqirW/MS4rZ3K81wubzGHVYI4aO04mBvBytWk6RgUk6tSkuYCKp7kFilI0qq9T3DLMxutAdzVhzasnQMj9Ne1XAbY+2B12iNK7ef279uqi07ysyvOnYxUWvQt1oStcXwEOrg6XIE6dDjQgi4bPaYfuHBTQvV0u+11Qtf6MDzqqPB+IPJwJwkrIIKncWKvgIuo2+ULLtEcz2xOsxXaEs15knDIrfsu6bWGXtG+7ZV9ZUOBkKYU1h1/kryuzN61/8JFQp9WoEqzEfoYIOIgbczNzFHacua9cExtJOnoJOnQKEyJubUmkggEzF9Xbl2xBwiCNIt3FMi4h44c48CCIOBP7M9yKYgCdJoNA3u4RfXxddoojKK1EoN4evG7RP1z3vfRFAPMmsEXLxPZMORkH2wGFhsmENpte56YrWfO89d1pZCNmbqHhONIbaL33P6mJAkdfNhbklx1TszeltcgU4NyinV8jkYACAu0iG9QM1ioG1SFdFGalX6DnadWnPV1qr081cdscVwZuRX7jsV//JYfwHPgqb+vxIIoVprOng8e8oLsVZE3u0mo1DVydN+1dPi8lq5UhcR6HIrRU6Xm4AQ3k5VdPLkW7GLJoJMzVdrdESEn9CKf5KGIKkLNzOvPywgKAiaDpB5ZkEADPSUThgSIeDVmT29kXiQWSvkMYK9BLaXirueWN0jVNKaOHuSpKqVxtxSLUlRUiHLx4XLYqAtfY4ghBqd0WhqlwzddgXDUC6bUVVryi3VMHC0kwdPxP+niUIIi6t0uaXazoFiPqftPasUBbNLNGVyfbCXoLFLpvUQJHnxZtb1hEKCei6nxXAU9I72GtQz0GIL1+qJB5k1UiGrVm2UCpl+brybKXJfV56bA7sjDcGkxT/vWf1SR1ZHaRvDuXbn+Qmj3bjt0KyfcYxG8udDBSvmNzmmJEgyr1gR4NVin0kruXAz62FayXuv9jUbTtrU3UiWR/gJxXxrY0oTQSXlKvVGMsCNJxNbq1v0r4GiYGq+UqklOweKWuoGrNWYsovVbdW/liuNuaUao4nisDEPR46DsO1f5c8Uah2RVaTWGggXKdvHhdvAMa43kvczahyEjE6eFqKp2xCKgmkFKoXK6OvKc+3Yl/5zit5IJuUqKQq4Slm5ZdroABFJwYSs2u7BYl47q2E3Zt/J+5NeiGwQW96uWDsSl8NYMX+wLXsxmPQc9vMdm2AfDAZKQmvxpVq9adlXf9kRHJRfrrXoVm0NOIb2Cne4kVQd7C2w8kZm4GjnQLGJoLJLNOmFajcZx9uZ85w6mpqFomBOiaZUrg/25If52pOlIOTiOIaWVetdHNogyUEqZEqFTAihzkAWVeoyi9QAIGwm6u/G47Gxf8ddoChKrSMzCtVGguJzsEAPPpeNNWiNtCVTaoguncStnNG0BRRFQn2E9Nzq9cRqRzHL353XTtn6zztGE5mYqyRJGOwlSCtQKXVEXIRDXpm2qtYQF9leEgfWmTG6Swcf0ZrhZOBYkK9tTsiOrb797NB+v/rjncmtiapFUYBZKrWGoUivcOn9zFqFyhToYS2+hoGjwV4C4CUortTeTlMwcNTPlScVdtz0e3tDUTCrWF1ZY/Rx5faJtN8lgCBIhJ/welI1l401Kypk+z65bNzsq9cZiJwSrVpHUBBymJhEyHSWsDrAnLQtJEmVKwwl1XqjiRLyGBH+QpalLAUIYYXCkF6oCvIStLkauHUwFPF35/u78ysU+jtpChxD/N14UuHzGnLV5hhMZGqeSmcgI/xFCpXxYVZtl05iLgu7l66QCJn/DhFaG7EeVUuWVCi9XFvsg8rLyb976379JUKRcOiIQU1v0TwV5ZWZaVm9+8USBAEpyGAyLp693KV7tFgisn0n5//8O6ZXN6GwQysmPpXG1CvaJybCcrELFEW7BUlySzXXE6tiQpqX83B35Lo7cvVGMqdEk5qv4nOwYG8BE2/xJNyzA0lR6QVqudIY6ME35zm0BgRBYkOl15OqI/1E4taV+bUIh4XTpXIghHojpVAbU/NVeiNJD5VcpWwXKRvHEAR5tqodQAgpWOd8JimIIoizhBXhK2wqihhCqNGTDzNrZCJm7wiHp5jG4CRhO0nYBiOZU6pJzVfzOFiIl4DZ8onnfwcQQrWOSMpRYhgS5CVg4sj9jFpHMTMuQqrSklcSqqICrKk3dwBvrj66bvEIXgfOcVqPqjUt3XzGxqja+tQoalOS0gAExw6djO3dw9nNycmptTktFeWV8Vdv9e4Xu3DO+4uWvBkUEnjp/BX/QN8WGc6Na7du27WxIw0nl81cPq9VPQb7YDFx643I15XnImXfSK72cuZ6O3ObfSOwmRjd/acfISNBcVmYpzNXwn9uwsEghHKlKbtETZKwkye/bUczGIbGRchuJFf7ufFaWUvVCgiCcFgYh8Vxe3wIkqLK5YbkPKWJoCgIEAA4LJTHwYVchpCLtybRxT4oilJqiaoaY63GZCQoDEWkAmbXThKL/o/66I1EUo4KIKBnqNR6LegOg8XEQrzpNm9KylMajCSfw/Bx4baVX+HZh6Kookp9YYWWz2F0D5EAAFLylDoDFRMiwTEkNV+l1ZN9Ih2e+gxCpVzTwXFX7TKbGt01MrprJEVRt2/cfWXutJjYbgCAwvwiNoed9CglqnOEWCLKysjJzc5zdJJFd41EUTQzLcvZ1ene7YcSqTgyOhzFUJIg79y6p9cbIqPDJVKxt4/n+Mljy0rK0lMz05LTvX08p732spOzI4RQWau8fydBLBVFRodjGFZRXgkAKCspk1cruvXowhc0dEhCCKsqq5MTUyFFde/ZjcvlpCSlBoV0YjAZEML01EwfXy8Wm5WRllVcWBwRHS5zdIAQZqZlcXncgrzCnr1jMJuTzXEMtUNvDwCwdFqQHVuZKa9SyZVauq44hNCibeOwsD6Rsrwy7ZWEqi6dJHxOw3kmi/A5eNcgCYRQqycLK7Tp+SoEQWRipo8zF8OeRY89hJCkYHqBSqE2OQiZ0YFiZvu8l1EU6RXukJhTW11rDPO1pjnehmAo6ibjuD3OpqAnRzU6Qqk1FVfq9CYKPI7+QxCExUClQqZEwOCyMQQgANQ1DDsieOmMLIqCCrWpXGFQ60x0ZDUCgJCHy0RMbxeujSpoBEk9ylaaCCrcT9hWApBtC5/D6NpJQg+88sq0Ki2BoYi/O08qYHRMWa4Ohm5FyXlKo4nycubGhjkgCCis0OaVacN9hVIhS28k45OqAz3auPf5HNFxzfSbrTtv37jn5Ow4f9Hr5//8Oz+vsEu3qK83fjtgSL/FH729ZOEyHMcjO4fHX701ZPjAd5e+tXDu+3wB38lZtvz9zw4c/zE/t2D3N3tnzX+lVlEbf/VWXP9eS97++PMtn+EYNu+VRYOHDyjIK6QoascPW04cPvXrvkMRncONBuPnKzf8cfEw40k1puuXb3z60dqRLw7Lyyn44tNNpy4d/vKzzTNmTxk6YlB1lXz+Kwv/vHZ8w5qtD+8ldI3pvH71lpWffxzZJXzeK4u4PI6zq3N010ge31YhWZKkSiqUdui8h7euinVSVvnDtJIQP2c2E7WSoY8giK8rz9uZ+zCrliCpMF9b31wIgvA4eLB3nf+wssZwP7OGpACOAQch01HM4nOefkKhzkAWVmira40oigR68MN8W+CcsA8EQSL9xcVVuuuJ1VEBIkFzKT3tcQJcNs5l446WJlh0BlKuMhaUa7UG0hxNbyVHgr6BFlegv8JQRCJgejtz+Bx7ol6NJjKtQKXSkVF+Ij73WTSZ9UEQRMBlRPiJ6IF+drEmq1gDIRTxGB6OHAH36Tf41qPREzklGpWW4LCwKH8RLZVXodBnFKrdZJy+UY4QwqwidZlC3zvc4RlxDAAAhvaynC3TfjQTVbt0dv82PFjfAb0/WfsRhDAnO+/9jxcJhILwqLBvt+6iVRlfX/DqyBeHJdxP/N/iFYs+WPDoQdKaTSt79+05cGg/NrvO7xjXL9bNw3XWvBkOsroUi20bv523aPakaRNIkpw69tVrl+IBAH4Bvhu3f06S5JBeowsLivwCfOufBoRww/bPo7pE6LS6/t2GVVZUTZzy4vHf/xg6YtCFv/7uOzCusqL6j6On/7x6nMPlxPXrtfnLr3cf2KFSqbZ892VUl8gW/WSN3vjBxlN2RNWWyfUubSFF7SRhlcn1fm7W4oBQFOnSSawzECl5KiNBdQkUt8jFhyAIPSdEp7JUK40F5Tql1kRrdjtJWO4ydofp70MIy+SG/DINhIDNwjwc2W0yi9ki3GUcmYiZkFXL5+Ah3u2bR9EiOCzMncWxMdkf0gCAtsOgiqSoR9lKvYEM8RFYT456NsFQlA7dghDWakyFlTq67goDQ/3cuM9dPJHBSKYWqLR6ksvGfF15wsedALWOeJhZIxUyY8MdMBTR6Ii7GQpfF17vcIdnp1UDAF6faK3CXXvQTFRtZFDLSt1ap1NwAP2e9fB0f+eNJQp5DUmSOAOnI1a8/bwAADw+jyIpDMdWrf/ki5UbqyurBwztt2T5u03tMycrb/6i12lNtbDI0KyMHACAr783giA4jvN4XJOpoc6yr7/P1nXb13yyDkCgVmsoknph5OANa7ZWVVQd/fXEx6uWFOQWVFZUTRo1g/byc7lcwkQwmUxvX+82vBrWeX9HYuuiahE6hd9ZwopPlls3nDQcFt41SEJLtFAQBFmVSmgKBo66SNlmk09RVEWNMTFHWVfCDEFYOCLgMXhsjMfGuSyslZ1WCKHRRCm1hEJlVKiMdPFRFwkrJkT6VOqHm2ExsJgQablCf+VRdScPvov0+UuHbScnpFZP0JFNUQHtImjQwSAIIuYzzbbfRJA5Jdr0QjU9HBfycAchU8xnPoMVtQxGslxhKFfoCQKymFiw1xOSyyqtKTVfhaJIzzApjqEkSSXlKjU6Ii5CZrs2yL8Yaw2XJKkKudrVsc282LSNrFHUfrhw2e4D3wSFdrp57dZXG76h21/9ikJ6vQEAePLi7yVFpV9+tumnXfu796yXqVPPdyR1kJSVVoRGhAAAiotKwqNC5dUKi2U3zKxYuqZ7zy7L1yxlsVhxnQdDCFlsVt8BvQ8dPKZWa0LCg7Myctw93I6d+xXDsBpFbfKjFJyBY5hNU4DPCD0iPbuEuNE9EpmIVVatc7EtYoWBozEhUqOJzChUJ+cq3R3ZPi48u384ij5hR+kYELWO1OhJRaVOqycJknq887qK2yiK4CiC4yiOIQwMwTCEgaEUhCYCmghKayAJkgIAoSgIIQQIYOKoiMeQiZj+brynHqTQAGcJ20nMyihUZxWpw3wFz91ApG1Ra4lHObUsBhrsJeA9/ybTIgwcC/Kqiz0kSapWQyhUxoJynYmEAEIURXhszN2RI3pKCms6A5FTqlVrCQpCFgNzlrD+j73zDIyq6MLwmVu2t2TTeyGGhN6bSm8GKVKUKihFBKWJIr0jCkrvIiiKNAFBBSnCR++9h/SebLK93Pr9uDFCgIQUkg3s8wOSyczc2bu790w557x1q2kKGXWrnbkWa5CI8drh+clAdAbHzXhjVLDS68UfdpSOCd/snzO6g8xJctWarY7Pvtn/c8m9aosGIQAE6WkZRoNx6der7PanpBnEMGzx/GWx9+Jq1InOy80LDPIv+JNSpdz1696RY4cJv74/rP+ieUt4no9/mBB77+HCpXN3bt1d9ABIgsjJ1sXFJmzbsstitthsNoRQr349+vf4YMLkTwmCqBYR5hfgO3/GN207tPp+zebq0ZH1G9Utus9nIRWTk4a2Ll3bsiCTiOBfaxUZqDhxPUerFj//tFdE4jXD1EK2s1M3dXIJERGgkD8RpV4KJCJCIiI8Hv8C/utswvM8AEIMw9EsxzA8zXIMyzMsj2FIIcVIgpRJcALPD7uoEvMYhFBkkDIiQH4z3nQ3yVw9SPGqmU+O49N09sQMi0xCNI4qU27CqgWOY0I6C+FXnuc5jrfY2bQc291EEyAknB5jGJJLCbkEl0twqZiQiLCy3yKez59lmqyMwUybbYxwKC0hsTA/ueAGWOjrw/O8ycrcTTIhBA2ruxE4QgjZHMz1OKNUhL1Zp3xSBL8gktP1XMXmMyxm3sfxPMdxRQtEPAuE0Icj3w8Kzs/i37lrR28fTwBQa9Trf1px8I8jWk/t0nXfnPjnNEMzQ0YM9PbxAgAPT/eho4aIROT3v6za9eveIweOvj+0f9tOrTPSM98d0BMAps794uD+Q3abfciIQd4+XlE1ItVq1bEjJxRK+S97Nmnc1E2aN7LZ7MJFPxz5vqfXf7Htw0YN8fDUzl08Y9tPO48cPNbz3W5tOrQkCBIAqke/plaruvaMEVbGqzYt3bP992OHT3Tr1aXz2x0QoFHjR0hKrj5BEnjd6qXZ7h7fp1opWhWQnWs2mO1Cqj+EUL0IzYW7ec1KKFaAEArwlAV4yix25mGqxWxjtCpRRICi3HdBC/l24iJcDFUsur9oMAyrHa5mWO5esvl2oinMV+73YrKKOxUMw91OMJpsrL+HpLmTnYpVPAghHEcqOVYomoXleKudsdgYo4XJynPYKY5h+ccbCl8NXvifF9YeBb5dAMJvHMcL0xSEEM/zJIHJpYRSiof4yOTFeerpDI67SSa5hKgdppKICeGQ5Wa80Wpna4Wpnl/859WhqFy1Fqvjw+k7N8/vU6xG6IzVfwztF/EChldBJCem/P3H4WtXbi5bv6ikbdf/fG/2x28/669WG2WnGHd1OSfPK5aCXLUFJZm59uQsa4PI0mf34HleZ6QeJJsFYSY/rcR53OqqEBzHJWTY0nJsnhpxmJ/cCU+/ygjP81l6R1yaBSEUFaxQyapMpK8TUuCilf+c/ldPoeCxnW9EEQjHHCUKLuI4Ll3niM+wuCtFkf8KGwj7THFplugQVVVJlbxy6+kP32lUtFZo+VLUVEIiJicOaUk8Wyj1UZ4VLFgluHD20o1rt7+YMb6kDYvVOzh6LjYuJffTAa+XtOdsvd1TUw5etQV4u0sYlr94T98wUlO6dwoh5KEWe6jFHMen5tgv3c/jAXmoRKG+Mmc7XHRmMAwL85OH+cmz9Y7L9/UAfGRQlfQsfRIHzd5NNFvsjKdG3Li6e7FJD1wUywty0WJY7m6iyWBhfLXiRxVP80zUrXijt7u4vOTbKoZRfZtX8BWLMpw4jjWoUbxcKgAopXK9kXIroSqh8/DOu93eebdbKRqaLbRM/MzVJM/zh8/GDupamgTEE1ff2vRlg1I0FEAIntxQ9feUikjs1A1d4yi3ssSHYBgK9JIGeklZjssxUOfv5gGAu1IU6CWViquSC1Xl4qkRe2rEFM3eSzbfije5KckwP5mkAhUeygua4ZIyrRm5dhGJRwUpit0YdFGJGCzUvSQzy/HVg5Q1Qv/bDDBb6RvxRrkEFyJPKnuYzk7x39Jz15NqveYjkxQ1Ix7QpcF3W4683SEw0Lf8D8CcE47jUzMsew4mjunX5ll1ElJz84y22q+VWOFdmBKWZXhNagfVjnzKdT01YqkYE8TFyu6lgmOYt5vE203C83yemX6QYrbaWRGJ+WolLm2m50RE4rXC1MINvBVvohjeQ02G+Tqdh/CT8DyfnGVLy7EhhIJ9ZK5TTGeG47iHadZsvUMhJeqEqx8N1LZT7LVYA0lgDV7TVFi8dfny5ZK/po1oW5FetUWdcQqs3HqaopgxA18v2kUo12Ddd+x2apah4tVadUZGqyIfC1J58SAAXy/12y2jPNyeGSLJsKzeaPdwe940Q48yYO6FssRxFg3LcldjDRIRFhWsKveJjoNm03Ps6bkO4HmFjAjykiqkhPObASeBZblcEx2bauZ58PeQ+GorLnfEc8IwXEaePTnLBjwEeEl9tZJXx1G2ysHzvMFM30820yxXLUDhqRY/+n13UOytBCPN8HWqlViG1qlwLiFrAbuDHrdwX8tGYe91LmVIxovm3J3cRpGa0rn+viAcFMMwbFmy9Z++qWteU1vq5jq9xWylgv2KUrZJ19liUy01Q1UvTtnAZKWTs2wmK8MDLxcT/p5SN6XLVeS5EHw00nV2huU1CjLMT/5UEa4Kg2G5+HRLrpEGAB+tJNBT+orsLVVRHBT7IMVstDIqGfFaoKLQ9MtB5WtqRocoKz4xZLnjjIYTAAwm2+GzsT3b16qQIZWY83dyGzqN4eR5PjEtb8GGf2LejOraOrqyhvGkV+1TYVn+epyB4/ja4eoX6t7JcZzVwaZk2fLMNACICCzAS6pRkFVanqxi4Dheb6bi0qw0w4lILMxPrpJV0Ape0PmKS7NY7AyOUKif3F0lch2AOTM0wyVn2TJy7SICiwiQq57ItGC1M7cSTDzP1wx9eeJMvt38v5HvNpNKKm4G8FyGswC90bbtwLU3GoQG+mgUMmfxVD5/J7fSNVRZlsMwhBDa9tfVPUdvDe/VpFXj8LIMKc9ElWUh+JyGU8BsY67F6t2UoupByopZRlA0m5xtyzPRNMNhGFJICW83cVXxfa9E7BQbn24xWBgEoFYQwd5yqbj8l6E0wyVlWXUGiuV4uYQI9ZW9BIuSlxuG5ZIybVl5dgxDQd4yb7enpHg025jbCUaEUI0Q5UtjMiuLkhlOq436/djts9eS0rKMs0a3jwrzjk3KGfvVPiFrw9xPO9aP8k/O0I+au0fwbZkyvE2LeiGZOtNHs35z0CwAjH//jXZNI/KM1g+n7bRTDACMfLfp262irXbq/S+3Wew0AAzp3rB3x9oMy/b/4leTxQEA73WuM6hrAwAYOGmrzmADgG6to0f0aQoAw2fuSs5hEGvp0Dxi7MA3AGDMgr0PknQA8Eb9kC+HtQGAL77948aDTABoVDNg1qgOADBr1aFzN5IBoGY1768nxADAwu//OX4xHgCqBWqXftkVIbR0y8mDp+4DQJCvZsWU7gSOrd95bveRWwDgo1WsmfGOiCR+2ndp65/XAMBDI1s3s6dETObkWRQyUdkjij78+vL3n5fGHVfg6LnYq3fTxr//XIYzP0bTQN1JMvm4S8IqNryE5XiLjcnMc+iMlFCikOD+nlKFlCCcUqfMGWA53mihEzIsdgeHMOSnlfi4S0ii9LeLotk8E52YaWVZniCwIG+pViVyHV46OcIUJzPXjiEU4iP30DzlLeN5PtdI3Us2S0RYdIiqSp9lOg8lM5zOiTOsOMudMjoHGS12q4328SixZHe6zv4wzeyhEkUEKCrFo0dQPUzJtlntLM3yALxEhKtkhIda/HIoN5U7HMen6+wZuXaK4Qgc0ygIfw/p8ywpHBSbrrPrjBTN8ASO3FVkkJfMldTC+bHYmYQMq8lCYxgK8pJ5P0NCgOf5pExbSrbNTUkW5Dd4KZm16tDED1oWHfpRvrgW7C8nKrlEJS9N/gRfrcTHXZxjoM7czlVIiOgQZQV7dQqqh1HB+Ut2nuftFGu2scnZNpOVAeCBRxgGWpXI210iJhGBv+qnpBiG/D2l/p5SYcsuz0TdTzHbHCwASEV4qK9cLsWFhybL8kYrk5RlFf4qJnE/rbhWmFpEuoyls8NyXJ6Jjku1sDwvE+PBPjL1sxXrGJa7n2zONVLBPrJmNSpZKagCuBWbKWQcrDBeBsP5Eiyan2Rol5CyNNcbbRYb5e9dGjUDhJAQm2+2MlceGBCCMD+5RyVlt0AIScWEVEx4av4bAMtyOQYqPt1C0RzDCpqRIBXjMgmulpNqOfny5bF7Tggc89RICnJO6U3UhXt5KVk2MYkxHI8hiAhQ1ApTScUvwxf/pYfneaOFTsm2Ga0MhpCbUlQ/UlP0/rnBTN1PNjMcvBYgjw4pN2ErF4VwfX+clLnsl4AAACAASURBVFZ1PcvS/NLt1Od3DnoWChnRJNqdormHaea7SSYPtbiav9wZzr1wHPN2l3g/olbGspyd5iw2Js9EJWZY8+U//62sUZDuSlIpIzEMMPSi0phVLhzHsxynNzNpOTYblf/yRQR6LUDRNMpNJiE4njdamMw8+7WHRuGhrJIRwd5yqQTHqojUzKuAIDGbkGnVGSgEoFKQAZ7SJ51jC8FxfHKWNSXbrpITtcKrdlBmKagX5VfB50ovh+F8Cb/zBgulljtF/lIRiUUFqwAgW++4eDcPw1Cwj8xL41zKzDiOyXFMLiG83ApvUDMsZzAzuSYqMdPK8cBx/+1QiEhMKsbFBJKIcYkIl4gwMYk5SVxTETAsZ7YyJhtjtjJWB0uzHPCAMIRjSKMgIwIUT018iAF6VOUKAAwWOiHDYnWwHA/A8zIpoZYRWrW4XPTjXDw/Qt6ozFy7wcwAAjGJBXtLIwOfy0HBYmOEnflAL2mLWqWP/K7SCE6gFUmJDSfHcYs3n7hyO9VosXd6PXJ0vxYAMHru7rjUPABo3Shs4getAODzxX/cjM0EgKa1g6aPbAcA05cfvHg7FQDqRvrOG9MJITR/3ZGTVxIBIDLE89vPuyCElvx44u8zDwRH1tXTeiCE1mw78/uxOwDg6Sb/YW5vDMM277247cB1AFDKxFu/6Yth2MNk3azlewQR5t+WDMJxbN+x26u3nRUGvGfpIJGIOHT6/nc/nRRKtn7TT62QnLwcP3/9P0LJxtm9fDxVl26lTFvxt1Cycmr3UH/3W7EZn3/7p/CcXfxZTFS4d1yK7pN5e4UH75xPOjSIDkjLMg6bsRPHMa1GNm7QG6VLsPckE1ffXPdZ6b1qXwQFuVWTMm0PUy0kgWqGqiQiZ3/IEjimVYu06sKzEJ7nHTRnd7AOmnPQnNHisFEsRT9d1w/DQNBKlIgwiQiXinAxiYGweAXIF6nI/6HEd6NAjhQA8cDzPLAcb7YyJitjtDLCeaQgoiD8i2NIIcVVctLfUyoV46Xel1bLSXWYumAMVjtrtNIJ6ZYC+UaEwEsj9tVKRARWVQRQqwQ8zzMsl5bjSM+18TwghDQKwk8rjQzEn3PexnF8QoY1XWeXibGIQKXiJRUGd1qe16uWYbk7cZk1q/kghB4kZms1crVC4iR51M7dzm0cVcletTTD5uRZlHKxQiZOSM3VGaz1o/zLMqQyetXqjTaLnfL3eoGK7UK+LjvFqeREsPdLHurHsJyd4uwUa6c4m4OxU5yD5oAHwc7xfIEscanhHxEl5QkMKWSkUoorZaSs8tZ/wllyms5O0Rz/r1uWXIIrZaRaTihkBO70q3MnQZCJzjVSeWbaTrEIIQJD/p5Sn2c4xBZBjsERn25hWD7YW+bKCC2wYMM/Ywe+LnUSWbEC7A561urDJIFXD/UiCTwiuEzHb+WIg2IXb4tNybHtPZU+qGNQ9aASR1+UFySB+3rmH8WzHPftphMxLav3fatuZX2sNSqpRvVipZLFIrz+a248zxutdFyaxWJnJSKsRohK/DKerxA4ppBir9q8/ilnyRxvsTEmK52WYzfZmHxXRgTAg1xCeLmJtSqRK6BFWBFm6x0p2TZaUKXmeaWMcFeJqgcpSueZxbLc9TiD1c5p1aLaYeqX8ltWaq7cTmXLpopRUop/CxmGnb7i77AA9xF9mjrb7EYswr3cxP9czQnykob7VbRY9LMID/RYN/OdL779U6OUvvVm9dJ1MrBDUFnGYLI4bA7ay/2ZCejLC4SQWi6qU00kZPO6EW+kGU5C4oHeUncl6fznhS5KBI4hlZxUyUn/xyfPwk5vZp4jOcvAcvyjvu4kgckkuEyMyyS4VIxLxcTLFFDIcZyN4sw2Rjh1tue7ZfEIkJebuGaYqowZhh0Um5hpzTFQOIZqhCoV0pd5X6cKUfxWLcdxF2+lNoj2d5KN2ULoDI4PFl7+5J3wdg29KnssjyE4XagU5SlG/fyUKOVeuWNzsCnZNp3BwQP4eUiDvKTONuVyUTHwPM+wvNXBWu2M1c7aKM5qZzjuP9F7YYsbIRCRmEpGKmWEUkY4oVMox3EmK6Mz0nkmimV5/t+JAYYhqRhXSHGllFTICDFZPlHFPM8/TLNk5TlEBBbsI/NQu7JRFkXFJ0Aot8xBqVmGvUdv6wy2io+qjM/igjywijfrWrW0a+voQB9NEXWEu1GKD73FzsjLkE+ycg1nARzHpescSVk24Hm5lAjwlGgUrmWoi3we9YqiGM5ooY0WxmRjKLqYbTcMQwSORAQiCYzAMSEHBkKAIcAwDAGPMIQhhBAgAIQhDAEC4HngAXie5wFxHM/zPM8DzXIMw1MMx7A8zXAMyzPsU55gCIFSRmhVIo2CJHBM+EKXuzGjGS4tx5ams/M8hPvLnc133Wkp9WO21BTzaD589kG1QG2Iv3vR1ZLS81ZuO/9O5/oe7grs1XineZ7PyTOv3HZ+RM8GoQHP9AJfs+1sy0Zh0eHeJe1/4qqbq8Y7qY7b84NhWEFSG7OVTsmx30s2IwQqGRnuX8k6WS4qnUf8oUAiwiUi3KsoHbx8eJ7neBCMHEVzDMtxHM/xICwDaUawiSCcv3K8UJ8HHvHAYwgJ0zYMIYQQhoAgMIkYU8lJAkcEgUi8EnJRMSwXm2rJM1E4hvw8JI2ruznn9p7TUvHTi6IMJ8dxv+y/Mnt0h2J72frntf49mihLleOtioIQ8nRXDurZ7Oc/zk8d0fZZ1by1iuMX4kphOI1WuizDq1vdLzywmOlOBaOQkdWDSMFvwmRlbsYZKZrDMOSpEfm4S54aeujCxZMghHAEuLCd+2Id4F4gPM/bHGxSli3XSAkZnV4LkLs2Y0rHdz+e+KhP04qUFSvKcNodjM1Bez6Hg4nFzlSkiKjzIBETjiK3lWpG+By7cLoCR5SPViPTapzFW6oQGIbUCrJBpJtgRLP0jgcpFquDwTEklxKhPjKX5pGLlxidwZGQYaVoTiLGg72lkYEK15SxjJy5mjisV+OKvGJRTyiG5RCg5wqvflWDo/OPVp6Nn5eqQQ3/UvT8bpuAMowLrDbKQbNuLzgipexgGPJxl/i4S4RQB7ONuZdstlMsAChlhJ9WqpIRrvAGF1UaIYteus6enusA4N2VopphKpeEe5WmKMPJ8wAIXLsHZUEhE7/frWEpGr7dvEwZiM5cS3IG56ASgWNILSfrRWgKxMXSdY6HaRaG5UgCU0qJIG/Zi9BtduHiRcDzfI6BSs6yOihORGK+WknT6JdN/dBJqBasreBcHC9wT2zZovmXL5wFAJIkI6NqDhs9Tq3W/LJ5g69/QOt2nQqqHT/69w9rVwiOJFoPz+69+jZ/s3W5f7zu3r75x96dE76cWVASF3t/+8+bJs2YX2zbU//758Hd24OHjyrFdQXXvVJMPuwUIxGV/t1BqGqLxgjiYkI2IiE/mcnK3E0yCYtREYH5uEvclKTrZNSFU8FxnNnGJmVajVYGIeShJqNDlGLS9Sl9scz7tNNz1CpPXqDhvH3jasMmzVu26WC327f8sHb25AmLV34fXbO2UvVYHriMtFSE0PhJM1iWiXv4YNK4kZNnfdX57R7lOxiDPu/m1SuPlhiNhmuXLz5P26yMtPt3b5fuuhYbNXv14a8nxJS04cTVt5aPqVO6iwqZjJiKTaXx4kAIkQTursLdVfnn6BTNZuY5YlMtVjsDCIkIpJaTfh4Sl1qWi0rBZKWTs2wmK8MDKGVEkLfMJbpekTiXV61CJvp6/Ftl6T0wOLRW3foAwLLM/BmTACAzI51l2ULVNG7uQrW6DRorFMolX8/t1KU7Q9O//rTx2pVLoeHVBg0dqVSqtv30g69/wJ+//yYSi4cMHx0aXi0lKfGHdStMRmOdeg3eHfgBjuMJcbE/b1pvNpk6denesm2HR28oRTnWLFsU/zC2U5furdp1LCjPy9X9+P2apIS4WnXq9xs8VCQSGw36zetXxz28X6N23UEfjiyoefHc6auXLwweNoognvcBzfF8Urq+FLcuz0SVolUB0eFe3toXnjaoshCReKCXLNALCg6QDBb6bpJZyAIKwGvkIm93sVxCkMRLqCDmotIRsvAnZVnNNgYByCREsLfUlby3UqAoZsOu80N7NRaRFTdvLupKOI4FFBndXyz/O3ooT5fjcDgO/rHno08/A4DzZ06GR0Q2aNzsWU3qNmickZZqNhmXL15gNpuGjx535OAfX3w6YuXGXw4f/MNqtUz4cuaZk8e+GDPilz0HJ48f1bvfoOrRNb+aPSUoNKxGrXojBvWZMHmmn3/g7CmfkSTZouV/cjMXz5/p0ad/0xZvTh4/Wi5XiCRiAGBZ9tPhg5q2aDl81Lgf1q2cN33SzAXfTvxkePhrkSPHTFy99JvvVy/z8fUVRj5n6sQlazY9v9WsRLQauVYjr+xRVAQIIbEI9xLhBYJiPM8bLHRGrsNit9A0D8CLSVwuxT01Yo2iGF1DFy6eBcNyGbn2HANlc7A4hhRSItRX7pJgq3RsFHP6WuKw3k0q8qJF2QCaYWMTc6JKHoNYgN1mNRkNNE2TpOj4kb87vPW2UJ6UEJ+XqwOAkLDwQk1IUoTjuM1m2/fb9imzF2amp71Wvcb3q5cZDXoA6Dvwg/qNmoSEhe/45UeWYVRq9cE/f5fK5AuXrtW4ue3dtc3D00sqk+nzchs1bb57+y+PGs4GjZr2fLc/wrC+gz78c99v3Xv3FTaK01NTho8eR5LktHnftG1Sa8Qn469dufjtqu/lCuWsr76zWixnTh67dePq33/+/sO2veERkSW6AySBt2wYVopb1/0Nv1K0KoDn+exci1YjewUjqRFCGoVIo8jPvyUsSS12JjPPfj/ZzAMADxgGbkrSUyOWinGXf6OLp8KynNnOpmRZjVZGcF7z1Upee4bcqYvKQm+0yaUiwnmErK02es7aI7983a/UvXeI6dat57sA4HA4mtUK++CjT4Ty33/bduKfwwAwYfLMQk3SUpPEEglBEA6H487tGxjCAKDvoA8ZhgEAtcZNeDIKH9wFS1bv+nXLTxvXzJg0dt6iFXk6nc1mu3DmFADgONH09cd8St21HkLWELWbxmwyCYW5uTqlSi0sImUyOc/zeTodSYokUhkAKJQqhVIFAEa9vm3HmF9/3FhzUb0SfWekYnLke89cXhdBr5alCWIpgOP4zxbtXzyxy/OE4b7cCEtSsei/I1LhmZhnptN1dpuDpRnBgQtJxbhSSripSKWUcDmTv4JwHKc301l6ymylaZYXlpWBXq4DS6fGYLY3rhVUwW/Qi9115DlOONHMTE/lOE4qzQ/JHz1+0ujxk4Sf4x8+4HleqGY2mZYvWtCley+1xs3b169N+871GzXNy81dOHuKUqkq1DlNU4vmzRj3xbT3h478+Yf1+3Zv796738E/937y2ZckKfpj7y67zfpo/Xt3btltNrFEcvHs6Rq18v1ugoJDszMzsjIzvH18b1y9rFCqwl+LRAiSEuJDwsKPH/377z9+b9ysRbM3Wk2e9VWfLm3+98+hlm2KT6X03x0obRJFhuXKMofCMBTi7x6bpHMZzqeC45iHWuyhfsSUcrzNwVhsbGq2XfDyEAQ2CRzz0Ig81GIxieEYwl4iZY9XHCEBvdFCp2TbrQ5GkEdzU4q83cThfnICd52OVw1qv+ZbK8Kngi/6Yg3n4gUzN6xeCjxvNpnGfD41MDjkqdWOHznYrX0L4MFqtbR4s/XYz6fhOD51ztdTP/u0Tv2G9+/catsphhQVznxPkiJPL+8P+/WIqlH76uULk2bMb/5Gyz/37hrcp6t/YNDN61dXfv/zo/U5jh05+D2ZXG42mz6fNjf2wV0AUKnVH4/7fNiAnlE1a1+7dGHa3G8kEunn0+aMGTEoumadW9evzv9uZey9OwCgUCqnz1s05bNPdv75j5v7M5PTFsJqo776/ticTzo+R93H+GzVzSWf1C5pqwIQQo1qBpy7kdSsbnCpO3mlwDGkkJIKKfmo/KQwg8nWOxIyLA6aY1leyIBKEphEjMsluEpGqORkBW8TuSgdNMPmGmm9hTbbWJrhgOdJAlPJydcC5S5/7CpNxU9xilJHYVguKT0v7NkZzAuYvurwkD6vFyrU5+U6HHbhVclkCoVSCQAmowEnCJnsP78Vm9VqNOoBACFMKpUqlCrhLvA8bzIaU5IT3d213r5+CCF9Xq5UJheLxRzH5epytB6ePM9npKXm5GQFBoUIxoxj2Yz0NIM+Lyg0TC7/b7FFUQ6b1UrTtD4vNygkVCQS0xRlNpvc3LU8z+fqcjLSUv0DgzRu7sKl83J1GelpAYHBKrXaZrPSFKVSa3iez8nOUms0ItF/K5WN207OGdXuWXfGaLEPn7Hr10X9i72HhRgw98KWqY1K2uqxS5vteUZbsN9zpM12UUJohrVTnNXBGi2MwUwxLC+IOQMCBEghxbUqsVpBkASWr9HhWrtUIEIWeIbl9GY6M9dhdeS78RMYuKtEbkqRXIKTroPtl4L0bOO2A9fGDnyjgq9b1DyLwLHnsZoAADzwPF/ogygYoUIUCuIEAKlMJpU9JasqQkilVker/1t1FXSIYZiHp5dQxy8g0C8gsKAOhuOFSgREIrFg7YSGAECKRIKtRQhpPTy1Hv8p8yKE3LUe7lqP/BFKZcImM0LI0+sxVyme58FZ8wyoFJLKUgN96SEJnCRwpYz0fmJaIuQ80hmojGQ7y/Isl58EQ1jUSsS4mMRkEkIQdi4v+cZXGYbhzHbGYKbNNtbqYFmOB54XdMc0CrKav9yV+vgl5sjZWFkF5nYvoJhctYlpeeGBxdtOmYSwWB2KV0kdRcBBMSKyqG06Asea1A4qRc9vNS2HXXurjbp+P71J7Yo+OX+VeTTnUSEYlrNTrIPibBSbrXfYHOxTFQLEIkwpI5RSQikjSAJDKD8V9Kv5JvL/zjt4DgwWOsdIGcy0sGEuQOCYXIqr5WSgl0gmwV3b5q8OFM0cOHVvwZiKThtUzFatwWQfOee35/GqTUzLW7X9fM/O9bWvkh6nTm/Z9eflET0bhgY4l4BXATY7PWDSr+tn9XRXO6lSiotC8Dxvp1iTlTHZGLOVoRmeB3jUTgggBCICIwlEEpiIxEgcE5GIJDCSwARFyarixCR46DholqI5iuHtFGunWDvFOWgO/n3RwhMFx5BKTnioxWo5WVVenYsXitnq2HPkVr+YuhXvA18+hhMAUjINe/+5lWuwV3yKVJMdU0oqIb2cu1ratVVUkG9Rh4il9qp9cuu7FPA8v3bHOQLDhlas5o6LFw3H8TTD0QxHMRzN8DTLOSiOZjma4RmWp+knLG2RCBubOIYIHJEEJvwglGAYwhAgDCEADAFCgl8xL8yPWY7nOJ7lgWV5jueFfzkOGJajaM5OcxTNFfs8IHAkIjGJCBcRSCLCxSJMTGJiEnNFBLlwWspt9z/AWz3qvebl1VuJOH8nt2Gkxjm/ZjY7vXjziWkfPVPp+ll8tvrm4o9rlfHqCKG+nevMXn24XMywC+cBw/KDU8veFc/zLMezLM+wPMNx+T+wPMvxDprjOJ7j4d/NUl4wyIJ1RAhwDGEIMOw/E4vjGIGDmCTclZhYhIlJ3LU6dPEiSEjN9XJXyKSFoy0qhqIMp0xKThtR4ie+i0dhOO5WbEYpGmbm2stlAGql9OsJMS6r6eJZICSsL+FVVKJ3UTWx2qhJ3/311bjOIf6Vc0xW1CqNJPCy5NurSFyGoQhwHGNZLivXXNkDceHChYtyYM32sy0bhlVirF1RhpNh2OSM0ih7uCiAwLB6UaVJnte2gVc5DkNnsI6auydL57KdLly4qNpYrI6MHNPgHg0rcb1UtHOQbdTcPVsW9q3YIZWYc7d1jaPcXYvOIuB5/vCZB9sPXl8yqau8kk4FXLhw4aJcqHSnjaIdalDxLnFOgctkFgNCqF2ziKZ1gm4+KM2BqwsXLlxUOtm55lNXEpzhbM4ZPVGfHwfFTt94e92+hHErbtxNNFX2cJ6C1UYt/P6fUjT8ct2t8h0JQuiDHo0a1wosCJJx4cKFi6pCRo5x7MJ9Doqp7IFAMYZTKiE+/6BVBQ6mxIhFeLifPCnLZrUz1fydUbeZ4bgrd9JK0TA5y/octUqGIMdmMNu/+v6Y0Vw+XrsuXLhw8aLJNVjHLPj9/a712zSpVtljgWIMp4gk6lYvk5xyBdCtha9KRgzoEEQQVXv1XGEopKIgH82oubtjk3JcS08XLlw4PyqFeN6YTu2bv1bZA8mnKGPDslx6trECB1Ma1ApyTM+wptFOqgFCYFh0qUJ63qj9vMplJQXHsf5d6o3u1+LH3y8/mcvNhQsXLpwEo9m+ac9FB8UQOF4tyKPSjzYLKMardvS8vT999V6xvTAse+x83OU7KRTjFBvQFQCOYZEhXp1fry6tjNz85QLLcjiOMSyXkJobFuDunKmXXLhwURZMVvqpkgNODstyh8482Lj7QufXIwd2rU/g5ZAkqxwpOuUeYrnic8ByHL/q19NaT/adLj4i0asik8Qw3K0HuQu+Pzx1eHsRWSV1i3AcE6ZHX2045q6W9Y+pWzvS9xV5+1y4eEW4nWBqEu2kKhRFYLY6LtxMXvRZlyBfTWWP5SmUwyLjbnwWLra90dhXLMZfnccuQWB1ojzq1VYeORtbRDWrnVry04lS9D9r050yjK4EaDXy1dN7xLSM3Lj7gsFkF1SaWbYSkua7cOHilYWimdiknJVbT6/dfpbnebVSOnVEW+e0msXlqpWQYwa0KLaLewnZ0RFur47JfJTaUdrd+zM7v1H9WRUYljt7LQkGlrjnBykVl+WHJPCWDcNbNgwXft35942/TtytHelb5zXfds0iEEI0w2IIYRh6Nd9lFy5clC80w9octNHscFBMWIA7QmjV1jN34rLaNAlv2zRCeM4489OmKMNJkniT2sHFdsGyHEE47yt8oRA49vItznp3rN2mcfiNBxk5eotQsnnvpT1HbvHA+3go10x/hyTwTXsubj94HQA8NLK1M3pKJeS2v65u/v0yAKgVkvWzeipk4t//ub1m+1lhBvb97F5qpfTQ6fvf/XRSuG8/zO2t1chPXIpbsOGYcJUf5vb21iov3kqZvuJvoWTl1O6h/u63YjMmLv5TKFk8sUtUmNfDZN0n8/cKJfM+7Vgvyj8lQ//x3D0MywHAlOFtWtQLycwxfTT7NwfNAsD4999o1zQi12AdPnOX1U4DwMfvNevSMspsdXw4fafJ4gCAId0b9u5Ym6KZIVO255nsAPBe5zqDujbgef79ydty9FYA6N6mxvDeTQBg2IydqVlGAOjY4rUxA14HgDELfn+QlAMAbzYInTS0NQB88e2fNx5kAECjmgGzRnUAgJkr/z5/MwUAakX4LBz/FgAs/P7Y8YtxAFAtULtscjcAWLbl5IFT9wEg0Fu9aloPHMfW7Ti35+gtAPDRKtfM6CEiiZ9+v7T1r2uCsN26mT1lEtHOv69v3H0RAJRy8YZZvZRy8f7jd1b9egYAJCJi49zeGqX0yNkHizefAAAMweb572o18tNXE+euPSLcxvWzevp7qa/cSZ2y7KBQsnxyt/BA7Z24zAnf/CGUfD3+rZoRPgmpuaPm7hE8I2aNat+oZmBqlmHk7N3CzZ/0Yas3G4Zl55pHzNplp1gAGDOgRccWkXqjbdiMnRY7DQAjejfp1qaG1UZ9MG2H0eIAgEFd67/XuS7NsIOnbM8z2gCgT8fag7s3BID3J2/LzrMAwNsto0a+1wwARs7+LTFdDwDtmlYb//6bADBu4b57CdkA0KJe8JThbQFg8pK/rt5LB4D6UX5zP+0EAHPWHDlzLREAosO8Fk3sAgCLNh0/eu4hAIT6u62c2gMAVv5y6o8T9wDA30u1evo7BI5t/O3CzkM3AMDTTb5uZk+xiNj6x5Wf9l8BADelZP2sXjKpaPfhG+t3XRD81TfM6aWSSw6cvLfs51MAICLxjXN6u6tlxy88XLjxeP63aV4fT3fF+etJM1cfFkrWzngn0Edz/V7apCUHhJIlX7z9Wojng8TsMV/tE0oWjO1UJ9IvKT3v4zm7BZe+GSPbNakdlJ5t/Gj2bzTDAcDEIW+2blxNp7cMn/mbzUEDwCf9mrtrvQxm27DpO802GgCG9Wzco11Nm53+cPoOvckOAP1j6vbvUp9lucFTtusMVgDo2a7mhz0bA8DQ6TvSsk0A8NYbkaP7tQCA0XP3xKXmAkDrRmETP2gFAJ99s/92XBYANK0dOH1kewCYvvzgxdupAFA30nf+2M4AsGD90ROXEwAgMsTjuy+6AsCabWdPXo5XKSRRYV7jBr0BACPfa0oSeFXxtCjKOYhluVyD1dNdUXQXO/++7u1PhQSoCkoe3IvN1eU9WsfXzycoJLAsA01MSJZIxN4+XgzD4jhGU/SdW3fr1K/9/D3Y7fb7d2Jr16tZlmEUguP4X39L++LD1s+qYLFR89cdnVdyjfJlux5+2jO8zAN04cLFK82527lV8YzTySnKvJutjs8W/VGKTo8ePL5h1aZV360f0OODtcu+37Bq0/kzl8owSACAfb/9efp/Z80m86fDJjAMq9cbFsxcXKIeMtOzxo/8oozDKClyqagUVhMAXFbThQsXLpyTYrxqaYYtRacjPv1wBHyYk63r9Hq35RsWyxVynuezMrLEUkl2ZnZoeAjwkJaabjAY/fx93bVuDMPm6XIlMmlKYoqPn7ebuxsAOOyOhPhEiUQSEOSP4/iAIe8RJJGSmHL9ys3MjExfX58la78WLpeXq89Mz/Ty8XLXugFATlaOUqVMSkwRS8QBgX5Prv15ntfl5GZlZCuU8oAgf5qiDXqjl4+nIAiTk53j7ePFcXxKUgrDsMEhgQRJOByUxWyxWq0EQXj7eDnz5rsLFy5cuHihVFAcBc/zH/QdiRByOKgfd66fPG4GQRISrz3uYwAAIABJREFUieTSucvfb12tdlMP6jnUy8dLLpfdvnl33U/Lg0ICP+z3sZ+/rz5Pr1Qplqz9Zs3SDUEhAclJqXm6vM3rfv7w4/cHvvPhoTP7jxz45+u5S6JrVr97+/7o8SNiunea+MkUjuOlUsm9uw/69HvnozFDC9m5H7//Zc+OfRGR4ZcvXOv5Xvd3+nTtHTPg4KnfpVLJuVPnt/zw65K133zx6VR9nl4iEVM0s3zD4nu3708eN4OiqLoN6ixeteD5X7jNQW/afVE4mykR87fcmzwgsqStXLhw4cLFi6YowymVEB/1aVpeV8rV5c1cMKVDTNvUlLQ69Wt/OnEkAMz4Yu6xIye69YzJSM/8YfvagED/b+Z899e+Q53fbm8ymKZtWqpxU//6406aohmGYVl2yIiBB/b9/fn0cTnZOoeDoil61uQFG35e+VpURPzDxH7dB7ft1IpyUG07tf7go0F3b90b9cG4EZ9++Kjh5Hk+J0u3etNSH1/vC2cvzfpy/sgxQ6NqRB49eCyme6edv+7p+k7M338ctlqsP2xbixCa/vmcXVv31KgdlZOtO3r+T5VaVeSrLAzNsMcvxpXCcN5OcPacTS5cvNwUaFdl5BhtdgYAJGLC11MFABk5JpudFtx//L3VAJCVa7ZYKQAgCSzARwMAOXlmk4USQtcCfTQAoNNbjGYHAGAYCvLVIITyjFa90S6UBPqoMQwzmGy5BhsAIAwFeqtxHDOa7Tq9FQAQAn9vNUngZqsjO9eSX+KlJkncaqMy/1Xb9fdWiUjC5qAzsk0AkKEz2R1KiZh0UExaVv5TxdtDIZOIaJpNyTQIJV7ucrlMzLBccnq+BrOHm0wplzAsm5JhEDxh3DUytULCslxypp7nAADcVFKNSspxfHKGXkhDplZK3NUyjuNSs4wMwxWU8DyfmmkQnJgUMpHgOmOz0xIxURU38IoynCKSeLNhWLldiSCiakYCgJ+/b3hE6JjhE1OSUrMys98b1BsAVGqVf4AfAHh4eaSnZYS/Fl6nQe32zbpE1azef/C7IvHTJSSzMrN5no+oXg0AQsKCpFJJanIaIIiqEQkAajc1y3GFvJ8QQm+/89bKb9fF3o81mywMwwBAr349tm/Z1br9m1cuXJv99bTli1ZfuXTt7Ta9BHtPUVSN2lHBoYFKlbK87oYLFy6ck2v30k5dSbhxPyPAWz1lRFsA2Pn3zXvxWQAQGeopOJfuP37n2t00AAjxd58w+E0AOHDy3oUbyQDg66maPLwNABw99/DEpXgAcFPLZo/uAAAnLsULYd9KuXjup50QgnPXk/84fgcAZFLR7NEdxCLs8p3U3w7dFIz0jI/bK2Tim7EZW/+4KoQ5TPuorZtKdj8h54fdFwCAIPAvh7b20iriU3PXbDsrmNsvPmjl761OyTAs23ISAMyUqE64KsTPLVNn+nbz/4TXOKpv8+phXnkmW0HJsF5Nakf6WqyOgpJB3Ro0qhlos9NLfzopuEy/27nO6/VDHRSzausZYd7QtU2N9s0iKJpZu+OcyWwHgE6vR8a0jGJZfsOu87l6KwC0aVKtR7uaHMdv2nspM8cEAM3rhfR9qy4ATF12IDFdHxGk7fh6ZKtGVcmroyjDyXGcwWx3U8nK5Uo4juEEDgD/O3pq+eI1i1bMj4yOWDjrW+B5AMDxx5InUA7HyDFDJ8/67PSJczO+mBsU+nSPXJlcSjkoh8MhkUgoirJYrDKZDACECz1VqNNqtQ15d8SkGRMmTP40IS7xizHTAKBV2zcWzFi09ccdb7ZpoVQqlCpl737vTJw6FiGUkZ6JY1hSYopIJCrFzAhDKNBHXdJWAFCnWmlaVS1ohiVwDCFksTqEeA8A8PNSkQRutVPCnBoAfD2VIpKwO+iCObW3ViERkxTNpGfna8l5usuFGXTav9mVPd3kMqmIZtj0bKMwd9JqZAqZmGHZ9GyTMDt2U0lVCgnLcmnZRqFEo5SolVJhdsxyvJBdWvgKpGYahMeHUi52Vz9WopCJtBo5AKRnGymaFSJwhDl1Zo7JTuUvVry1SmFpIjx0JCLC20MJADl5FouNEpYvwoJGp7eY85cvuK+nEiGUa7AKYTM4jvl5KjEM0xttBrMdAHAM+XmpMAwzmu1CLAeGIT9PFY5jFMUghEjSudKVOSEcx2XqzD4eSoRQbJLOx0PZsUVkQfT96H7NC9Uf2rNxoZJBXRsM6trg0ZI+ner06VTn0ZLubWt2b/uYV3+n1yM7vf7YiUzrxtVaN35MAKR53ZDmdUMeLakf7V8/2v/RkhrVfJZP6f5oSUSwh1By7nZuiJ8bAAT5uhWq4+WuKFSiVkoLlSjlku8mdX20RCYVfT0h5tESiZic/7gLJEniQghWATiOTR3RFh5n8edvm62Oe/HZJIELQQr7j99uUS/EXS1z8mVoUYbTZHFM+Hr/xrl9yveS+jy9Uin38va8eO7K77v+EFachYh7mDB+5KTl6xcFhwZJpVKCyB8njuMWi/X8mUth1UIAQOOmadC43rfzl/Ub/O6uX/eGVQv18SsmozrloOw2e0CQv8loWrJwBeWgAIAgiTYdWq5YvGbTjnUA0DGm3QfvfdTizaYentoJo778eOxwb1+v0r1YhUz8zWddStFw4nvOogNQ7qRkGvYevXXjQUZmjun7Ob3d1bJ7iTnrd5wT/jrnkw4eboqE1LzlP58SSqaMaBvgrU7JNCzelD8XnjikZVigNktnWfj9MWFH4ZN+LaKreecarIt+OC4Ys+G9m9SL8jeaHYs3naBoRni0NasbbLFR324+YXfQQqRmy0bhDppZ+tNJwXR1a1Oj0+uRDMst+/m0yWIHgM5vRHZtXQMAVm49LZilNo3De3eqAwAbdp3PEGbQdYMHdm0gBLwmpuUBQINo/6G9mgDAL39euZ+QAwA1q/mM6tccAHYdunH9XjoAVAvSThjcEgB+P3ZbWKwE+Wq+HNZGWL6cvJwAAD4eyqkj2uI4OnouVlisaDWyGSPbYxicuBz/5//uClthMz9uLxFj564n/Xb4pvBomzO6g0wq+ufCwzXbznppFbUifIb1aiIWVcnckC+au/FZK345zbLcyqk9EIKe7WtV9oheIRQycYMaAcLPLMulZ5uGz9zVsmHY+90bqhWSyh7dMykqjtNotn8067ctC98rOij1yThOAbPZsvLbtWO/GCUWi3meX/rNqiHDB6g1aoZhVi9Zf/vG3cjoiCbNGyXEJb7VrdPGNZvHTfoEAM6cPG/UGzvEtD3819Hff/uT5/me73Vv1e6NA/sPabXuDZvW/3HDzw8fxI+b9Mnm9VvGTfrEZrV9v3rzzeu3IyKrDRs1RKVWblr3U+v2LYNDgwwG4w9rfvp04khh/Lm6vC0bf/3ks4+OHT6xc+tujUb9znvdjhw8Nubzj8Vi8cWzlyePn3Hw1O8IIZ7nb1y99fOmbRazpfPbHd7q1jE5MeXwgX8++GhQoddYbBynCwGO4+8lZHtrFe5qWXKG/tKt1DqRPoG+brgrG9GLhOd54fzpQWKOkATq3PUkqZioUc1HyFTs4s7DzAUb/hnVt3mjmgFVJfq+RFStOE6e5612+rdDN9s2rebnVTKHkoqkKMNptdMfTtv+w9w+EnFRyfWfZTirENmZ2Su/WxccGjRkRMmS4xVrOBPT8q7cSS20P/M8LN72YMK7ESVt5ZzceJCxdttZB818ObR1WOCLkktz8Tycv5H0w+6LHMd/9G7TelH+z9Hi5YTneQfFSMQky3Icz5PES7ubXbUM56PwPH/o9INGtQLdVNLKHkthitq6kYjwYb2aFDsLwxBi2aot6zh14myJRPL5tHElbchxPFbkgun01USrjSrFkK480JeilRPCsOz2A9cGdq3/ss7oqxaNawU1qhl45U5qVm7FJUN2NliW237w2pU7aXM/aS+UUFR+wDqGYQUHQ6WDYRiEEP6vDBbP8zRNi0RPd298KqVo8rJic9AjZu2aM7pDZGgpD8teEEU9yDAMa9Okmqg4z4KwQO2DBEN5D6xCWfvj8qXrvpHJS+wGdT9eH/7sJRTHcUfOPnijQWiZB1gleZCYw7IcgeNzPunYpHaQy2o6CQih+tEBHVtEAkBCaq6QwfXVgeO4NdvPnr2WNHVE26lTp0Y9zpw5c8rY/4oVK3744QeGYTZv3uxwOHQ6Xbt27UrUQ0ZGRufOncs4jJcAhFC3NjUmD2szbfnfzjbPK/5ZFpes0/3r8fhUakZ452Shm/d0DFs49uMlhuP4xFTTPyez3nrzmdIoepM9MsQzItijFP1HBVfhrW+O43796+rMVYfMVkfRNY1GY48ePex2e6mvdfny5ZycnEdLKIpas2ZNmzZtmjRp8v777z948KDUnRcMsl+/ftwj2rQWi2XgwIE2m63Ytunp6R988EEZB/DiIEl8zbazm/ZcfPm0Cp6F3cEghBaOf0ulkMydO/fmzZvnz5/X6/UnTpy4efPm1KlThWqPPsq4J2SJC5XwPF9Qv1evXjExMVardc6cOSzLqtXqpUuXPlqzUFePthVgWTY5OfnRaxX9XH2yh0dLqvozuU6k7/rZvTzd5JU9kMco6oxT4LfDN05fTVwwtnMRxwAOitl9+EZsStbzCF+XOxY7L5dUtIMJQsjPQ9O7Q1210nldvyoFnuc37Dp/7V763E86aoo7nMjNzY2IiEhKSpLLS/nFaNCgwS+//BIZme/Tz3Hc2LFjExMT582b5+bmtnv37uXLl587d06jKb2wn06nq1+/fnx8fMGi2Wg01qtX79q1awpFMRII8fHxMTExt2/fLvXVXzQmi33mykPN6gb36lACyYSXCYvFEhwcfP/+fXd3dwAYPXq0SqU6evTozp07T5w4sWXLltzc3JCQkGXLlhEEMWXKFLVafejQoerVq3/33XdarXb58uW7d+8WiUR9+/YdMmTI5s2bZTLZhQsXVq5c2b179xUrVowePfrnn3/OzMz88ssv79+/HxAQMHfu3GrVqk2fPt3T03P79u04js+YMaN163xXiZSUlDZt2ty/f//u3buzZs1KT08HgOnTp0dHR48fP/7HH38kCCIlJWX+/PnLly//66+/li9fTlFU7969P/roo/j4+OXLlyckJHh5ec2YMWPs2LFxSRmvhQUsWLAgJCSkuDvh1GTnmVmW9/FwjmB6vjgYhp2z5vD8dUdohim2cqVw9raOZdnKHsVjZOlM/5yLrexRVA4cx126lWKzU89TWafTubu7m83mrKysxYsXL1u2rHfv3osWLXI4HLm5uQsXLly9evWAAQNWrFhBUZRer58+fbrQ8Pjx47t27dq/f7+Hh8f777+flZUllMfGxvr6+ubk5BQM5uuvv37w4AHHcTt27Bg4cODHH398/fp1juNOnjz5yy+/fPbZZ3379t27dy/DMAsWLEhKSuJ5nmXZ+fPnp6WlCZ3k5OQEBgZu2rRpwIABS5cutdvtBoMhLCzMZDLZ7fbly5f369dv4sSJQn2Hw7FmzZp333133LhxaWlpcXFxUVFRPM8nJCRMmjRJp9O9mLteJiiKsVgdlT2KF861e2k7Dl57stxsNmu12oK3Jjo6etSoUefOnYuLi6tfv35ycrLZbO7fv/+iRYsyMjI0Gs2mTZuMRmP//v3nzp0bGxtbu3Ztg8GQkpISExNjNBqnT5/+zTffZGVlhYaG5uTkZGRkBAcHcxzXtWvXb7/91mKxbNu2rX79+jRNd+vWrVevXrm5ubt27apbty5N08IAkpOTIyIiOI7r1q3bzp07bTbbzp07mzRpwjDMG2+8cfz4cZ7nv/7665kzZ968ebNWrVoPHz7U6XSdO3fevXv31atXpVLpjh07bt68OWbMmKVLl/7vStrq1auXLFlSsTe7/Dl5OX7w5G3P+WB50RS/VYvj2OdDWob4uwsR4k6IU0UzcBx3/MLDUfP2WO2l8QkqYPlvD8tvUBWHg6IRQvWj/Yv2xH4S4YnDsuznn3++bdu23bt3m83mefPmCcbywIED69ats1gsW7ZsEerfunXr9OnTDRs29PDw6NWrl0qVv7N96dKlGjVqCEsHYWNg4sSJ1apV27Nnz+LFi8eOHdupU6cePXqkpaXdunVr4sSJbdq0GTRo0EcffZSZmWkymYT+k5KStm7d6ubmVjA8i8Vy69atyZMnnzx5cvHi/2R55syZc+bMmSlTpoSFhXXr1s1msy1btmz//v0zZswIDQ0dPHiwsKOTkpLSp0+f5s2bP9qn80CSuEwqYlnuTlxmZY/lRWG2Or5a/0/15/MxGTJkSOPGjUNCQv7888+bN29u2LDh4cOHeXl5ACAWi/v3769UKlu1apWenq7ValmWHTp06KFDhzZu3KhU5q+HRCIRhmFSaf6OS15e3qVLl0aPHi2TyXr27Gm1WuPj4wGgb9++bm5uLVu2NJlMNE0/OgaE0NatW/38/LZu3XrgwAG9Xo9h2MCBA7ds2cJx3M6dO999990DBw5oNJq9e/du3rxZrVb/8ccfABASEtKjR48aNWo0bNhw6dKla5cvEKYCL+CmVijN6wbXre67fuc5Z9h8fi5/DZGI6PtWXRFJcBy3dMvJ/cfvPEzWFTiLGkw2vcmmN9kKTIXBbM8v+beO8d8Sy7+HXiaLQygpOAYzWwuXWGyUUGKyOISbZf23xGix55fYabOVMpgdRnN+ic1BC3UMJlt+ib1wif3fOnqjTTiucFD/lpjySyiKKSgRToAo+r8ShmWF3DfCrzl5FppmAeDcjeTdR24tGNu58xvPPPt8Hs7dzi1L80rhXnzWuK/3l/pj7eHhMWrUqIYNG8bExMTGxgKAp6fnhAkTIiIivvjii19//fXJJt7e3hKJJCIiQiwWCyUURYnF4idjQ3/66afJkyfXr1+/S5cu7du337dvHwC0bdu2c+fOHTt2DA8PT01N7d+//86dOzmO27p1a58+fSSS/zbhZTLZ7Nmzo6KiZsyYIdQRrrVjx46vvvoqOjp6+PDhOI5fu3Zt27ZtM2bMiIqKGjVq1IoVKwBAr9d37tx5wIABXbp0ceagVQfFzFl9REjO8JLB8/ymPRffbBhao1oxCVKE5KCC/UtKSmrduvWBAwe0Wm2TJk2Ev0okEsHtVti3V6vVx44di4mJOXDgQNOmTRMTn+5pJRhFwdUWwzCSJK1WKwAUnFA8+cHgOG7w4MELFy60WCwdOuRn4enVq9exY8dOnDihVCojIyNtNptWq/Xx8fHx8enSpcvAgQMBQKVSCRfq27fv9u3b5TL5p59+OmbMGGewN2UBITSiT1O9yS6k4qpcSuZ4jRBqXjf49JXEAyfvtW1arUfbmgDw5ZIDQuqvLi2r932rHgDMWnVIyI7Wpkn4h+80BoAFG/5JStcLEu0fv9ccAL778YQg2t4g2l+QcV/165lr99IBoEa41+ThbYXMLOdvJAs5VmZ+3B4Aftp3+X+X4gEgyEcz99OOOI52HLy+/1SSCNm9tYqF498iCXzfP7f3/nNbkGj/9ou3RSTx9+n72w9eF9Qxl33ZVSImj1+M+/H3ywBA4NjqaT1kUtHZ68nr/k1es3paD5VCcuVu6rKfTwsl333xtpe74s7DrK9/yJdx/2pc50AfTVxy7uw1h4V+po9sFx6obVIrsGntIGd+Pr4gaJqdt+7oJ/1blPq1KxQKkiSFJ5fwJddoNEKJUqk0mx9zq2PZpwveRUVFxcbGUhRV4M2/cePGmjVr5ubmCstQhJC7u7tOp/P09BQOPoXgAY7joqKi1Gr1+fPnd+7cuWPHjke7ValUQocqlcpmy59a0TTtcDiEhyxCSKPR6HQ6q9UqLCsxDAsLC0tKSrJYLEOHDt28efOQIUOKPROtRGRS0ZQRbeavO7p+Vi+Z9GWLhWhUM7DWaz4l+nCeOnUqLCxsyZIldrt906ZNDRs2fLLOlStXFi1a9OOPPw4aNKhNmzZ3794VyhFCLMsWfEq1Wm1AQMBff/0VExNz5coVvV4fEVFMlHZeXt7Ro0cfPHigVqtXrFghbOS6ubk1a9ZsypQpQ4cORQg1a9Zs3759MTExSqVy+vTpFoulSZMmBa9xwoQJ7du3/2DkxBFDeg8ZMoTjuIIgmSqKRExO+6hkLsoviBIbzkY1AxvVfCxz7KppPQpV+/bztwuVLBhb2Lt6+sjCr//zD1oVKhkz4PVCJSP6NB3xuGDL+90aVI8IaRzlXvBxeTJFZLc2Nbq1qfFoSccWkYI7fgEtG4a1fDyjfZPawT/XDn60pE51v58X9n20JDLUs1BJeQVdhPk5lxdZsew/fqdWhE/Df7NnlQtJSUkpKSn+/v4nTpxo0KCBSCSy2+1Go1GhUFy+fFkwhBiGPWpEa9Wq5ebmtnHjxmHDhmEYdvv27enTp//111916tQ5duxY8+bNaZo+derU+PHjMzIyCl0OITRo0KBZs2Z5e3uHhj4WRJSVlRUXF1etWrUTJ07UqlVLWHNIpdKgoKAzZ8507tw5Ly/vzp071atXr1GjxpkzZ8LDw7Oysjp37rxlyxZ/f/9Zs2YlJSXNnz9/3rx5zjypig73btcs4kFiTp3qfpU9lvIEIdSkdlARFVQqVcH7olQqBQPTpk2b5cuXx8TEYBhWvXr1zMxMDMMKDgVEIpFUKq1Ro4ZcLn/99ddFIlFwcPCbb755+fJlsVgslUojIyNbtGhx4MABlUpFEMTatWtHjhz57bff6vX6devWSaVSuVxesHh9dAAIIaVS6ebm1r9//44dO/r6+gYHB0ulUrvdLpPJBg0a1LNnz+7duwNAq1atunTp0rp1a4VCoVarhWP1gsnZwIEDhw0bRkjUHGWaOXPmSxMPRjOsyeIQ8kVXGpV9yFoOnL2lEzy2XVQiDoq22ErsYFLgHBQbG1ujRg2hcO7cuXPmzElKStJqtR06dOjbt2+jRo3i4uI4jhs6dGi9evU6d+7crl27CRMm8Dw/ePDgWrVq3b9/v6DPu3fvNm3atHHjxh06dAgPD9+0aRPP82lpac2bN+/Vq1erVq0GDRpE0/TatWv/z95ZB7SRdAF8duMJSYAAwd29FGhpqbtB7epuV7u6u7u729XdjTptgVIopUWKu0MSiCe7+/2RfhxHKQQIhHD8/indzM68JJt5M2+ezJkzR3FLp06dQkNDMQzjcDg6OjqXL1+uKGRRUZG1tXXv3r1HjRrVunXr2NjYcuegkJAQT0/PMWPGeHt7b926FUXRmJgYb2/vsWPH+vr6njt3rtw5KC8vz9raOiQkpN6fdAu1o6C4LPRret3ulcvlxcU1+x6WlpZyOJxKsxCCIEKhsOIVFEWLi4vLnYBqBEVRLpcrFosrXrx3796kSZMqjiWRSH4dXXG7VCp79iFRJBI3pxny64+cvzbfVe87qjkcpSkjkSLPPxek5AjM2VRvB20zA7WuQf6rKB6hum2kUBQtKSlhsVgoivJ4PMUmUiAQKCJVunXrFhERkZmZaWlpqah7I5fLMzIycDgcm82Wy+VaWloSiSQ7O9vU1LRiphWZTJaVlSUQCMzNzel0ukI2iUSSkZFBJBJNTU1xOJxIJEIQRLE853K5NBqNQCAodKdii1BRSC6XSyKRsrKyTE1NaTQaiqIcDkdXVxeCID6fn5GRoaury2azFQMJhcL09HQWi2VgYIAgSPn74vF4eDy+zoE3jQaGYbwyMZNObsqbY+U5eyccw8CkwT7qFkQFzJo1Kygo6NatW25uNWeiF4rlM/ZEcfkyCgm/7U9nS8Om/uApCYqiY5df2z6/j6LuqVrQbMWJYdjGC/HB0SV0Ku7s0tZMrdp5cjZlTjxInTZAM1IOCUTSvReCl03pjFfpCUpmZma3bt0SEhJU2GcLyiCVySesvH5o5UA1W8NUgRxBJq68sWNhX0W9Nk0nMTGRwWCw2TW7OCk4/zT9YlBWBzfd1eMdm8cySMGZ2+FEAm7MAC91CaDZVm8IgkZ2M4NhENjeuDlpTQDAu69FSrRqEgRHpOJwsGq1psKl9vz586rtswVlIBLwfh4Wr8I0MiCqErwyiTaDbKDbdH2yaoWdnZ3yWhMAMKCdoY4WYXQPs+akNQEAQ3q69evkpEYBNL4+n40xtV8bdmB7Q3UL8t/l2YeE8YGtlWhYO8hksp+fn8q7bUEZevjZ7b/4fmhPja9MydKmHlgeqFq1kZ7DufMyulQgAkADzHV6FOTSg5KmLyoEwfYW7IFdXUjEmrdAai/VqfGKE4bhGQOt8bhmtZ4CAJjqN7lKOlWCoqijlb6rXcvCpVlhZ6G3cEJHdUuhGlSrNfOLy47dfDtyoI02g9jMtnHqBUHQmETO4Ssf54/rqMwHG5ucr6dDU5ctQbPPOFtooRrkCBKXXBCXUiCWqD9iunZAwECH1trFVL+52BjVxaWHkf06OtWYM1l5Tt0M8/AkGepr/Olv0+Ta/aRRvfyVKWF96PJHSxOd/moy2Gr8jrMF9VIfl9oGJa+o9NjF1440nrspkULTsLN8DID8Qvm5M59MHF1H9PVUSwReMVfAKxNreuHxR+/i65nDqxIFJXy2ntqcOZs9ujokXplIGcVprE/PKyprFKGqoEVxNlEuPMsY16u6kO0mwuErH31czaqPLm98eHzxoVOP/2qH06Zq6o7NRBvfygx7/SP2yiNs9ADVHyHXSFJG8ZPgH+tm9Wj8oVWIUCSlUVTqNgg1xWViswGClE0+rsukpuVwGlyg36BhK/H/Ds/DNSPddkYul9b00rPdevZ1pDvQpmp2gjEIgro4UPISYvKL1bCyNmBpNbXqwXVAX1ermnqIqgVBkNLSstLSsrJSPiKvOiVk9chkMpGo7rVp64xIJJbJZHKZXCSsucRsRepwi6po62E+ZYivWoZuUZwt1JdSvrgJViTNSku3NWhy6rwOQBDU2ZYQ+jWj8YdmapFLBWqYxFULU4vcaIbulKQ0T+u2ffwDe/sHtHVXhfnqAAAgAElEQVTtvHTOKqm06hJJJw6eyc7M+fX6o7tP1yze2PCSVmblgnVPHwa9fxuyfP4aZdpnZWafOHQGABD85uPKhesaXsAqIJMIDPX51raYapsobJ0mp42qhEohkohN7imC5WIANNVIWwlDJv5LsaDxx2Vqkbcv6Nv446qW2JSCxhzO1NzkRegjPB7P5XCH9x/78V1Y5+4dFC/JZDJFxQIAwK2rd3v07Vp+l1wur5ipSrF5rTIhO4IgMAxXtBX/egVF0fK1glwux+FwEAQpyhJUXEPI5QgMQxWv+HXwbeX922LmiozQCqniYxK+RkQDANp1aOPl46looEjyV0nsX8VTFcVcQSFHoGSdOJXT5Ka8FhTsnOGqbhGUYtei/k3kxAfDsJyC0m+JeaUCcXK++HakJrmLE/CQrT7BzoD4a2AVBAG1lMLF4WATA2bjj6vpQADAMEShkqk0KolMwjDs2IHTzx4GyaQyBEUPntr9OSwyPTVjwcxlx84fyMnOXbd0MyJHKFTyrsNbAQBJCckjAsblZOW5t3LdfWQbifTTcDJ32mKmNvPTx3CBQLho5dyAIf2yMrKXz19TUsyFcfCiFXM6d++4fvkWTgnn3asPuw5vPXv8grmleUhwKB6PnzRj3OVz1wvyC5evWxQ4tH/0l++bV2+XymRFBcUTpo2ZNH2cYojwkIiHd54MHTVo48ptigcvJztv58HNVraWKxesFwgERQXFPft1m7d09sFdRzPSMg/vPe7u6fr4/vOte9c/uf/8wM4jMA42NDbcvHstg0GfMnqWoRH7a2Q0noDfe2yHs6sqXbQAAInpRUEhieoqlqLZinPVqlXu7u7Dhg0Ti8V9+vS5ceOGnp7ekydPHj9+fPDgQXVLVy9guGmoo5poInJKpPJjV97juRne5ngLMs69p4bN+BI5Fpsruf2FP86PYabTJHJgyREkPqVQ0yN023laKNFKZeRm5/3RbwyAQFFBkb2TvXcbr+KikoiwyEt3zlBp1G3rdt+98WDxqnnnjv+958g2A7b++KFTl61b1Kmb/43Ld+7eeGBhZV5cWHzr2RU6XWtA16E/YhPcW/1cQHM5XJae7qM3tz+HRa5evKFfYO+1Szf1G9hnxNihCfFJk0fOePDqRimvVCqVPQ2+y2Ay1i7d2L131w07Vi+Zs/Lx/ec3Hl8KD/m8d/uhgCH9Htx5PH3u1C49OqYkpY4dMmX0xOGKISQSKY/L827jde/FdQzDjh04FRUR7dehzcUzV/sF9ho+diinhNuz/YCZ86b9tWjGnWv3Zs3/88XT1zwuLy8nf9Pq7dcf/m1sanTi0Jkta3Zs2bP+R2zC2Ekjdx3ecnjP8QunLm/bt6Exv4iGRrMVZ0BAAIvFUlRwnD9/viJht4uLS3kdds3lysvMkd3MlGioZu6+jOnW1oZOU6dhWS5H9p192duE4+BM01yPR0dDotAF3RPEmdaRaUBX/w9TLJFvOPbi+u4x6hakXqz6s1tjDqdnwNq2fyMejysp4mxas+P8yYuTZ4xfuWHJlQs3UpPSwkMj/Du3K29cWFDE4XDbd2oLQdAfowZhGHb/1qPWbb30DfQAAOZWZjwur2LnHbv64/A4azsriUQqEAjiYxMOnNwFQZC9o62JmXFCfJKijYGhgcJk2rVnJxwONjUztrQyJ5GIZhamAr4QRdF5S2YFPXm9de3O1OR0qVSKIOivb+TujQdBj19duHWKSCSOnjj8zYvgXZv3p6dmiIQiqaTywW1cTLyzq6OxqREEQQFD+l08c1UuR/B4vH+XdjAMOzjbx8X8UPlHDUGQGn/smu0c5Ovra2Njo1CcAQEBZDIZAGBubu7vX7mQp8bxKKRytcimyf3XMUKRTL0yRMZmW+PzHQ01PpMLlQhPas+8FclvImlJNPvTVAcEAsHG1srW3sa3nfeocX+8eRGclpI+dugUMpk0bMyQ/oP+VZaYRCICDChOHwV8gUK74HE/10zQLx8/kVTR3w0CGEDQnzpPLvuZ4oNG+5mZAYZhGPdzeq9wgIqhKDbvzyWhHz6179xu0ap5v44CAAj7GH5oz/EDp3ZpadEAANvW7b519a6Xj+fi1fNpWjTsl+x9MIyTy38KgCCI4h3hCXhcQ7pludkbTv93bebGRLMVZwstAAA+fU3paKcZGQprxIiJKxOr40izmbLqwLPGHE4mk6UmpyUnpkaGR924cqdNO+/kxFR9A70hIweZmpsEPX0tk8kUSiUnO09LS8vCyvzxvWdCgfDCqctXzl9XfiAKlezdptX5ExcFfGHI+7C83HwnFwdlbpRKpTHRsWMnjfD1a/3q2Ru5XI6h/9pxJsYnLZixbP32VVQqpaS4RCgURYZHDR4e6N/ZL/LTl1JeKSJHCAQ8l8srK/0ZJeXq4ZwQn/QtKkbAF5w7cbFdhzZ4QoObTKhkop6O2gqlqd8i1EKV6DFJ6hZBKRhaZEgdx5wYhuUVlRWU8FEUS8ksTtOSQSWakVcPAkBPC2fExFW5P4YgCA8DDFP/do9CImyd10eJhk2ayLhslfeJYViV3x2FQjYyNlw2bw0AgEqj9u7XfdzU0QiCPn/0YsqomSw93RFjhiQnpgIARowdumXNjkOn9+w6vGX7+t3XL902NjFavXnpt6gYS+ufuURs7a0ZzH8S6Ng52NIZWgAAAgHv5uEMw/DabSu3r989edQMMpl06PQeBpNhaW2hw9IBAAAAubg7KyrUGpsYKbaqJDLJ2c2JQiEvXj1/3bItunq6rX0823fyEwiEVjYWuro6JDLJ2s46IjzK2MTw8J7jKIIAAAYND1y0cu6h3cduX73n6OIwaFggj8tzb+UKQdC+7Yf7BPS0sbVi6enuP7Fz1+Z9YrHE1t565cYlOBzs5umi2PJq62hb26q+QiK3VFTME9qoKbNVS67aJopUhhAJGhC/L5XJCfiqdUDDkZRRdOn2ewOYZ8yAmoh3kvJgGMgvlWdy5INaaTkbVbE82hPEmdtNG/f/91UsQB4WmE/7o02jS9oc6DvjzOOjk1TY4aHLHzp1YGgzarGuxTBMEV5S/jPBMAxFMRiGIAj69dXa9gzDcG1jVREEgSBI+bsqxqIo+DW+BcMwRI7g6jcb3HmaEuDva2miW2PL0K/pLV61LVRGI7SmonZjI48Yn1pw68azv9pTaCQNdgETy9ATwTyZHPMwa6IBu3I5kppdYmehr25B6kVrZxPVdti7vcOVpx/HDLbH45XVOhAEVQrThCAI9/+4o19fVZ4631tlkGit2v+qdCEIqqeFNr9IWFwMzAw1IBVwc1Cc31N5LpYMTXcMqcTtd9mDO6r4N98QPH4X18nHptGy7iEIeu3O+zntKVSSZh/Pkwnw9I7au56XOBqRSPim+OiKpfJVB59f2zVa3YLUi41/9VJthzbmrJ5tPM9e/YYAWVP82jQYSJvKmD+mEw5XixVJA4v0W5qD4hSKkd+dOmgut9/laITivPn8W2tn00ZTnBl5XDNSKZVUc/GEpg8RD3mYkn7kSd1Nm+p5dss5zi9AENTG3bypVTX4HcnZfBuTZpJCqxJu9kaWJjrqGl2zl+3lNDOt2cLvyMjlWus3ifwAKsFKn5BZouZgnubNhqMv1C2COiniVZ0stxlAoxAN9dS2gG4OO85mibaWZuQop1FJjeBViyBoblEZXyjJyOUSePKEfI2ZDvA4YMjAU4lVr1DxMIQ01U0dmYRfO1Oza4oBAEKj1ZAfv4VGoJQv5vHF6joQbVGcTZSdM1zULYJSbJ/fh0xqwKcIw7CQqPRnL8LNqEImCaJAAMDQjzyNUZxSBEsv5jMpuNFt6GSCJhl48Dicsw1b3VK00ELVxCbnt3jV1otmGVFDaUhtpEKoDXm6iWHYo7dxed8/Le1Ex8FNwoeWxxcUc8usTQ1/ppUvLMnILTRl65myWdWcF8TnSfa84CzorqNBuhNB0OwCnrmR2o6RVIKrbYvub0H1aMzPuEoU4VAYgFAUa2bq82FIrrpFUIqXoUlCUUPt/wqK+THh4aPb0HFNI1hTJJZM23D474evFf+98uTd0IXbrj9/P2zx9rP3XlZzo6Mhqa8r7W5UU8mlpwwiiWzx7sfqlqK+7FjYT90itNBwtHjV1gmpHF17Ji67SEwj4+YOtXGyaA7Olgquvszq72ekbilq5tLDSFdbdgPtO1+EJAS4kuCaPL9QDMvMKxSJpVYmbBKRAAAoE4iy8ot0mXQ2SxsAwCnlk0nE3MISDMMsTdgAw/JLeEZ6Oorw89wiDpulLZXK03LzaWSyCZtVZY7NuJTMiWv2yxHU2dpMsWjbf+nBhc3zHSxNEtKzA+ZsmhjYrZpNp7spKShWiKAArxkBugC0eNW20IRxtmGrseydZitOEgHnYcOMSODZmdLsTJun1/V/mazckkCPGnxoMQxbuOv01x+pRvq6+cXcW7uXJWflTd94xNnGLDE9Z1TfTjOH991w/GpCWjaFTMrIK2zn4bRrwcQBf228tWeZpTE7KSN34tr9d/euHL5kh6WxQX4J19KYfXDZtF9VoFgqO7j8z/dfYkv5QsWVR4fW6DK1FHqaTKph6QBDEJUISRHs14qbLTQcO868WTKps7qlUAOFXMnLyMKMPGFKjqB/O0M6tfn4oitgaJEZWmpLHqLZploAQP92hrp0wtie5nilw2Y1Ak150ClkQsPZSxAEIdSkZj7HJH34EvfkyLqLWxb06+Adn5a1eM/ZzX+NObdx3sNDaw5eeZiVXySTyR2tTG/uXvbi+MbbLz/yReK+/q3vvAwFAFx7/j6wc5sf6dkYALsWTrq9Z7mXo7VMjvw6UCtHax8Xu3JpIAjS02HAMFxQwpuz7cTi8YNqjImCIEiDtnBkEmH51K7qlqK+vAlPUbcI6oFJI7yKLAyKKAyNK6GRNcjKoSwCkTS3sFRdo6tgx4lh2NvPKS/DkgGkHtVlyMA/eh35+E3jjYhhGAkPj+nfysq05pyKdWPndM3wqt0yr49WY2U/qJKYlIxWjtYKC+38sYECkTgrv8jX1R4AoE2n2VuY/EjPAQC421sCABhaVAIeL5cjI3p3nLnl6PRhfR68/XRj51I9HYa5oV6rYXNbO9tOG9KLoLQ5NTU7f+SyXWP7dR7Zp2MDvUGpHCOqw6UIj4M9HY0bf9wWVAKRAA/rYrL9csKobma1zWSrEXxLyNVsr9pnHxISsrgThneo8SyqOSGWyE7cCpnxh6+5UYMEEmlpyI6TqT5riQIWg87lCxR/h0TH4yAYj8fxhWImnYZhGKe0TItCrphsU/GQOlqbEvD4a0+DjfV0TA31SvnCjbNGa1EpL0Kjpm86EnRio61ZzQfMMUkZo5bvWj9z1MAuDVgX8Hu2xNHDoOH6/x0oihWW8Nl6TcKZuc7Yqql6xq+Ef8+8+zoKwPLGnCZdLPUfvHn34E1jGzpQBDLV1580yJdM0ox5rLaoQHG+jUibMvK/pTUVhqzBvb3uv4mdPbKdEs1rTdDngh7eapgua0twRGprFxMqWW2bzg5ezssPXngU/NnS2GDhrjN7F00O7Nxm9eGLK6cOe/P5u0AkcbOz+PUuHAyP6ttpxcEL+5dMhSEoOiFtyd6zp9fPsbMwplJIOBj+lpj+JT553IDf2iqlMtmENfvauNkjcvTWi484GB7QyVf5NJtKIpGhYXmkVSPUkHxRKJbO2XZf03PVHlgRqG4RAAAgp6D0QXDklFEOyqeGVwkIguFwaphGMAyLS+JceBAxbajaak03KKpwDqp9UZvmAUuHxuGJGqjz80/TNUJxnr0Tbm+hp0bFqc3Qur1n+aGrj7ilgtXThvu62Xs52Zy8/Xz14UsmBqwHB1fTKGR/Lxdr05/xfKP6dFKsggd380tIy+7V3kuhfReMG7j19E0cDB9YOs3S2CAiNulx8OdfFae7naVIIgUAcEoF7T2dEBR9E/ENAEDE4/t19Map1GmgsEx+KkwybmQfElFNTnwadCTbtHn/JbV7B5NG1poAAJyaPNEgCHKy1XkX+qPhhnCyNmCz1GYO0WyvWvUCQVDLvNIUsLcwObB0Wvl/CQT8zOF9Zw7vW35lRO8O5X9vmPVzC6VNp22bN17xNwRBw3r6D+vpX96MRCQqDkor0bWNh+IPNkt735KpDfBuAADgwCsuAhOp+sZTJ3mr0ee+GbDv7+B5Yzso0bBhEYpkmnL4oiogqGEnSCadwqRTGq7/6mlRnE0UCkkzHOGIRLxqvWpLSqUYABQirN5PwNHKVBGvqQ6wefPH4/E4HAwpX71AkVoBw4Din/objUlE/ILxDeXx1Gg8/5jYFBRnQ4MgCIKgir9xOBiG4d89OTKZHN/olecbAqFYKhRJ9XTUE4XYIIozKyM9PvabwohrwDZydvOAYbiosCAnK9O9VevyZiKR8MPbV4q1CY2m5eTqwdRWvaONXCYL/Rjczr8T/H/3EARBQj+88/XzJxBqWAOKRaLIz2HtOqghDmzXDNfGH7QObJ7TS7X+Qd9TS7de+sGgEoz1yBBfbTlplXesVTkohCfgcTVqPgzDohK5Uvk/i3rFZAhBEIpiMjnqYK6lr133r4aAx2lK8awWLp65cv7kZSKJAABA5Ii9k926rSv02VUUIf9z7Ox121aaW6prUagyon9ouFftr7x5+ez00QM+bdshciQ+9puTq8f2/cfSUpKDnjyoqDhLiormThvfZ8AgCIZKiot+xMZs3XukQxcVfxBCkXD5/JkvQqJI/1ecUqlk1aLZd5+/Z2rXkIezpLho9eI5L0OjVSuSMjA1pDoKS5umwt5QFCMRYAIOFoiRYZ1NXgfnACBXYf9NH7EMBTRdWIkUgxAEtbL/7QOMolhkAlcmx4z16mjOQlGUxxfrMKh1u72JYGrQfLKJVQOXU9qxa/tl6xYBAMRi8frlW3Zu2rfj4GbFqxXLFedm58mkLZXs6ktDmWpb+/rtOHACAFBWyuvY2qmosMDJxc3EtPIyh6mjs2XPYSKJhGHYy2ePVy766+m7z1QaTSQS/oiLoVFpNvaOMAxzOSUYhnFKirmcEicXdwqVCgDIzcnOTE81NjUzNfvpNpmbnZWdlWFlY8fSq7zUKistjUmLMre01tP/l8cNl8tJ+hGnp8+2tLb5f0teXMw3lr6BtY1deTMURdNSktiGxjStRrIMvPta1NFDr3HGqg+fvmW42RtRVOF0LkfQ0FiOg5lWJ0+9ts46fq6s18G/DPc9wc7cWIfx81so4ZWFfUugkIidfdzkCPI5JkkoFrdxc6BR/tlpYRgWEv0DRVB/L+fyiyHR8SQCwdbc6MOXOCIB38XH/Xe6SiiWvP38HYKgXu1aAQCiE9Lyi7kutuYmBlXEOSRl5tLIJCN93YT07OTMPFO2XpU+vdVw64ugeyff+lvSYBhq7aD98XuxthaBSq7Lz1wolk1ff+fabs32qj2xfqi6RWgkcHgcmUwCAJDJJN+2rR/ff6ZQk7s278tMz7K2tVqyZoEu6+dK6/qlW3Q6vU9ATwDAghlLV29epqOr2dn8G5mG8vKSyaQ8HpfH5XyJ+GRoZExnMD6Hfdy8Zunv2kMQ1LVnHwqF8u1rZH5uzqiBva9fPLdz89rl82eiKPrwzo0JwwJ2bl57ZN+O0YN7SyWS4DcvZk4c8fLZ49mTR9+4fB7DsKt/n5k9ZfTj+7cnDg/8GPymkjDzpk94cPvGmMF9wj68K78eGR42YkD3B3duLJ375+6t6zEMi4mOGtK3y6N7t1YumHV0/05FMxRFD+3etmfrhvJYwEbgxIPURhurPhy7FlpaJq5/PxiGhcVy3KwZ+tqk2YOt27lWHX639sjl+NSs8v9+T8pYtPtMdGIagqITVu07fPXRg7fhvWes5ZTyK/QMluw9O2DOxvKLfKE4cM7mbWduisTS919iJ609gKDo7wQrKOFNWX/wc2wSimILd59ZffjS+y+xA/7a+OxjZCX5kzJyB83bEhGXDADILig+e+/lkWuPlHz7KIoV85GTH8qYtq183VRjRoMgyMdRNzKRW48+WrzfNIaYr7Fnj/995tiFXZv3Hdh1dMzEkRiGzZu+xK9Dm3M3Tjq7Oa1atL68xkBaSkZWZrbi7/DQCKlE8/ag9pb6w3t7qGv0htpxvnnxbFi/rgiC5OZkT5w2i0QiYRiGoFVkMisHhmF9tmFxUeHzx/f7DBg4bfYCBEHGDe0XGR6KYqgOi3X49CUURft19k1PTQ77GOzTpv3cxSs5JdMzM9IEAv6RfTtvPn5twDaMj/m2dO70O8+Dy4NkUARZs2mnvZPLu9cvDuzeevLvm4rM4Ds3r1m+fmunrj1FImG/zm0GDh1xeO/26X8tHDx8NJdTcvroARRFMQw9sm9H4o+4XYdOkilqc+Jq9kQl8WxNaUwaQZGCuMb2+cUcFMUAALbmRnNGDcjILcQAOLdxLg6GRyzd+fpT9ODu/4qvdbU1fxT8eUy/zgCAZx8jzY30FZ6xSyYMvvbsXxtbDMMSM3K4ZQJbMyNdJh0AoK/NXDV1WF4R511EzPtz28gkop+H46Erj3r6tSrfGt57Hbbu2JXyTrr4uOcVcd9FfK/xjTxLAgllGATDdB1Wr0AXe8sqzqXqDJEA6zFJ+RwxW0fNeSrUxbHrodOHNc9QwkrI5HKhQJiWkv7mRfCxCwda+7YqKS75FhXTpUfHK+evy6Sy0PefhAKhusVUGbpMqi5TbecIDaU4u/Xqu3XvEYCBkpLiCcMGuHl6kUhkhULdv3MzAKBXv8ABg/6oeAuGYTwuR9+AHR/z7c2LZ4/u3VKcg6YmJwIAbO0cYRiGYZjBYEql0pHjJi+bO717Ow/P1j6z5i3NzswoLMibOnoIgACGYWWlpQI+n874ebyho8uytLEDALi4eWRlpMtkUgCAXCrNycpwdW8FACCTKfaOzqnJicmJPxYsXwsA0NbRXbhiXU5WZm5O9s0rF/w7dSORG3XqUUZ5NAXwqnCiySsWEXCQgTZJyfYRsUkzNh89ve6v8ivmRvp/b54vR9D41IykjFwHK9NKtwzt0f72i4+j+3YCANwM+vBHz/YRsUm/9oxh2Pazt0K+xtuYGb0I/Xp1x2Iq+adUBrrMt2e2KHL7ZRcU6zD/ZbTXZdKfHl23aPfZWr1xBMUCenoHdHFWom0dsTWhfYorMdAm1db8SyTgZjVMco/G5P7r2P+I4vRs7T5rwZ8Yhu3fcXjrul2X7pwRCcVEIkHfQE+xhVi7dcW/bGYYUDzwiBzFNNC0IJHKxVK5ujKXNZSpFoZxJBKZRCYbGhk7OLmkpyYrrrfy9t2y+9CW3YcCh46odEtCfExBXq6dgxNTW2fhinX3gj7cC/pw4uKN7r37AwDKfWIVwQ8CPn//iQt3ngW3bd9p4azJNJqWgYHh9Ycv7wV9uPHo1Z4jpyseRgqFAplUqnD2YTCYeDxB0SGZTOFxOYo2hQX5dAZTl6VXUlykMM+ePnpAIhHrGxjeefY+Mjw0+PWLBvqsqmSHhuSq3fhXT5ZOvfyDMAz7kcl3tqQrObNHxiXP3Hzs7Ia5bnaWFa/DMPz0Q+T0TUd0GDSWduXI6LbuDmk5Bfkl3CJOKadUYG9RdS4eDIDnH79MGthjx/wJx1fPrFgHFIZhGoUMQVBEXNKev+8tGBtYUeCOrV0MWbU+JUoplDVQysZy8DiYQsILxLX2sSIS8B29rRtGqBYaCgiCps+dKpPKju47ZWjMZmozzcxNB/4xwMrW8uHdJ+VxBHSGVnJSKoZhXyO/cbn1MearjS9x2QcuvlfX6A2140xNTrh8/hSGYZnpqZ8/hcxbuiYjLQUAwNTWKfdlzc7MEAoEVy+excFwYUH+nRuX5y9do62jO2z0+J2b1uiy9MpKSzeuWnzp9pNf+3/68G5y4o/pfy3EwbC2LottaOTg7Lpn2/rAISOuXTxbVlrq2dq3vLFUIt25ec2gP0Yd2LVl2OjxMA4GAODx+MHDx2xes3Tu4lWfwz5KJGI3D68hI8Ye2Ll5yepNIe/ffg770Lv/QAKBoKOru2bzrlWL59x8/EZbp5GO0FlMZbdf6qX+yTu+JvPcbZhKJp/CMLDn73tUMsm0Kt+cAZ18+nf03nzqxrqjV46tmlnxJTwO19XX/UVIFATDPfw8f5chEoaglVOHLd57duWhv3u08Vw5bRhf+M8JLoZhQSFRi/acOb56pqdDfZWKDMGii0l9rVRpm60Se1OthMyyalxwqwTDMJFY1kCVVhsNg/qt6jQFIolAIv2cMchk0ubdayePmjlgcN8dBzdtWLmVqc0oKeKs3LgEh8dRaRQYhgOG9Js2Znb/LkMMjdh2DrawmupzaC4Nojhd3Vvl5WTnZGVCEGTANrr+4KWpuQWAQJ/+gyo2ozMYYyZOK8jLhWBIl6V3/Px1B2dXAECnbr2IRNLTh3dxONyx81fNLCzdPLzMLX/OU4OHj9EzYP/518LrF8+eO3nEwNDowInzBCJx79Gz1y6evXD6mJ2D48jxU8p3AyQiadb8JQaGxjevXAgcMrz/oD8QBBk9cRqJRJ4yc66xiem1i2f12Ybnrt2n0miDh4+mMxjXL50zNDbZdfg0BKDRE6YCANq07zht9vyUpB9ePo1k9gmNLWnr3FClV1RIVHyOo5V+nVM5S6SIRIrq0JWdnSEIHFs98/Wn6OUHLhxaPr38elxq5vOPX+aODoAgyNXW4ktc8q/3Dunebtf5OwQ8btPssTHJGVX2j6Iok04LubAzJStv78X7645eXjR+cPmrt1+GbD1948r2xS429Q1wFMvQUx8FA/p1b4Qs2DQKXiT9rffT7xCIpJNX39R0r9pzW4arWwSgcHJGkAY0h86Y+68kVq4eLmExbwEANnZWD17d5HF5WnQtPB4PALj19OdJ/INXN0t5pQwmU5nYpxYqoQrF+UtCS8/WPp6tfSpdtLaxqxjgAQBgMLUXrVz/a38QBLXr2PtB1ksAACAASURBVKVdxy7lV1p5tyn/e+S4yYo/xk6eXvEumpbWpOl/gV8gkcnjpswAAPTu/zPdMwzDU2bMVfw9YPCwAYOHlTeGYbhXv8Be/f5JDK3oE4KgYaMnVOoZQVBcgz1zh24na4TiPHDx/dZ5feo8+8emlTpb1m7PqkUhr5w6zH/CsuchkdT/HzzrazNP3n5uYsAyM9TffeHOvNEBAIC9f9/r1d7L0fLneWcrJ5u0nAIDXaa1qeGvijMpM/fOy5B5YwLWHL7Uo61n7/ZeBDxOh/GPbOm5BbO2HJs6pGfYt4Swbwl62vSe7VptOXVj3ugAhQ+RMrxNEBFwIL8MzRBrDR3Q082+5hosKoFGxvFFMi1Kbb8mzTv6apo4WRt8i08wNFCDMwsEQdo6VRwHwDBc5XVVIRTJibgGPIC0s9Cj09RmllOB4iThYYFIQqNohmlRhSSmFVibtgQ/1R0ExURStFYlu4f19DcxYNEo5BNrZkXGJjv9Pyueng7jzp4VJ249e/UpevW04T39WgEAMvIKM/MKnaxMx/TrzGbpkImEFVP+0KbTYBiyMzcK/HctMBiC3n+JXTA28Mz6OcdvPt11/o6Hg9W0Ib3yin+eAPEF4imDe2IYSMnKAwCIJVIAoKj4VIFIXK44B3Tyqb4emYFnBwqZ4KFNMzVkNmbaMxsTrZQcvrtNw56nNkHO3f08YaC3uqUAXk4mH6PSHr1Kd7TRbswdHgTBGFZrY0P94ZZKP4YXTBvcgMkOWdo01WZfqRUqUJxj+nuevBXSp4ubkQETUm3e0qYKgqJxSbmR0WnLJ3dqoCEabi+rWuozC8Snlzma15BQomLSEwDAxIE/E0v5uNj5uNi9i4iRyuRF3FI9bYadhfHOBRMr3kunUdzsLCEImv5HH8WVIf+PUXG2MXe2MZfJkUJOqcJigsfhvJ1tYRg21NNZO31kxX7kCFJQwnW2Mds0e0zF6zK53NbMSF/nnyTsw3v9nCn4QlEpvwrXf09HY5o6Tg2pJFgori4Y7FdIBPyUoW2UaNikuf4suikoThwOnj2yfUxyfnJGMdqINWfSC6QWBmrY0jBojOWTWjVoEnaZHJHJEXXVZVKB4rQ111s6seOT4PjIqGS1lCHK50gNdAiNqbNxMGRvqbd2ejdCgwWN7NSQXLXrZ/XU1a6LAQrDME6Z1MWquoxoFDJRJOVTSb/9ZnWZWiQiYcWBCyfWzP711TV/jsBXm7MiO79o0Z4z7T2dIAiYGuqtmDrs110ghUS0NTeasenojV3LKr2Ix+F2LphQZVqMe6/DnnyI6NHWs+JFOcCpK7c2DMMAgiqtQqqHQMD18LNTomELSoHDwe72Ru6NZZxXEBZb0kYTTnzqQERMlsbnqtVlUkf391JJV3XgU1yJt4N2M6sJaqAhEesm7DoWveKUyfRq8hx2sjOOzs5ta/3bdaurrcXdfSt/92r1WhMAYGnC/tftVSkVNkv7d0NAEPS7ZFKj+3Ue3e9ftQGkckxCYJLVVVkTAAoRJ5IgyqffwzAMQdEaP8MmDkN9x2AtNGOalbJpTnypV6a0xiMuOV8irUse9tQ8oaVRDVvVTt42L9PwfIkaDmlUC4Zhd78KunT0VOPyTpdB4JTVIrOaQCQdveSKEg2bNFd3abZXcAtNk2aiOJtBeblK7L6WqG4RlGLn2bfcUlFt78IwTCpFyMQadjMUMmH8yO5730rSijQvl2Y5Iil6LqQUb+rSzrN2Cd9Vi742qZArUaMALbSgQqzNWAM6N2DKreppKWTdghoQiOU0ilLPno0Za+ncodefRl2Py4YQjZv3MQjG47R0BvT1d7Zhq3d5RybixNLa+Qc1A648jhrZ11OJhi1oGAa6Wga66qli3UwUJ6YWl6QW6kFiJt/BXNnYRzqNNHmIxrt3ahxEPG5cQGslGjZp/n4Q2aI4myUIgsoRlKQmp4HmoDhBc4yB0RSv2rUze+gwa+10LpZhdSsS2UKjQSTi+3VyUrcULdSRlxEF555miCRIKzvmijEOze8wK/x7phq9ajX7jFMiRfbfTLrxJnv75YSEzDJ1i6NKjFiaUcLMwliHSKidCsQwrCUlTQuNA5Xc4BkNmyZtnHQQFOMJZN28DJqf1lQ7mq04iQSYgIO+JpfGppdZsNVWm60hiE0rVbcISpGcWSytpVdtSalUl/4fnc7UhRxBTzxIvf46e9WpGCUdtvlCyeilGu9Ve2XnKHWLoB60qIShnYydzOneDv+5dFGNgGabyyAIGtLZ5MmnguFdTEg1uWhqFlsu/ri4qnK+3ybI5uMvt87rw9arRb7ZQp7kP1tXWV3gYIhBxUenlOrSiTbGyiYqk8s13pmIoIp6sZUQCCVXnkRlFRRjoEkHSsnkGA7FbzyZqW5BagYCEAzhu/jY+3tZKrk/tjTR6e3v0PCiVY1mK04AgIE2aXJfi26tDdQtSAvKwhciNsbNapXT9IEgKKC90ZOw/E6eenSqxv/qlefOi++DuqvSXUAilW05/aJXZ3aPrjYtdUVUBYZhcjn29G1iCU8Y2FWpUsSGegxDveryjjUomm2qVcwIgf5GNUYEttB0kKNYQ+wDWqiG9BzOo7exVIjLKcr5HJMlR2reKhEJuOG9PRpFugbk5K1Pqu0wKCTJ10vbypzRojVVCARBBALcv5vF5/hkvlCpqDMEQaWyuqReUQk1rD1RFHsSHPf5WyIRlmEtDh31AAHUAV09PR1NlGy/cbLaYntrxfKpXWrlVYthWMt805iUCsTHr4XiIcTX1WjBMDu+QBz9I+1OUPTIfl7VFzUjEvCDe7g1oqSaQWxS3tCBjZpv9r8DBEHmJtTsfJ6DVc0WxIjY7FdhScumdKmxZUNQg+K88/IbTpq5eqxJy/KqnkikyJE7YQR8OxdbQ2XaWxlpRuV6Owv9WrVHUAyPa3mWGgmxRLbz9OvAjtam7J9GrcjPoRHv3y9ctOTcwyg8Hudk3czPOCiqrhMuR1ECXuMNdU0WPB5SsnoMiqIy9Z3BV/cESKTyH4nJAf7sFq1Zf0hE3J+BpvdeflWyfVI2v4ElUg2ZudxaPb4yOYrHtcw7jcTDt3EdPIzKtSYAQCQScTgcEhE/cYDb5YcRyO9ttnyhZNKq6797VSxF+EINyIN4cdsIdYvQQjOkuilMLJExaWiL1lQVFBIMYcomjVt3Nq5hpVERaw8/L+FWUXjyd4ilKJnYojgbiR+pBU7WP00Cd+/d69+//6ZNm54+e9a/f/8N69fqMoiFHEE1twtE0t+9VMiVTNn55fKLzFJBk1aflP9qHGc5uTl5KUlp5f9FEORTSMT7Nx/LSvkYhmWmZ71/G5KfV/DrjcVFJR/ehaYkpWIYJpfJPwaHBr/5KJX89pEoJz+vIPjNx+io7+VX4r7Hi4RVZ7TOzsrJy80HAGSmZwW/+ZgQn6Tk+zIz0u7axlbJxiqnelMtBLdEzqoOCIJasgOWCWX/Ka9O9YKiaHlF9O7duvl4e799+/b9+/crV64kkUjvoosjfnD0CqrWfGKpXAooYbElVb5axJMUl0rPPsl4/aVw0xTnJhtf9Oht3H88/9GLp69Tk9LWbFmu+K9UKps7bVGfAT1t7KxfPX9z8vDZdh3ably5be3WFe06/JPY8nt07PzpSzt1848MjxowqM/I8cM+vA39+/SVoJAHbMMazPvBrz6cPnZ+7ORR7p6uGIZFRURPGPbnw9c3zSxMK7XMyc6dPHLmjLlTAof2z8rMvnj6SsiXonGDBirzvkwMmCYGdaxpWH9aprAWGhW+CDHRV0/R9v8gdBqZxxfrMCgAAC0tLS0tLV0Wi0ajmZiYAAAKudkTvAyplKq/DolUPqybze/KIGcWCHXpxP7tDAPaGzFpTXdXd/hqSEMoTn4ZPzkxVVdP19TMGIIgFEUz0jKFApGVjQWFSpHL5UUFxVQaNTUlzcTUWE+fVVJcgsfjGUwGAKCUVyaXy3V0tbMzczglXFNzEx3dGnIUoCiampwmEont7G1I5CoqjCpGhCCIzxdY21YdCikSiQrzi/QM9GAYnrd0Fp1BD3ryaveRbQ5Ods5ujhfPXKmoOF8/fztn0YwBg/smJ6RMGP7nhGlj5y2d9fjesyrFk8vkSYkpEARZWJmTySQAQCtvj1HjhwEATh05d+PynSrNlm9fvl+/fHP5XsLPv00ptzTky5maPvvyzwRDUFRd/vk1K04Mw7KyCx49e59XUGxpZjRwQGdtJh0A8OT5By9PR7YBq1L7xOTM/IJif7/qEitnZefHJ6R176LBmbtRFL1171W/Xv5fvyfo6jAc7CxV2//q8Y6q7bCBWDC+ozajFl61MjlKaHEOaiwCurhcfhA+KdC9fOby8fa2sbbGMOxrQoGlqf7vtCYAgETEV5MeXV+bdGJxq6asMhuOmG9x8/5c4unlnvAjcdAfAeOnjF6xYF16SjrbiJ2clHrk7F4CnjB60EQjE0OmNjMqIvrY+f2JP5I/vgvddXgrAGDL2h1t2/sK+ML7tx7ZOliHfQjffWSrh5f774ZDUXTRrOW5OfkGbP2sjOzzN07wywR6Biw8Hq94NS83H4bhMYMn4Ql4bR3tK/fO/dqJQCCcOXFep67+I8f9obgCQdCBk7sAADwu792rD86u/5pwZi+cjmGYSCh6+fyNg5NdNZ8GhmKzJs8nEggwDpeWkn7j8cWKr1pYmV97cH7EgPG/3kgkES7cOr1/+yElPvIqiIzLfhOevGhCp7rdXk9qPm26efdlh15TklMzDfR13n6IaNt1QmZ2PgBgz+FLSSlV5KQI/RR94fKj6vv8Hpt85NTNeoitflAUW7XxCK+UHxWdkJqeo/L+HcxqkYtHjbjaGdaqQIEcwVqcEhsNazOWv4/d6XvRhZyf59AsFsvcwupZSGpseumY/q3q3DOZiNMIrUlWefUMDOzbdmjG3Ck7D20+fflodmbOx+DQH3EJF26d2nd8x8Ch/fdvP4xhWEF+4fYDmw6f2Tt4eMCzRy+79OgU+iFcwBeIhKIPb0M7d+/w4umr4WOHrNu2auehLTBc3bYpPDQiKSHlws2T+47v6NW/e0ZaFoVKfnD7sUwmQ1H02aMXMAQDAPJy84+dP3D1/vlft5sCvmDWpPmdu3WY+OdYUOFVGIaLCounjf0r7OMnL99/PQwQBMEwvGDmstNHz3fq1qEa8SQSSUTYl/nL/9p3fMfkmeNFgn+dZfbs202xz/4VP/82pmbG1X7W1SGXIyKx2s7Xa3iqCgpLtu7de/vSztatnCAIwiYPXb720LVbzxfNGVvehssrex8SpUWj+vm6kUhEAAAGsIgvcYVFHH8/Ty0tKgCghMP7HBlXWsb383U3NqoigEEslnz+EpedW+jiaO3iZJ2ankMkEkyNDQAA2TkFUpnM0ty4qJgbGv5NX0/Hx8sFh4PTMnJxMBwdk+jpZm9kqBf3IzUuIY2lw2zf1oNIJGAY9i0mKTUtu62vW05ukYebPQSB7JyCiC9xFuZG7m725ce3MpksJi5FT08nPCLGw9XOytJEYXuJiIrLzin0buVkYmyguPL1W2JaRk4rD0cLs39CSnp2a0ujUjjc0uJinlgiSUjKaOvjpniPZWWC18ERhmwW20CXSCAYGeop/8VkFgjNDNScfVckkUcn15AyVyZH8fha+I81cjgKiqLxKQXvI1NLeEIU1bADZjIJ72jN7uxrQyXX3bjdydvaxpR173VMQTEPRTEIAmQSqYuvbRt3c1y17s0CoWThrkfH1gyu89BNgbOb/lBthyiKJiUke/l4AgD09FkrNy45c+yCl48ngUAAAPj6tb5z/T4AgMGgG5sYAQBYeqzsrBwdXW0/f98Xz95AEGjb3kdbR3vGvKkrFqw7sPNIhy7t5yyeWc2IP+IS3Vu5KvqfNnuS4mKXHp0e3nkCw7CPX2tDY3Zebr4WXcvCyrzKHu7dekSlUqbOnPCrTtU30Lt6/3xkeNSsSfPfRQYRif9aDB05u6+4qCSw+zAfv9Y2dlZVdk4ikybPHD8ycIKhETtgcF8aXW01MhuTGhTnyzefnJ2svb1+BuNDELR57UwY/uf3lp6R22/o3L692hcV8zZuP3n/+l4AwKNn7xEEpWtR1245/uzuocIiTuCIhcMGdReJJfOX7fn48mylUUQiSc/AmR5u9oZs1vK1B4/sWcYXCK/dCrrx93YMwxas2DtySE8Ot2zi9PWDBnSOT0ij02nH9684de7OrfuvLM2Npk4YHPXtR1j4t26dfI++vOFob3l4z7LjZ26fOn83sF/HPYcuZeUUxH2++fZ9xJI1B4YEdD15/m4rd4cNq6YrHiMOlx84cqG7i20n/9arNx3dvWV+jy5t5izZlZqW3cbbdc2mYzs2zunZzW/5ukNfvv7w9/Ncv/XEmmVTA/r+NBHsP3LF3dXO3MxwxrytPl7OBvq685ftDn5+mkal9AiY2aFdK4FQ9Prd50Vzxs6YMlT5L2b5iRi156qlkPC/O+IqZ9Kq67XKVRsWW9JotRrEEtnRy++0RZl9nKh6VjiN83QTydDv2Tlb930ZPqSrq51S4b+/AkGQmZH27FHtAQAXgzJ8HXXtzZSa2jAAOLxa+Es3TZh0FVcZgmBIW0eby+EplOjFM1coVEpx4U8XquIiDo1GBQDAOFyl53z42KFH9p5AMWz2/GkAADqd/vDVzcyMrHMnLq1duunI2X2/G1GXpcMp+ZmX/8PbEG1dbRc3JwaTjsPheNxSfYOfy3ECgfC7X1bA4L5DRg5cMX/tradXyo9IZTL53m0HZ82fRtOi2TrYSKVSiVhSrjjPHv+7Q5f2tvbWevosA7Y+p5gDfqM4JWJJl+4dJ00f/yU8avOaHfrs2gV21xlTtnbH1lWL1AjUoDgzs/N7uLMVf9979Obt+0gAgLWlyew/hysu7jl0acLoAYvmjkVRdOTElbfuvYIAcHKwOnVoFQRBE2esu33/tW9rlz1b5vfs5ieXy8PCv8fGp1QaRSAUTR4/cNzIfiiKCQTij2FfF80dt3zdoRJOKQxDX77Gnzq4auLM9csXTvhjUHcEQTv0mvItJgkA4OfjdvrIGgBAaSl/zvQROtqMDu1b/Tlni1Ak3rHv/JsnJ8xNDfv0aD9o1CIUw9ZsPn5gx+J2bdwFQrFv53Gzpg0zZP88oBUJxcf3rzQ20nd1tt2574KFmdHLN5+iPlwmkYhdOnovWrnPydHq5t2XUR8u0+m0gL4dx05d06dH+0rvgkolXzy1CY/HZeUUfI6Mzc0r8mntvG/7QgwDgSMWqOj7akFZMAw7cf1jB90CV2O6hpZVohBgH0uymwm671aQ/tSBbFa9rPcFHPGtNznZheIlI+009AOpAy9Dk7q1VWXQAgRBgUP779t+eOXGxe9efQh+/XHX4S1H9h5/dPephZX5/p2Hh40eUuWNrbw9crPzEBRVGEV3b9nv4eU2YEg/BpMuk0oBACcPn+3eu4uVTWVviQ6d2+3cuPfZoxeGxuwNK7buO74Dw7Dnj176tG1NoVIe33/eL7B3xfYPbj/WM2D5+f/jQaJF1/L18/br0Gb3lv0r1i9WXMTjcWkp6ft2HB457o9L5657t/GiM7Q+vgstKeb0H9RHKpVuWrVt1aZl4aERAr7A1eOf/LE8Lu/00QuzF/5JJBIVxsJJI2ds3bve2NSISCTSaNRqQlYQBDm85/jI8cPK9X2dMTVkmhqqzau2htMmQ7ZeZs7PEB8TIwNPdwcSiXj9zovyBvGJaV6ejgpzeSsP+x8JaQAATzd7GIYhCHJ1sk1KyTQxNnj2MrT7gBndA2Ymp2Whv8RcazPpHE5pr4GzO/ed9vBZMIKiDDqtb0//O/df3bjzol8vfzqdFvcjbduec/49p3TqM00oEucVFAMAHB0sIQiCIMjMlD155oYufactX3sIQREejy+Tyc1M2AAAK0sTOp0mEoozMnMXrtjr33NKr4GzcThcfkFxhbfJUhhXHe0s0jPzEpMzHewsFGZnZwervPziuB+plhbGdDoNAOBgb8nllfEFlRfjVhbGeDwOAMBkaMlk8sSUTBcnGwiCYBhyd1FbvNF/lvQcDpGb5mZC0nQlQSbAE3xJ1x9/qU8nGIZdDMrki5Hg6OLcYrEytxDwuD4dNMNDrRp2n3+n8j7HTh4VMKTv4T0nSopL9p/YoafPunDz1OewyJOHz06dOWH4mKE0Leqw0T9N3M5ujr5+3gAAHA43b9nshSvmKCx22w9sEonEOzbsIZGIq7csBwAkxCflZOf9OhxTm3n22omQ4LALJy+v3bbS0cUhIT7Jo7WbkYmhtg6zc7cOsd/iqLR/RiwuKvkeFVN+u5OLQ9v2PhAELV41X0uLxuPyFNchCNpxcDOdQd+z9aC+AWvfsR0Kxfb+7UcAwOQZ43sP6Ll/x6HU5LS/b5+mM/6xUmAYeP/mY/k0rq3DPHpu/9MHQQd2Hh0zaUTXXp0ryQ9B0KDhAVr/N+FGRUTzOLzyVzt0af87I3D1oCgqR9SWOaiGHWe3zr5n9t3/+j3R3cXW28u5dSun5y9DP4T+k/7G0ICVnpmn+GWmZ+Q52FkAAPILSxROxhlZeY72lvsOXyrjC25e3K7NpHfp+yeGYZXmshdvwi7feHb3yi62AWvN5mOKeyeM7r90zUE5guzZsgAAwNbXWbF4UvfObTAMC3od1srdIfjDF4VfWWmZYOKM9dfOb/V0d/gekzT+z7UMBg2HgwuLOAb6uvkFxQKBkEQiMplaF05scLS3RBD0SdAHG6t/gopKuGUisYRCJmXnFrD1dQ3ZrKzsAhRFYRjOKyihUEimxgZ5eUUymZxAwBcWcXA4mEyqfOykOKIvx8rcODklS/FeklOzTE3Ytfpilo6yr1V7dTF7dHsmvRYxfI0WyRr+PcvfugrHfU3EkIHnRNbLAQ3FQCs7JgEPG+qQ+CKlUmOTiPgJA73rM2hzBYeDBw8PHDw8sPyKlY3l2q0ryv/LYDL+WjRD8bdCayro1a97+d8sPd0lq+dX7FZHR9vO3qbKEa1tLddtW1n+34purkxthnsrVwBA+YgEAt7F/Z9M195tvMpbLl27UCQSK0JiqDSalhZtzv/vKsenrTcAAI/Hjxg7dMTYn6dLGIqV8spQFFX07+TqUDEqxsPLzcPrX2mNpRIZny/Q0qIp9lTT50xRXIcgyNTchG38z2QYMKSf4g+xWCIQVJ0koUqi4nPeRaTOG1ud41LDUYPiNDHS37t1QeDwBcMGdbezNY9PSLtx58WsacPKG8yYMnTyrA00KrmwiPPqXfjKJZNfvw1//jL0yMkbJBLxTXDE6qVTTp2/m19Q8iMhPeh12Pe45DK+kMn41ykLiUjkC4QJSRkv33y6cuNp/z4dAAAebvalZQIAME93ewDAnBkjl6w6sHb51PTMvBNnbr97dqr8dhiCCAR8YlKGQCDasuuMSCyhUsgL/xozfMLyoYHd7jx4jWEAT8DNnjb8zzmbl84fHx4Z++xlSPfOvuU9CIWieUt2BfTrtHnn6TkzRnq42bF0GSs3HOng57l93/npk4Y4OVjZ21ksXrW/Z7e2+w5fnjJ+IIVSg7YYM7xP94CZG7adFIulr9597tyhdnOQm7XarBC1wstJ2bT1ChRZIBphF8gpFbEMmk8NFhipOWNLNeBgqEsrAwoR19alcvxY84ao6jg/CDTUA7xkzXzFTqCeDB87tJp+cDDc2sdz6dzVG3as/nWr59ehTZX3CkWiRbNXmJgZE4lEKo26Ycfqaj4BA0P9nOzcfdsOrdq0tNJLEASt2bICX9WX8uxh0M0rd+yd7JQsJiKVIWUCZROxqZzqctnwysSX7zyePtA8LSPnwZPgrOx8I0P9/r39ba3NIAi68+B1G29XYyP9qOgfD54EE4mEEUN7WpgZxf1IzcktTErNKinhjfqjt4W5kUgk/vvq48zsfD8fN11dJsCAoaHe99ik/r1/LhZQFL3/+F14RIyDvWVbH9fvscmDA7oCAII/foEgSBESimHYx7DooNdhNCp51B+9TYwNPoZFk8lELw9HRXzL9TtB2gytwP6d3wRHjB7WG8WwyC9xSalZDnYWU2Zt/BpyFYahF68/BYd80dfTGT2sN+v/QccFhRyfTmNOHVr99kNklw7eXTr6wDBUxhdeufE0LSO3Y7tWPbq2xeFggVB07VZQUkpmWx/Xfr38IQj6++rjoYHdwr/E6rG06VrU6O+JA/p0BAAEvQqzMDe0MDPicEtfvQ1nsbSv3w7q2tFn9PA+Wy5mrZgR+LsPvCL5JWK2bhPNxlIRTqmIQSNV759Zkehkno0JjUZukMwbmbmcm8+/CkqKIFTOKxNp4RFYUyJfMIBhwICBG9qarkWqQuidL8pWLasiGK5WhMYUK684hSLpiv1P9y0LqOeg6qWghG+gq0o/z2PXQtq2obGaaqYkTefW45ShXdqaGtaQEQIAEPo1PSgkcfX07jW2bAhqVpwzBlk0rkgqAMOwbgNmTJ0wyL+t55FTN4qKuCcOrvzdEqmgkOPTaWx67EPVyvDizactu86cPLCyhFM6dtqahzf22VqbKa84x27+/PdKDTCUTV59Y8vc3sp71eZzxEIx0hC1X958Sgp982FCW6o2BVasbVU+RMOh+BmmF8svhJaOa8uw1KscItn4ipMvlExefePa7jH1HLSZkZpVfPHJh3FDHVqSeKucYo74zuOcdTN6KfPjTc/hJKYXdferLjlDw1Hdwh+Cgbzmerfqp4CL6jOhip81BEEnD6zceeDi9VtB7q52OzfPreaboJCJI4f2UrlUXTq0TknNWrr2IJlEOrJnma21GYZhGFD2x6YpWW1rKyeTRsgpUso5pVZk5nFD33yY01kLp5nTmeL5tNQjzO+us/cFZ0UfXZVHuzaOhbyp8T4y1d9LlUELlia67dycjl387unColKafspSxTfe1CcTDAPZefzsbNm8adqpbAAAIABJREFUMZ2VfEotjHUsjHUaXrSqqe6Lp5IJXCFRJEEopCZ9VpRWiOkzK3/WNtZmx/YtV+Z2Op22bcNfKpcKh8NNmzh42sR/4scz8sXazBrCIps9BDwkbYDl2N2g6LG+VA3VmhWhk+EuDpT3SaLODipOf8EXyWnkWvyQ8ThYjdUnVMWWk68fH1Wl4oQgqGsb2zbu5t8T80QSpdys1AiXL0dQwGI0dQUPAWDfytYuUE/5Qx8URTEMKN9etVT3geJxuCG9fHZfez+2p4E5m/IfXK6qCjmCfUsuvf2+dOFEZbe2c4dW7V/X1Jj2RxtGbbxqcTDcEBl8ykqKdB015TyzBrzMyec+8lSuOAs4EgOdWrgZk0mEP4e1Va0MzQMIgrSopLYeGnCGlVMkkiOYOVvNOcgaguiEvPeRqYrMHo1PDSsRZxs2a0TPx+/i8t7wmux2v1gAv4xAm6x4AAAYB9ma6S2b5k/7fU7tSvg4asbetA7TB5EAS2QIiVBfM0aZQBydkFdQwscwLCWn9MFXjVGcOBiY6eAdDYkkQhUyU4mQUKb6p5nLl5kaqDiNTtPnP141HYIgDNOE87baI5bIOKW1CF9RLTVv4dks+sRBvjU2UyOf4kp8HHWa2Ya4iCvR09aAMERemUiLWguvWgCAjhaBWyZj69ZdcWIY9uhtXNSnSF9TYMPAwxCw76hJXo5yFEstkj36JujtSvMyryx5Az3JUjlaq8WKUCRddyRox8J+DSFMo3Fk9SB1i6BemvB+QpNp6rZvZdAUP5pasfjY97PLWqtbippZsvvx+tk9DZX2qgUAmBpQo5N49Qm2efAmVpgUsbALTePSz5bjZETq4Uw7/o5LwEFuJg2+QkJQrLYHwCiGpedwGkyiRsKUrRnx0A0EBEFAY38j1cNm0b1dKlfGbjSahx2jGT4ZMo1waAZAJkdq++kT8XB93h2nVPg9PHKgpwZrTQUEHDTVn3k/it8IKz9umVRb679YPzz8exWlD/9TNMt9BQDAylRXjSkhNVtxSqTIneCc99+Kb77NzsjX+EoO/x2IBFgsrWOeyYiYrA5WcPOwzJMIsKUeIYvT4M6ZyTkCK6PaeYjgcTjVBnKohbWHg9QtgtqQyhCJDJVIUbG0qXv/1gEMwxQpANWCZitOIgH+nsJ7+qng6sssppYGlNVVnhkDrdUtglKMH+hN16q10dXRnB6fUVa3EXOLyky0m8MRgwJDBq6Q3+C5qutQP5xMwv81Wj0uiy2ohNvvcuYfil5+Iubi8yx1y6J6viXknbz1SV2ja/YEBEHQ6B7mH75zBnYw1oh69MrT3lUzcop28q6LgqeScUIxonxIvlQmD4vOiIrN4gvFKZkl8fgyClFjdpwUAuRoSPS3pZCr8qGFIKihC2wXciUsxn/RTqtI0qtuEdRGL1/2pRdZcgTt27Z2FSY0AqFYWlDMV9fomq04AQCWhpQB7dgB7epY5rfJwimT6tA1YLLjCyUUEqG2YcgQBGlrETh8ma4S7zG/uOzo+Rc+evwRVmQ6GYZaEwHQjFWFwqAklGLRWZJdzzkjfek2+mr4TlNzBZ62NSf/rIRQLN128vWGv1SfVKsxObBcqQyXzRIdOjGwvRGXLzViaZLPuUagAsWJoujzjwlhUT8IsHos6QiKHb4Q1ZgjYhhAIcrQXq0drQ0a6LBt8dHvp5Z4NUTPqmXpnsdrZnSvQ41lGxPa1ySer1MN4apiiezw2WfTfTAWTfXpbRsBCIJoJMjPhuJuStr3gjOri7Y2tVHzcEmkCAQAsarNbvWgKPYjrbBhhGo8rEzVGQ8tlyNSOaLGkJA+vnoSGSoSy9Qmwb/B42ACAaeSOVNPh+bhYKwKoeqCChTnk+B4ES9lzTiT5uGvoSRiKbLv+ntS/87WZg2y+6mz70wjIxLL6jYvkAg4BMVkcrT6s7cnwfG9rKQsmsYvmWkkeKwf43Ykf5J/owZIRCfznC0Z/2vvPOOaWLo4PLtJSAESehOkSZOmiIgComDveC2gIoi9d1+wNyzYwatgV64dL4rYC2IvYEGw0kXpJQTSs/N+WC8iIlICCbrPzw9hd3Z2Enf2TDnnf1ryjnLF6495tmYyWI7i8UUX4lLeZX4mkSVI6/YkkR4QiMWoiiJzRB/7pocJtWur0a6thpRa1mCkYDgTkt6vGG/wR1lNAABNgTRxoO6Ze29mjpFNJtXfAHtT1qs0tqNFXUrNH1NzPDvIkRAEhBBCUD0zBgYhUj/VAgNVckHz+wFVp5QjJJMQxUZpkZNIqKONQTM0qkX53/bLl/cGtPBN2RzeliO3XbqoTXBuRyRRqQ6EsLiUHx51x6tHp05Ni8LEw2xkZXekMBaioMI/8+HQUFEo51Q2U+UTBxo1U83SZczAjkqMRu7bMWhkiQTWPbcWC3gK8pRi4Mz1+xFRV/DPfIEweP8Zr3nBvsu2p+fk/fJaBEGknfKkLoQiSVIa267hu5s4dCpl8QR3aTfq90ciwUJP3BvWv42Nhfqf+WKsAwRBNNTok8ZYRt9J/FLAbkpVyal5h6ITpNe0hkEsIjSeZh3s9Oyo2XyVS5FeXc0UGY2fEVobK79Or6v/1NPzFuIzwQYe+WUl1RGJxWEnYmduCC8o+drgTYfOFZayD62Z6+lkP3/LgV82EkhVqwNCKJZgEgzDMFhF1alKvvj+62JHC9U/2a1UJtooyal52jqotuZvqKsuLUgoMqyf4b83XzelkkqusImmtym0eq/a35XyShGzNQTYcHlCGpWMoo0cgSnRKWQS2kQX4qfJH8JOxnL5giHuTr6DPHgCwa7jFxNSPupoqC72H27cRvvwhZs0BUrMnacisWTu2MFONuZLdhwJnj1OiUHncHmr9pzYMNv3SMytm49fKTFofkM8e3a2/fEul+4mJKdlzfT+qt0qwbBzNx/e3LcOADCyj6u7o02j218vSLU8DG8yOQIRhttLCGF1M0EhI93tNZuS1JPLF24/em/5VM9G1yAPbF8yuIXv+OhVprOTVgvftNWhrcHIK8mWdSsaj/zOOGMux0dfjMvLLw5cFSbrtsiAxXuTZd2EehG440pRWZM0m+xNma9S2Y3ONVZYwh6/bMfEYb23LQg48O+NBy/frt578kthSVjQ1B6dbUct2lzJ4yempIafvbp6+hjfQT2nrtsDIczJL7qbmAIAuPbgeWl5RXJa9tnrD0IDp0wf2T/k8DmBsBYvxIHdHcOXz1BV/urcW1TK5guFK/cc95of7B4QlFtY0pQfoW64QoysXNM7FEEQO1NWZ0tVJys1Jyu1Lu3Vu7RXq/rnYK7axFTYGAZff8htWsNlj4VxS6/clLC5qqy61mBEQhGH0xI6i9KCx+MLBAKxWFxRIc2dKYg0ab9fXUWxvanM4lPl13CmvE1PfpNGpVLM27WCvHdSp5LfOlSyKrgC2LQAfhRFbU2YL1LLGvcquZOQ3MnKtEdnW6M22jGhy+3NjS7fT1gxZXQbLfURvV2UFenJqdkAAJ/+3S2M2gzt2YUvEFbw+P5DPU9euYth8MTleP8hHpoqzE/5RTsiL1Tw+FHbAqkKtUzvKGRy9UVjvlBUWFru2cU+/tDGrQsnzNwY0UyvQgzCk88qB3l2aI7Kf3s+tHhEDQZh3VubWzfscrbuUVLcagT0t2/YdepY1JvX72ZOmCfrtnzDzFDjr961rAy1DPJrOHEghGKxGABwODLm/qOX8/63bfP2I5yKSgCARCKJPHV53v+2HoqMEYnFAICKSt7eA1GzF4WsXB/+6XM+AOBU1LUbtx8vCNqenvlZ1l+F4Keos6hMBiU9tzHjWYFIpMj4GqyirEhHUVQkltAUKPj+liKdVl7JBQAoMb6mokRRBEDQo7Pt69Ss95k5OflFXe0tDfW0Lu9epaHCDN5/pveUFfgldcNSUlRi0Lp3skYQpKudZXkFt6wZPMW4QuzAfY6ejYN1u5YeXKMoYmeu28I3lTrzNl+UdRO+QywW37wa129w739PX6ijGIQQk3wnxIpvZVd9loi/m65JJJIa4zYMw34m5Vq9qp9d/uMRKxuLXfu2fisg/q4AhFAiaR0RdFJB3g1nSUl5WMRpAMC23ce37Irs36fby+QPi5ftAgAsXr7rdvzTkV69n798O2/JNgjhpJlrM7O/jPMeIBAKp8wOhhBGnrq8MjhCS1NNkdHKUviO69NW1k2oF8N72yo21qu2Ou3aKHK44k8FDV71tTc3ev42vYLLxzA4a0PEv7cemurr3H6WBADIKy57l5FjadTmx6uU6LS+3TrOCzkwpGcXCpkcn5gceSluyYTh1yPWiiVY2qc8Ll9QVFZex31ZSgwrY4N7z99ACJPTslWUFZlKUvMHefVZsiWOvyVetC+Z1WfYgKEeNi3vdk+nUpZO8Wjhm/72xN24a2CoP2m63+nIKKFAmJebP7TXSAFfAABISXoT4D1NLBYfCj86sMfwIb1GBs1fJRAIM9IyvQePH9Dda/yIycVFJRN9po8YMNbTeeCcyYvEInFlJXfWxAX93YZ5D/HzGzn50b0nYrF424Zdg3r+NbjniC3rd+ITD5zFs5ctmbPMe4hfX9ehseevQAi/5OT6/jVpsMfIAe5e1y7dBAAU5BcGeE8b7DGyf/dhF6Jiq659/+bj4llLhQKhzxC/BTMC+7gO8ewy4GViEoTw5pXbvbsO8urjvWjm0ok+01vml3yTln/0gsy8aluNc5BEIlnxv4mOHduzmEpLVoRyufyTUdci962lUhVGevXymbB0S/DclYGTDdpo5xUUmxjpx1y+i184Y9IIX5/Wl4y3n1PrkJcc5G4llXoQBLE3ZSWlsflCiZm+cn4JX4GC1sdjyKadoZeHc59pK1SVlRQZtL96detgYTJt/Z6jMbdz8ooW+Xvpa9cSJY0gyNgB7vvPXQ8NnIIgiL258aaDUQNmrsEgtDTWb29iEHPnydGLt2PDVtbR4J2LJ01b//epK3czvxRsnudPaqyHVA0ghA4dzIImy9ho/WmR2S0AhPDMP+f+8h5qaW1Bo9OfPHzm4t6VpaLy9HGiW49u/56Jcfd0TX715t/TMadijjIUGcsWrD7zT1RXty4vnyedvhjZ1kj/QfxjB6cO0+dO5vP4/bt7ZWVmx924S6VSL9+NLiooHtDDSygU3rp250VCUvS1UwiKTBs/J+56fO8BXz28OOUcVVWVkxeO5GR/HusV4Naj2/oVmz37uvtNHvcpK8dnqH8HB9st63d26uIwY97kvNz8UQPHdXS0x68Vi8XssnIIYHpa5mjfEdv+3ngo/NjhiMjNoetXBQYfPLHH3Mps24bQ9NSMlvkxyyv42bllLXOvH2k1hpNMJqmqMPGtJghhSVk5ny+MunAL795eQzy4XP7law+OnLhobWlq2FanahmhjV6r9HCr5IkU6a3Aq5YvEClQSI32qq0O7u2S/qXyUUpxcnr54zelawN+bZURBFk6aeS8cUMqeQINVSaKIHbmRveObCooYbMUGXSaAoIguwKnIP95nL67sBe3cLZmRgV3IvHPKsqKl3avLCorRxBEQ4WJIEifbg6PX3/48XZzxnzz0rRu1/bOoY0FxWUqTCVabduijaOUi6koy14piScQ7T7+YHFAD1k3pElsmt9f1k34xpec3PvxD207WEeEHWKylP85dMq1R7dRY4f/e+qCk3OnuBt3T188Fn0mhlvJWxO0EQDwKetTZUVlV7cuuno6th2sURTtN7j3vbiH2zeGZWVkFxUW83mCxw+ejhr7F5lM1tbVcnJ2BAA8vv+0tKRs6YLVAICC/KKnjxOrDCcAYNDw/iQSqa2Rgaa2xtvk969fpqzZvBxBEANDfTML0zcp7xOfvZyzeAaCILp6OnYdbV+/SqnxLchkkqt7VwRBzC3b3b/zKPV9KkuFadHeHEGQgUP7Pr4vs4wlLUmrMZw1Rr9amqqqKsrzZoyxNDcqKi7buisSw7Atu469fnJaS1Ptyo2H0RfvfL2wdQ6cl4Sn/D2/FfiDLAu9Fjiph6aqklRqQxDEtI2Svhb9yJXs7ALe4vBkHYAB8AsFBARBFOk0Rfo3Y0NCUV0N1ep/Vn0mk0hVV1V9xn2UtNS+aQUUlpRN+asWffMaQwQSiupqSlkNNf4D19lV9g5xEgmWkNLq01HJ1TZt7PmrTl0dtbQ1AQB9Bnju3Lw790ueRx/3HZvCrl++ZWVtoamlgaKovYPt1NkBAAChUKTMVBKJRHQGHX/wDu49eufmvQlTfUf4DPvwLhUCqKioyOPy8Pr5fD7+iLp07zLCxwsAIBAINTS/0wTFJF+Dl0RCEZVGRRCkam9SJBIhAEER9NsRoQj5IRSWRCKjeMdBEAAgQ5HB5wvweGs+XwBaSplXhUmXoeSevO9x/gwFCmXd8uk+AUuDVu/2GrOIzqCqqChbWRoHrgpbFRyx8+/jfIFA3Jo3q9mV8qLLXDelbC7eFaWIWAzpVFI/Jy0fT306VTZju3Zt9Sxq2xxtbrKKRekiTXsLOXrdt2qyc+XFeVUikUSdjJ4xf4r3+JHe40f6TR7r4t71dGQUQ5Hh4t510+qtI8cOBwC49uj2POElSiLp6Ons233oaux3ibhfPX/du7+Hu4drZkZ2ZlqmWCQe5NX/2IETmelZ8bfuP7r/FADg3svt3p1HykxlLR3Njau3PH303UbgqcizbHb5g7uPBQKhpbV5t+7Oh8MjKzgViU9fpKdm2naw7tHL7VD4MU55RdKL5KSXyR0729f9vYyMDVksZtTJ858/fYkIO4iv9KUkvXmX8r5Zfsf/sDTW8hkgs6mF/M44J44fCiFQYSmd+ycEABD1T4h+G20AgJWl8ZG9qwEAY0b1c3Pp+OFj1nifgZbmRgiCxJ7d+SzxjbISY+miCemZnwEEu7f9T1O9kZJjBLKCQSPtmGWLLxUkPcVkIf/S0kAIy7jYvVTeR4HGzPEeUln6biIoilgYt8ptjupMWxvd8lq1tfL50xdTM+MOnezwPxEE8Z3oc+rYWYlE4u078ktOrrOLEwDAwsosaNWiNUHBIqHIpoO1/+RxhYVFNnbt8atmzp+6YdWWh/cem5gaB0wbX87mePbtwS5jB68MMTIxtLFrT6VSnbo5+k8Zt3BmkEQs6e7hMnBov+rNoDPoswLmk8nkXREhdDo9aPXCrcG7Jo+dqUClhh3Ypq6hNi9w1o6NYVN8Z5HJ5O17Nunq6RgYGWhpaSoqKVrZWKAIau9gS6aQAQAsFtPCygwlobsPbd+9Lfz2tTvtbSwfs58BAB7cfVxWyra0tpDFL90SIE0PPlu/+8xyP1Mptac1IRJj26NK/ze5T3NUHvPgyxAXmSXNqT/RN5N7dTVTVmwuHfbgnecWuX4znBBCCYZVX2IVSyQQQhRFEQAwCKtOYRBi35f8Wl4sIZFQBEEghPiaBJlUV54jvH4SiqIoCiGUSDD88h9L4hXie/A/q3nL9ZLFfb5b2r39jnv9k5KWmiJLmd7ZztDBqk1Dk5s2E7IV0ZYWA6YfamHDuX7fDb/RTV1phxjEIIaitTxpeDBJ1anY6CsikWjYyMGccs7QXqMizx3Ub9umqhjp++d/mt+ckWOG9+zVHSDfNh0ghBiGIQhaPfxUIpEgCFKfAZxEIlkyZ/mK9YFMFvNw+NH0tMzgbavjb90vLCga4TOsjgvD/0kJnunVwB/mG2/T81+8/TJmYMdG19AUpDDjRClMdoWIpdQKPFmkS1Iax6Rtc/m+tgqrCQDw6tXMUnPfk/E5f2nosVMhS6qOLNl+JPFt2myfgRIMO/jvjXPbg5QV6QCAl+/Sw07EHl43t6okp5K3NPTYu8wcphJj81w/LXUV7yVbcotK4w4Eqyj/NNnnvJADyalZC3yHmhu2WfH38TJOpYaK8oY5443b1Pyvf5r88fD5m+ErZpRxKkcvDiksZT85vk2B8osuJpJgvkM7O7SXwbJw3bR2k9mqQVCE9JOt/RrGrEMnu4Uzg04ePcvn88f4jW6jr1drMRyWCotKpaLfj8wQBCH9ML788cjPQFG0nZnJ+BGTqVQKRUFhy+5gfN7s4u5czxoaB5vDT/tU3Ky3qAMpGM6xg7vsOBvn5abaVpv+h/Q1sQS++lj++D1cMKF9M91CIJRQ5SotyE8QisQUsnQy09bvdqKs3O+0YL4UFi8cP3SAq+PB8zcevHq7NuJUyHx/BEF4AmF23reSEMLtkReoCpSYXctj7z6bsSH82t41Jzcvdh676Mc48erK8p8LioMmjvDsYu8xadkC32F9u3U8de3erI0RsWErqspIMOzMtfvLwiKtjPVxH91TIUscvOfVZzknrQhz0ZPH3QSeQLT/7JM541xl3ZAmsWZmb1k3oXnRb9vmePQhPo9PIpNpNGrdPXH9lpWotNczEASZNneS/9RxErGEzqDjFldHr9mj6STYLxSamhUpGE5DPdX5AQNuP0l9/FEGAowiCSzliLVUWnS+i6KouWG7JZOMKOTmsm2L9iaHzf3Ftrw8sGbPzZk+XfW0WjQ5MwDgWcrHQ9E3Qub74xFKZDIJAODV0/nSvYSB3R17ONaixTWmf3c1ljKdRjXU0yotrwAA0BQoNd4zAqFoTfjJl+8zmIr0OWMHd7O3wj3RUASZ6NW7v2snqgLFtWP77cfOV78qIyf/8v2E4Nm+/8TG4a8SGpVSnz6dxxaLlPXUVX4635UhlTzhk9etWIYbp3PrTyn6S8hkspJyvdzaKdILmqoOgiB0eksrzCgzqCb66vUo2CxIxzmIpUTz8mzRJbsqKniizFyujUlLv7ibm1KOUNZNqBcCobiMw29hw/niXfrMDeH7V85S+l4QSl2FGTLff37IgTuHNta4BEEQM0M9AMDS0GNnbzzYsXhSrWPzy/cTsvOKTm1enPg27eC/N3DDiQ+V/IZ44lue2yMv9Hd1rH65ib720XXzHye9q/9XgBB+KhUffQHmT3Vp4LdvITiVAqai7MNJm0hRaSVLmdZ8A1wpAiHMzyvQ0tasWmWt4FSUlbHpNJq6pjomwUpLSjEI1dRVa6yjQgjLyzncSq66hpqCggK7rJzD4SgqKaqq/mIlQyQS5ecVoAiqp68LIeSUV1RWVqqrqylQvxMegRDyefzSkjIVNRU6nSbgC4qKiilkipaOpgzX8+0sdO1k53wuF24IBK0XLXWl/CJOS97xc37xsHnBs30G2VsY/9hvB7h2crIxX7P35M/CyUb3dVviP3zVnhP4pLMGJvo6T16/X7X3hFAkCguaWuOsUCResuNIXlHpqmne1Y+jKFrPVSO+CB68z95/n73rLv9age6i6UPkc7oJABAKxbbyFATZOFbuvp6TJ7OsjQ1CwBeMHDCunP2tN53+59w4r4DT/5zj8/hzpiyaPmHe7EkLp/rOrp6lBEK4c/PuscMCls5fNXLAuMz0rFvX4qb6ztm6bucv75j+MaO/27DNa7dBCMNDD/gM9Vu2YPXwfj4f36dWL3br2h2vvj4rl6zz6jP65tW4tNSMpfNXjxnm/zMt3D+B38Bw/p7bqkNdW8c7y72ziaaadNQP6gkEcNU0n53/xLArahG2RVE0eI7vtUcv4p4lfXcVhBmf83h8gb2F8aThfWhUSkpqLeuQdmZGV/5e1VZXc8uR6P4zVkuqvRoquDz/FTsruLzjGxZWF1toEFQq1XvC6LEB3nNmjpo51k2FKb8SyhbGWtNHN69/RwtgoKuS9UVeQjnrD57GCwDQd1DvGfOn3L4eLxQIT144cuL8YRqNevnC1aqSWRnZl85fPX3x2KFT4YO8+oeHHhw+eqj/lHG1Vgsh5HF5nHJOlYCtkYnhrn1bcz/nnTp29vTFYwdP7vX2Hfn39ojqSdFD1m3fEhZ84MSekND1m1ZvbW9juWnn2hb5Gepi76lHeYV1qUk3K7+B4fw9GdlDX9ZNqBddbNvamOk06y1qbJzra2tMGOrp0sFqXcSpWvfUNVSYWxb4b4/8mn2iuKw8v7gMALBi9/EjMbcBAHlFpYUl5W11v2VqFIrEaZ9yMQw7dfVe9O3H88YOOb9z6ae8ouIyTlUbpgfv1VBhbl80EQDA4wsghIWl7MLShs1mEASosRiqTDqdRpF/t1X5b+EvsTbVSk7Nk3UrGkbikxejB4//lPVNtqmrW5d1W1eSSCQURUlkcvWpnrau1sGTexWVGAiCUBQosM5Z4IkjZ7yH+E3zm+s9xK+woKjquJqG2tGz+5WUlfBKqtcPIdxzeFd7W0sAAIWigMlHGlGhUHzrSSpLduNO+RVA+MPB4wVl3Yp6IRJLSGi9Qr4aAZlKE0n4Cv89pwiCUBUoCIKsmubtMXn502pysmQSqSr2o183h9F9XXH/24PRN3Lyi0MDp6ydOTZgVeilu8/yistWT/cx0NEQir6Ouz8XFPeZtur1uTAPJ7uxQdtuPUmq4PHGDeqhqcrEC6Tn5F26m8BUpF+6lwAAUGMpPTgasvvUJZFYvGH2eLwMiqIKdTpfQAgxUnMFvEoXDMNCDsUv9OtOobSC3cE66N7JpLScJ+tWNIBXz19vXrtt+97NxqZGAMTjB1XVVPDn5/b1+KQXr1duCKoqT6fTDY3bAgDSUzMO7jkadmDbz2rGJNixA8d37d9qbmkWdTK6IK+Q/N/WL41GNTIxBAB8yv68Z0dESGhw1ZgJRdF25iYAgMqKyjVLN/gG+MjDcOpzAVuVSacpyMx+EYZTTlm0N3nHLDtZt6JerN17c3Q/+2aad5oY67/LS7HT/7o0amGkf+fgBtwP6NXZ0OolJ3p9CzxAUXTv8hn455F9XE9cjsf3L+MOBBeVcVSUGRTyd0++gY5G324dqQoUBo16I2JtaXmFAoWixPi2HmtqoFty70SNto3q43rz8cuqP53tLKJ3LK3ju+SyJRp6rSM8Nz2nJO1TcWu3mriiqTyvh9dALBYvnBHo7OpkbtGuxikI4b+nL+zZuX+358swAAATQklEQVRf5G51DbUap14mJi2cEbgiOLBKmehHUBLq4zfSb8RkazurvoN6mVmYZqRlVq8kJenN3CmLF6+Y38Wlc41rCwuKZgXMd3Tu5De59kXgFoZdIRjcw0qGJrx1zGl+xvVn+Rv+eX/wclbktVbvN1+DwjKBrJtQXxyt9a8/rCWRiFQY0N3ywnsSh//TBSgEQbdHXrhyP/FnBcorudNH9f+vMKKpysStZgWXN2Xt33jSTYFQ5D/UE9eCRxBEjaVcZTVRBNl8KKq6gaxCKBL5D/X88TibUzlpTViNbNgCMTz6jD+in2yEThrKrcepPZ1+EzkwdgX/TWq+rFtRLxAEOXhyb1ZG9o0rt6ofhxAe2HPk2IETR8/sM7OsaVPv3n6wYEbgpl3r+gyo5WmsXonXqKGxcVEjfLzOnoiOCDtY/ezThwmzJi5cE7Ji0LCa+WRysj+P/2vSwGH9Fy6dIyfLYB0s9Yb0tJZhA+TiV2g0VobKr1LZyRmcdvpy6pr4J+Dp3O7Bi0xOZbNYekUGdZpf310PscfpPK6wZuZ6AMD2xQF7lk1ztvupKqa9ubEaS/nH43QqdcXU0Q+OhbCUFBXpNCcb81ovDwuaGhY01dHa7MdTHS1NWUq1PHiKDNqa6WMe/7NVgUKGEPJF2OscwdY7gpEj+2i1rCNV44AQUsikvi61/yCtjgquYF3ETZGoFaR8IJFIhsZt14asWL8ipKjwmyxO3I27e3funx84qyC/4PmzF18+5wqFonOnznMruZ+ycuZNXTxl5gQymfT82YvU92nVK3z6KCH5v7xgQoFwxICx79587Nbd2dHJobr7bl5u/owJ8wKmjWcwaM+fvfjw9iOEMO5GfEZaplgsnhkw39HZwcbe6mXiq5eJSTJ3puXyhS0vGFCD1r1Uq69J79FBI7uA52ghj9orTaFfl9aRyBoAoEhXWDbFQ6HZlvX0dVSC5gy78zTt8NvPfD7/hzgTHQAA+NK4ug3rcW3j6jfCr4IAUKkUY0PdhbPMWEqtY80QQZCA4TUX61ovbbRYRm3U7jxL691NrocCKAnt5taFQiF36GQ3LsDn1rU7Vacy07PsHWyP7j+O/zl0xKA+A3sdjoh0ce+anprRoZPd9cu3rl++BQCwsW+/cOk3mcnnz14KhSIbe2sAAJVG3RIWvGfnvgpOhYmp8cJlcwvyCvBiGWlZdh1t4m7Ex92IBwCYW5oFrl5461p8R0d7Go2moamek/05bGs4AIBGo4Xu39riv803MAxbtfuG/7BO1u2a1yexbqRgOCGEb9Pyrz38wOXJIGafzcVQMRpyMK6F76uppjS8l62GanPNdMf1bttMNUsdBEEc2jevDzCDpjCgu9WA7r/Oa03QRPgCUSVPKLfRpY1j4vDOh6MTPJ3btUDaGRRBsEapwSkoKGwOXY9/xvNxHtx7VCKWiISigGnjA6aNr15YLBbbdbRRUWG5e7q5e7rVOCUWfU1KaGCoXz3PQYdOdvsid1f9WZBXgGFQIBB0dXXq6upUoz1tjfTNLU112+gcPLm3+nFMggkEMpNnef7mc2k5r72pjOcVUjCcz15/upuQ5t3fhqn4C6XE5kAmORwwDH4p5Ow4dneBX/ff7BXTaIrLKh8nZQ8kbFsr59SVV5U84UyfbrJuiDQxNVBfPbN3yyRrU2cplrIF6qpSEF1SZiqdjrxPppADVy2scQpF0YVL59Jqiyc+eezsySNnPPq4AwCcXZxUfq4fRKZQKjgVAd7Tj0cf+vHs8FFD1DVr0bRLepm8OjBYR1e7iW9dBDZ4jQpCuOfUo7m+rjL37JVCWrGVYVfnj3MmtwZRK+nyKY/94NXnySO6NEfli/a83jqjFsFVuUUgFPsvO710ioetWeuQbiD4kY9ZhctCrx1YM4Kp1OrF9n5ELJFUcoUs5eZdME/6kPswJXmgR1Mzi/3e5BVynyVUzvBumN4khLCgpEJLTUnmhlMKQzAUBX+g1QQAtNFiFpbUItsmFfJK+M1UczNBVSD/b2LP4IjbnMpW1nKCKqKuJy/06/5bWk0AQEZO6ZyNMRXc5vVXtzbVLi4EeQW1yFoR4EgkMPpK5vBeDZsYiCUYgiDa6soyt5rSMZyIjETvhMKvvlUQwvJyGWgvoagU5uu/E/YWuhP/chK2BvdFglr530R3J9vfNp1Iu7bqvbq2W/33jSrhi+aAREJnjXG9cO1L0tsiCUa8H74DQlhQzNt/4u3IXp11NJj1vzAjp2TK6nM8gag5W9cAWrFX7eDBg0+ePKmmpvbp06ctW7aEhYXJukXSxMNBsx6l5AsEQXp3/Rq2gWFYy2wpETQdiQS7m5jRvZOxnETpNRMIgowZ0LG4jPs+o7BZ9etZSvTlk3vHxr89fDIVIYnlYIIkF0AIMAmqyVKZNdpDV7MBVjM7tzRwx+XFAT3o1BZNH1kHsjSctfr1/Hiw1iMIguTk5OARRffv33dwcGjQ5b88InMCBhjJugmNJzElJ+r66+VTPRQZrUNh7k+GJxBt2h9HoZDcOhnLui3NDomEzv0vNXezju1oVMqIPnbDe9mIxZgM81AIRBiEgKYgL+MhFEVIKNqgNy2EMOr663m+bo7WciTfLTPDmZeXFxgYmJub6+bmlpeXt3XrVoFAEBwc/PLlSzU1teXLl9vY2FRUVGzatOnp06csFisoKMjBwYHD4axatSo5OdnFxQUX+IcQ3rlzJzAw8NGjR7dv305LS8vNzfXy8po0aRKCIKdPnz569CiCIKNHj/b19UUQJDo6+uDBgxDCoUOHTpo0KSsra9++fZmZmVpaWrt27ZIr29l66WCpl5CSM3dTzNpZfVo+xzVB/cEwbMm2S+0MNGb4dCX/1tPNKvA+XskVrt5zY+44F32dZgwBR1FUQaZGq7icL5ZgTEWGDNvQaCCEEEIURef5usrb8pVsDCeEcP78+W5ubhMmTAgPD7969WpISMiqVauYTOb58+cTEhL8/Pxu374dEhLC5/PPnz+fkpIyYcKEW7duhYaGIghy/vz56OjoiooKAACfzy8sLDQwMEhOTt63b9/169e1tLS8vLzMzMxIJNKePXtOnz5NIpHGjBmjoaGhra29ZcuW06dPMxgMf39/VVVVS0vLw4cP79u3z9zcXK6s5rIDb4IntZd1KxoJiYROGdnFwkgzISVnCGE45RJ82QZBkIV+3dvqqsjbi6m5YdApA90t522+6De00wA3y997jbo1UlrODTv+0MJYc3Q/ezl8OGVjONls9osXLw4dOkSn0/39/Y8cOSIQCOLj469evcpgMNzc3HR0dJKSkm7evHny5EkGg9G5c2dLS8vExMSbN29GREQwGAxvb+9NmzYBAFJSUszNzSkUCgCgb9++FhYWAIC//vrr5s2bJBJp9OjRurq6AIDx48dfvXpVX19/2LBhbdu2BQBMnDgxJibG0tLS0NBw0KBBNZKqy5ysvMp6lJJfEATp8Z/YadaXUk6lwLpdUwO/CKQChPBDZuGBc8+CJvdUYzGM2qjV46LfDQRBenQ2bW+qfebqKwnWajIR/SHcePRh35knwzytvTxlKUhbBzJbqsVHu1UfIIRisZj8X84KCoXC5XKFQiFuEfEjPB6vqgyKolQqFQBw69atXr164WXo9K8RWmQyWSKRiEQivAyuysHj8fh8PovFql4hAEBZWVnerOZvBqdSsPVIvCqTMWZgB0drfcJ8ypDyCv7G/XE5+WUThzuxftOwk/qjpaY0a4wL7h4VduKBo7V+p/b6NCqZeERbHghhCZurokwnkVB9bZXdy4fJQ7zmz5DNOIvJZNrY2ERFRWEYdv78+YqKCiqVam1tHRsbCwDIzs5+//69jY1Nx44dL168iG+IPn/+3NbWtmvXrpcuXYIQPn/+vKCgAADw+PFjJ6evYlF3797lcDhCofDq1auurq7Ozs6xsbECgUAkEsXExDg5OTk7O1+9epXL5YrFYvyITL5+fXC105B1E6SGjZnOgbUjvPvbJ3/Mw/2w3mcU5haWSyQyVov+E8AwLK+IczchPfFNDgCATqOM6GN7OHh0DydTYppVBYKA7o4ml++991t6+m5iBv4eJ57PloFdwT915eWcDRdmBZ8vLK0AAFiZaMlJvObPkM2ME0XRHTt2LFy48MCBAw4ODnQ6HUXRjRs3zp49+8yZM2w2e926dXp6emvXrp01a1ZsbCybzQ4KCjIxMVm6dOmUKVNu376tqqpqaGhYVFTEYrGqJpE0Gm3UqFE8Hs/FxaVv374QwsTExL59+yIIYmdn5+vrS6FQnj592r9/fzKZbGpqOnXq1MzMTGXlWlJnyJxpQ34rF0cyidTFrm0Xu68CvHcT0+8/zyyv4PfuZjbDuxsAIOLM48zPpQAAK1Ot8UM6AQAORz/7kFkEADAxUMPlmU5cevH6Qx4AQF+HhWvCRV1PSkz5DADQVleaM84VRZGLd948fJEFAFBXYcz1daWQSdcevL/zNB0AwFSiLvTvrkAh33madu3BB3yja5G/O51Gefgy82LcWwAAhYwGTurJoCvgjsH4K3XpFA8lBvX1x9wTsV+Tiy0OcFdjMT5kFh6OTsCPzBnnoqvJzPxSEnH6CX5k2mhnQz3VLwXlu088wMN9J3g5mhtpFpRwdkU+wDAIABg7qKONmU5pOXfHsXsiEQYAGNHHtpO1fgVXsOVwvFAoAQAM6dm+awdDvkAUciiexxcBAPq6mPdwMpVIsA37b3N5IgBAzy6mfbqZAwA2Hogr5/ABAN06Gg7u0R4AMHP9+Uqe0MxQY4CbJQCAQiZ1kifvRDkBRVEHqzYdLfU4lQI89LK0nDdpZRRLmcZSovkOcejUXl8gFK/++wZefpindRe7thiGLQ+9hv/n9nez6O5ogmHY2vBbAoEYzxrUq6sZhHDj/jg8d5Crg9FAdysI4bajd4tLuQAAJ1sDr142EMLdJx5+KSgHANhb6nr37wAh3Hf2Cd4jLE20/IZ2AgAcOZ/wPqOw1h7RRps1a0w3AMC5G68TknMAAJpqigv8ugMAYuPfZucUAACYSrSgyT0BAFU9gkYlr5rRGwBQ1SMQFNkwtx8AoKpHAASsmdlbgUKu3iOCJnsoK37rEQgCFvq7q6swPmYVHfr3GX5k9lgXXU1m5ueSiDNfe8SUUV2M26jlFXF2Rd4XS7BKnnCmT1frdjoikaSSK5zh3dXUQF1BdrmpG4QUQvjX/H1twfiGKVtCCCMiIkaNGqWmppaSkjJ9+vS4uDgSiYRLGdDpdAUFhaqSNY5gGMbhcJhMJoIgIpGIy+XihjMmJubixYt79uzh8/nVbSGfzxeJREpK32b9AoFAIBAoK0thRBN64smyqb2aWMkfi0Ao5gvF+IJhanYRbgOYSlR81y39U3EFVwgAUGQomBqoAwAyP5eUVwgAAHQa2cxQEwDwKa+slM0DAFAVSOZGmgiCfC5g468kCgW1MNJEUTS3sLywpBIAQCajFkaaJBKaX8zJL6rAnZgsjDTIZFJRaSX+2kJQxMpEi0xCS9jcnDw23k4rUy0KmVRWzsvOLcOPWBhrUBUo5RV8/NUGADAz0qBTKZU8YVr212xQpgZqigwqly9Mzfp6xKiNKlOJxheIPmYV4d3OUE+VpUwTisTvM4sgBvExgRqLIRJL3mUUQAwAAPS0mBqqihIJ9ja9ADe32hpK2urKEMI3afkSCQQAaKkr6WgoAwDepufjBlhdldFGiwUAEIkllD9S2KvpCEWSEnYlp1KoqaqowqRLJFjKf3k922gz1VUUIYS43QIA6Ggqa6kpQQhTUvPx/yYtNUUdTSaE8G16gViMAQA0VBX1tJgQwveZhfioSI1F19dRgRB+zCriC8QAAJYyzVBPFUKY9qm4Ro/IyCnBDXBdPSK3rLScBwBQUCBZGmvlFvOzc8voFIgPCq1MtQEAVT0CRRE8/3xVjwAA2lnoAQCqegQAwLqdNunXPUKTqkCu3iPaGaozaArf9Yi26op0BZ5A9DGziExG6VSyriaTJjehmQ1CNoYTABAaGnrx4kUbG5unT58uXrx42LBhTWxGbGxsbGxseHh4E+tpEM1nONccebvKnxBMJyAgaDy5xXyxBDPQapXhKPKMzObFc+bM8fLyKigoWLZsmYaGFPbzPDw8unRpFr31nyHBsOZbhf+Y01wquAQEBH8Cb7PK079wxRKsnCu2NmqAUg/BL5FGPk4AhCJJI/IYGxgYGBhITRiTwWAwGC06sPqUy9bWkMf9UQICAoKMXO7OqDQAwJy/TAjDKV2k4FY3pKf1/nOJJWzun6N4LsGwjM+lp66leHnaNNMtenXSaqaaCQgI/gR6O2rqqlN11Kh9OhMvEykjhT1OCGFqdvHV++85lfw/xHQiCNDVZA7ztFZlEpsHBAQEcsqVJ3liCRzcjUiRK2WIxFgEBAQEvycisQQAhEImAnalDGE4CQgICAgIGgAxEiEgICAgIGgAhOEkICAgICBoAIThJCAgICAgaACE4SQgICAgIGgAhOEkICAgICBoAIThJCAgICAgaACE4SQgICAgIGgAhOEkICAgICBoAIThJCAgICAgaACE4SQgICAgIGgA/wcp2sJxSm7JIQAAAABJRU5ErkJggg==;" vertex="1" parent="1">
          <mxGeometry x="270" y="480" width="616" height="340" as="geometry" />
        </mxCell>
        <mxCell id="IteQJDFuHtqB8pgohdOz-22" style="edgeStyle=orthogonalEdgeStyle;rounded=0;orthogonalLoop=1;jettySize=auto;html=1;exitX=0.5;exitY=1;exitDx=0;exitDy=0;dashed=1;" edge="1" parent="1" source="IteQJDFuHtqB8pgohdOz-9" target="IteQJDFuHtqB8pgohdOz-13">
          <mxGeometry relative="1" as="geometry" />
        </mxCell>
        <mxCell id="IteQJDFuHtqB8pgohdOz-27" style="edgeStyle=orthogonalEdgeStyle;rounded=0;orthogonalLoop=1;jettySize=auto;html=1;exitX=0.5;exitY=1;exitDx=0;exitDy=0;entryX=0.516;entryY=0.25;entryDx=0;entryDy=0;entryPerimeter=0;" edge="1" parent="1" source="IteQJDFuHtqB8pgohdOz-7" target="IteQJDFuHtqB8pgohdOz-8">
          <mxGeometry relative="1" as="geometry" />
        </mxCell>
        <mxCell id="IteQJDFuHtqB8pgohdOz-43" style="edgeStyle=orthogonalEdgeStyle;rounded=0;orthogonalLoop=1;jettySize=auto;html=1;exitX=0.5;exitY=1;exitDx=0;exitDy=0;entryX=0.5;entryY=0;entryDx=0;entryDy=0;" edge="1" parent="1" source="IteQJDFuHtqB8pgohdOz-28" target="IteQJDFuHtqB8pgohdOz-29">
          <mxGeometry relative="1" as="geometry" />
        </mxCell>
        <mxCell id="IteQJDFuHtqB8pgohdOz-28" value="Bi-Dense block" style="rounded=0;whiteSpace=wrap;html=1;" vertex="1" parent="1">
          <mxGeometry x="79.06" y="570" width="113.75" height="40" as="geometry" />
        </mxCell>
        <mxCell id="IteQJDFuHtqB8pgohdOz-44" style="edgeStyle=orthogonalEdgeStyle;rounded=0;orthogonalLoop=1;jettySize=auto;html=1;exitX=0.5;exitY=1;exitDx=0;exitDy=0;entryX=0.5;entryY=0;entryDx=0;entryDy=0;" edge="1" parent="1" source="IteQJDFuHtqB8pgohdOz-29" target="IteQJDFuHtqB8pgohdOz-31">
          <mxGeometry relative="1" as="geometry" />
        </mxCell>
        <mxCell id="IteQJDFuHtqB8pgohdOz-29" value="Global average pooling" style="rounded=0;whiteSpace=wrap;html=1;" vertex="1" parent="1">
          <mxGeometry x="79.06" y="620" width="113.75" height="40" as="geometry" />
        </mxCell>
        <mxCell id="IteQJDFuHtqB8pgohdOz-30" value="good/poor" style="rounded=0;whiteSpace=wrap;html=1;" vertex="1" parent="1">
          <mxGeometry x="77.19000000000001" y="730" width="113.75" height="40" as="geometry" />
        </mxCell>
        <mxCell id="IteQJDFuHtqB8pgohdOz-47" style="edgeStyle=orthogonalEdgeStyle;rounded=0;orthogonalLoop=1;jettySize=auto;html=1;exitX=0.5;exitY=1;exitDx=0;exitDy=0;entryX=0.5;entryY=0;entryDx=0;entryDy=0;" edge="1" parent="1" source="IteQJDFuHtqB8pgohdOz-31" target="IteQJDFuHtqB8pgohdOz-30">
          <mxGeometry relative="1" as="geometry" />
        </mxCell>
        <mxCell id="IteQJDFuHtqB8pgohdOz-31" value="Linear" style="rounded=0;whiteSpace=wrap;html=1;" vertex="1" parent="1">
          <mxGeometry x="79.06" y="680" width="113.75" height="40" as="geometry" />
        </mxCell>
        <mxCell id="IteQJDFuHtqB8pgohdOz-38" value="" style="endArrow=none;dashed=1;html=1;dashPattern=1 3;strokeWidth=2;rounded=0;" edge="1" parent="1">
          <mxGeometry width="50" height="50" relative="1" as="geometry">
            <mxPoint x="120" y="540" as="sourcePoint" />
            <mxPoint x="140" y="540" as="targetPoint" />
          </mxGeometry>
        </mxCell>
        <mxCell id="IteQJDFuHtqB8pgohdOz-42" value="" style="endArrow=classic;html=1;rounded=0;" edge="1" parent="1">
          <mxGeometry width="50" height="50" relative="1" as="geometry">
            <mxPoint x="130" y="550" as="sourcePoint" />
            <mxPoint x="130" y="570" as="targetPoint" />
          </mxGeometry>
        </mxCell>
        <mxCell id="IteQJDFuHtqB8pgohdOz-50" value="Bi-Dense block" style="text;html=1;align=center;verticalAlign=middle;whiteSpace=wrap;rounded=0;" vertex="1" parent="1">
          <mxGeometry x="290" y="220" width="60" height="30" as="geometry" />
        </mxCell>
        <mxCell id="IteQJDFuHtqB8pgohdOz-52" value="" style="rounded=1;whiteSpace=wrap;html=1;" vertex="1" parent="1">
          <mxGeometry x="270" y="340" width="120" height="60" as="geometry" />
        </mxCell>
        <mxCell id="IteQJDFuHtqB8pgohdOz-53" value="" style="rounded=1;whiteSpace=wrap;html=1;" vertex="1" parent="1">
          <mxGeometry x="270" y="270" width="120" height="60" as="geometry" />
        </mxCell>
        <mxCell id="IteQJDFuHtqB8pgohdOz-54" value="" style="rounded=1;whiteSpace=wrap;html=1;" vertex="1" parent="1">
          <mxGeometry x="460" y="340" width="120" height="60" as="geometry" />
        </mxCell>
        <mxCell id="IteQJDFuHtqB8pgohdOz-55" value="" style="rounded=1;whiteSpace=wrap;html=1;" vertex="1" parent="1">
          <mxGeometry x="460" y="270" width="120" height="60" as="geometry" />
        </mxCell>
        <mxCell id="IteQJDFuHtqB8pgohdOz-56" value="" style="rounded=1;whiteSpace=wrap;html=1;" vertex="1" parent="1">
          <mxGeometry x="640" y="340" width="120" height="60" as="geometry" />
        </mxCell>
        <mxCell id="IteQJDFuHtqB8pgohdOz-57" value="" style="rounded=1;whiteSpace=wrap;html=1;" vertex="1" parent="1">
          <mxGeometry x="640" y="270" width="120" height="60" as="geometry" />
        </mxCell>
        <mxCell id="IteQJDFuHtqB8pgohdOz-60" value="+" style="ellipse;whiteSpace=wrap;html=1;aspect=fixed;fontSize=17;" vertex="1" parent="1">
          <mxGeometry x="400" y="310" width="20" height="20" as="geometry" />
        </mxCell>
        <mxCell id="IteQJDFuHtqB8pgohdOz-63" value="+" style="ellipse;whiteSpace=wrap;html=1;aspect=fixed;fontSize=17;" vertex="1" parent="1">
          <mxGeometry x="430" y="310" width="20" height="20" as="geometry" />
        </mxCell>
      </root>
    </mxGraphModel>
  </diagram>
</mxfile>
